G04 #@! TF.GenerationSoftware,KiCad,Pcbnew,8.0.2-8.0.2-0~ubuntu22.04.1*
G04 #@! TF.CreationDate,2024-05-15T13:26:15-04:00*
G04 #@! TF.ProjectId,holiday-widget,686f6c69-6461-4792-9d77-69646765742e,1.0*
G04 #@! TF.SameCoordinates,Original*
G04 #@! TF.FileFunction,Soldermask,Bot*
G04 #@! TF.FilePolarity,Negative*
%FSLAX46Y46*%
G04 Gerber Fmt 4.6, Leading zero omitted, Abs format (unit mm)*
G04 Created by KiCad (PCBNEW 8.0.2-8.0.2-0~ubuntu22.04.1) date 2024-05-15 13:26:15*
%MOMM*%
%LPD*%
G01*
G04 APERTURE LIST*
G04 Aperture macros list*
%AMRoundRect*
0 Rectangle with rounded corners*
0 $1 Rounding radius*
0 $2 $3 $4 $5 $6 $7 $8 $9 X,Y pos of 4 corners*
0 Add a 4 corners polygon primitive as box body*
4,1,4,$2,$3,$4,$5,$6,$7,$8,$9,$2,$3,0*
0 Add four circle primitives for the rounded corners*
1,1,$1+$1,$2,$3*
1,1,$1+$1,$4,$5*
1,1,$1+$1,$6,$7*
1,1,$1+$1,$8,$9*
0 Add four rect primitives between the rounded corners*
20,1,$1+$1,$2,$3,$4,$5,0*
20,1,$1+$1,$4,$5,$6,$7,0*
20,1,$1+$1,$6,$7,$8,$9,0*
20,1,$1+$1,$8,$9,$2,$3,0*%
G04 Aperture macros list end*
%ADD10C,0.600000*%
%ADD11R,1.000000X1.000000*%
%ADD12O,1.000000X1.000000*%
%ADD13RoundRect,0.250000X1.125000X1.125000X-1.125000X1.125000X-1.125000X-1.125000X1.125000X-1.125000X0*%
%ADD14C,2.750000*%
%ADD15RoundRect,0.250000X1.125000X-1.125000X1.125000X1.125000X-1.125000X1.125000X-1.125000X-1.125000X0*%
%ADD16C,0.500000*%
%ADD17C,2.600000*%
%ADD18C,3.800000*%
%ADD19O,1.300000X4.600000*%
%ADD20O,1.300000X2.800000*%
G04 APERTURE END LIST*
D10*
X134606196Y-85919048D03*
X134606196Y-87419048D03*
X135106196Y-86669048D03*
X135606196Y-85919048D03*
X135606196Y-87419048D03*
D11*
X160500000Y-143560000D03*
D12*
X160500000Y-142290000D03*
X160500000Y-141020000D03*
X160500000Y-139750000D03*
X160500000Y-138480000D03*
X160500000Y-137210000D03*
X160500000Y-135940000D03*
X160500000Y-134670000D03*
D13*
X154607267Y-75475364D03*
D14*
X149207267Y-75475364D03*
D15*
X118000000Y-104500000D03*
D14*
X118000000Y-99100000D03*
D11*
X117875360Y-123032355D03*
D12*
X117875360Y-124302355D03*
X117875360Y-125572355D03*
X117875360Y-126842355D03*
D16*
X164523200Y-97662500D03*
D11*
X137250000Y-133190000D03*
D12*
X137250000Y-134460000D03*
X137250000Y-135730000D03*
X137250000Y-137000000D03*
X137250000Y-138270000D03*
D17*
X261000000Y-143500000D03*
D18*
X261000000Y-143500000D03*
D17*
X261000000Y-74500000D03*
D18*
X261000000Y-74500000D03*
D17*
X117000000Y-74500000D03*
D18*
X117000000Y-74500000D03*
D17*
X117000000Y-143500000D03*
D18*
X117000000Y-143500000D03*
D11*
X166000000Y-122140000D03*
D12*
X166000000Y-123410000D03*
X166000000Y-124680000D03*
X166000000Y-125950000D03*
D11*
X117230000Y-112190000D03*
D12*
X118500000Y-112190000D03*
X117230000Y-113460000D03*
X118500000Y-113460000D03*
X117230000Y-114730000D03*
X118500000Y-114730000D03*
X117230000Y-116000000D03*
X118500000Y-116000000D03*
X117230000Y-117270000D03*
X118500000Y-117270000D03*
D19*
X116400000Y-85500000D03*
D20*
X143600000Y-85500000D03*
M02*
