M48
; DRILL file {KiCad 8.0.2-8.0.2-0~ubuntu22.04.1} date 2024-05-15T13:27:02-0400
; FORMAT={-:-/ absolute / metric / decimal}
; #@! TF.CreationDate,2024-05-15T13:27:02-04:00
; #@! TF.GenerationSoftware,Kicad,Pcbnew,8.0.2-8.0.2-0~ubuntu22.04.1
; #@! TF.FileFunction,Plated,1,4,PTH
FMAT,2
METRIC
; #@! TA.AperFunction,Plated,PTH,ViaDrill
T1C0.300
; #@! TA.AperFunction,Plated,PTH,ComponentDrill
T2C0.300
; #@! TA.AperFunction,Plated,PTH,ComponentDrill
T3C0.650
; #@! TA.AperFunction,Plated,PTH,ComponentDrill
T4C0.800
; #@! TA.AperFunction,Plated,PTH,ComponentDrill
T5C1.750
; #@! TA.AperFunction,Plated,PTH,ComponentDrill
T6C2.200
%
G90
G05
T1
X119.193Y-135.557
X119.25Y-138.5
X120.5Y-109.25
X120.75Y-135.25
X121.25Y-139.75
X123.5Y-132.0
X124.5Y-132.0
X124.5Y-139.25
X124.75Y-113.0
X126.25Y-139.25
X126.5Y-135.25
X127.75Y-135.5
X127.75Y-138.75
X128.75Y-134.0
X129.0Y-135.75
X129.5Y-109.0
X129.71Y-84.563
X129.717Y-82.962
X129.75Y-81.25
X131.243Y-81.895
X131.25Y-101.0
X131.75Y-105.75
X132.0Y-81.5
X132.25Y-97.5
X134.076Y-120.326
X134.082Y-121.936
X134.217Y-84.748
X134.25Y-95.5
X134.25Y-115.25
X135.75Y-114.0
X136.75Y-90.0
X136.75Y-91.5
X137.0Y-116.989
X137.45Y-87.169
X137.5Y-119.389
X137.75Y-123.25
X139.0Y-112.5
X140.25Y-109.25
X141.0Y-118.5
X141.0Y-120.25
X141.0Y-126.75
X141.5Y-129.5
X142.0Y-115.0
X142.0Y-118.5
X142.0Y-123.25
X144.75Y-122.75
X144.75Y-135.25
X144.75Y-143.75
X144.875Y-110.875
X145.0Y-115.0
X145.032Y-110.091
X145.5Y-95.5
X145.651Y-123.447
X145.826Y-109.99
X146.0Y-121.25
X146.75Y-134.25
X146.801Y-120.6
X147.0Y-130.5
X147.25Y-143.75
X147.75Y-108.0
X148.5Y-85.0
X148.5Y-123.25
X148.75Y-108.0
X149.0Y-127.25
X149.431Y-116.431
X149.75Y-113.0
X149.75Y-129.25
X150.5Y-128.6
X151.0Y-131.65
X151.25Y-79.5
X151.25Y-124.0
X151.288Y-128.465
X151.811Y-82.462
X152.201Y-114.799
X152.5Y-119.039
X152.75Y-116.75
X153.25Y-85.75
X153.303Y-118.993
X154.1Y-118.919
X154.3Y-122.25
X154.748Y-118.45
X154.75Y-121.5
X155.5Y-104.5
X155.5Y-121.0
X155.9Y-94.75
X156.0Y-115.75
X156.066Y-120.434
X156.5Y-95.5
X157.01Y-111.798
X157.5Y-94.25
X158.0Y-106.5
X158.25Y-109.5
X158.617Y-113.023
X159.0Y-106.0
X160.25Y-94.25
X161.75Y-107.5
X161.75Y-109.9
X162.25Y-98.25
X162.75Y-112.0
X165.489Y-109.155
X165.5Y-100.0
X165.5Y-101.0
X165.5Y-107.0
X165.75Y-95.25
X167.0Y-113.75
X168.0Y-108.25
X168.5Y-97.425
X168.611Y-113.624
X169.5Y-105.5
X170.065Y-113.734
X170.201Y-108.799
X170.25Y-101.0
X170.25Y-107.25
X170.352Y-109.645
X170.75Y-99.75
X171.35Y-119.0
X172.65Y-101.75
X173.75Y-117.25
X179.495Y-78.05
X179.586Y-84.009
X180.25Y-133.25
X180.25Y-137.75
X181.0Y-137.0
X181.5Y-84.0
X182.0Y-136.0
X182.5Y-128.0
X185.0Y-112.0
X185.128Y-98.304
X185.25Y-103.0
X185.25Y-117.0
X185.5Y-99.5
X185.5Y-118.0
X186.0Y-104.5
X188.0Y-99.0
X189.625Y-123.0
X197.5Y-139.0
X199.5Y-121.5
X200.5Y-75.5
X200.5Y-99.0
X202.5Y-109.5
X203.5Y-118.5
X206.0Y-105.0
X209.5Y-120.0
X211.5Y-125.5
X217.5Y-129.5
X220.0Y-85.0
X226.0Y-98.0
X230.5Y-121.0
X231.0Y-106.0
X233.091Y-102.091
X241.0Y-95.5
X244.0Y-138.5
X253.5Y-79.0
X255.5Y-117.0
X257.4Y-102.5
T2
X134.606Y-85.919
X134.606Y-87.419
X135.106Y-86.669
X135.606Y-85.919
X135.606Y-87.419
T3
X117.23Y-112.19
X117.23Y-113.46
X117.23Y-114.73
X117.23Y-116.0
X117.23Y-117.27
X117.875Y-123.032
X117.875Y-124.302
X117.875Y-125.572
X117.875Y-126.842
X118.5Y-112.19
X118.5Y-113.46
X118.5Y-114.73
X118.5Y-116.0
X118.5Y-117.27
X137.25Y-133.19
X137.25Y-134.46
X137.25Y-135.73
X137.25Y-137.0
X137.25Y-138.27
X160.5Y-134.67
X160.5Y-135.94
X160.5Y-137.21
X160.5Y-138.48
X160.5Y-139.75
X160.5Y-141.02
X160.5Y-142.29
X160.5Y-143.56
X166.0Y-122.14
X166.0Y-123.41
X166.0Y-124.68
X166.0Y-125.95
T5
X118.0Y-99.1
X118.0Y-104.5
X149.207Y-75.475
X154.607Y-75.475
T6
X117.0Y-74.5
X117.0Y-143.5
X261.0Y-74.5
X261.0Y-143.5
T4
X116.4Y-83.85G85X116.4Y-87.15
G05
X143.6Y-84.75G85X143.6Y-86.25
G05
M30
