G04 #@! TF.GenerationSoftware,KiCad,Pcbnew,8.0.2-8.0.2-0~ubuntu22.04.1*
G04 #@! TF.CreationDate,2024-05-15T13:26:14-04:00*
G04 #@! TF.ProjectId,holiday-widget,686f6c69-6461-4792-9d77-69646765742e,1.0*
G04 #@! TF.SameCoordinates,Original*
G04 #@! TF.FileFunction,Legend,Bot*
G04 #@! TF.FilePolarity,Positive*
%FSLAX46Y46*%
G04 Gerber Fmt 4.6, Leading zero omitted, Abs format (unit mm)*
G04 Created by KiCad (PCBNEW 8.0.2-8.0.2-0~ubuntu22.04.1) date 2024-05-15 13:26:14*
%MOMM*%
%LPD*%
G01*
G04 APERTURE LIST*
G04 Aperture macros list*
%AMRoundRect*
0 Rectangle with rounded corners*
0 $1 Rounding radius*
0 $2 $3 $4 $5 $6 $7 $8 $9 X,Y pos of 4 corners*
0 Add a 4 corners polygon primitive as box body*
4,1,4,$2,$3,$4,$5,$6,$7,$8,$9,$2,$3,0*
0 Add four circle primitives for the rounded corners*
1,1,$1+$1,$2,$3*
1,1,$1+$1,$4,$5*
1,1,$1+$1,$6,$7*
1,1,$1+$1,$8,$9*
0 Add four rect primitives between the rounded corners*
20,1,$1+$1,$2,$3,$4,$5,0*
20,1,$1+$1,$4,$5,$6,$7,0*
20,1,$1+$1,$6,$7,$8,$9,0*
20,1,$1+$1,$8,$9,$2,$3,0*%
G04 Aperture macros list end*
%ADD10C,0.375000*%
%ADD11C,0.010000*%
%ADD12C,0.600000*%
%ADD13R,1.000000X1.000000*%
%ADD14O,1.000000X1.000000*%
%ADD15RoundRect,0.250000X1.125000X1.125000X-1.125000X1.125000X-1.125000X-1.125000X1.125000X-1.125000X0*%
%ADD16C,2.750000*%
%ADD17RoundRect,0.250000X1.125000X-1.125000X1.125000X1.125000X-1.125000X1.125000X-1.125000X-1.125000X0*%
%ADD18C,0.500000*%
%ADD19C,2.600000*%
%ADD20C,3.800000*%
%ADD21O,1.300000X4.600000*%
%ADD22O,1.300000X2.800000*%
G04 APERTURE END LIST*
D10*
X243896147Y-78046928D02*
X243896147Y-76546928D01*
X243896147Y-77261214D02*
X243039004Y-77261214D01*
X243039004Y-78046928D02*
X243039004Y-76546928D01*
X242110432Y-78046928D02*
X242253289Y-77975500D01*
X242253289Y-77975500D02*
X242324718Y-77904071D01*
X242324718Y-77904071D02*
X242396146Y-77761214D01*
X242396146Y-77761214D02*
X242396146Y-77332642D01*
X242396146Y-77332642D02*
X242324718Y-77189785D01*
X242324718Y-77189785D02*
X242253289Y-77118357D01*
X242253289Y-77118357D02*
X242110432Y-77046928D01*
X242110432Y-77046928D02*
X241896146Y-77046928D01*
X241896146Y-77046928D02*
X241753289Y-77118357D01*
X241753289Y-77118357D02*
X241681861Y-77189785D01*
X241681861Y-77189785D02*
X241610432Y-77332642D01*
X241610432Y-77332642D02*
X241610432Y-77761214D01*
X241610432Y-77761214D02*
X241681861Y-77904071D01*
X241681861Y-77904071D02*
X241753289Y-77975500D01*
X241753289Y-77975500D02*
X241896146Y-78046928D01*
X241896146Y-78046928D02*
X242110432Y-78046928D01*
X240753289Y-78046928D02*
X240896146Y-77975500D01*
X240896146Y-77975500D02*
X240967575Y-77832642D01*
X240967575Y-77832642D02*
X240967575Y-76546928D01*
X240181861Y-78046928D02*
X240181861Y-77046928D01*
X240181861Y-76546928D02*
X240253289Y-76618357D01*
X240253289Y-76618357D02*
X240181861Y-76689785D01*
X240181861Y-76689785D02*
X240110432Y-76618357D01*
X240110432Y-76618357D02*
X240181861Y-76546928D01*
X240181861Y-76546928D02*
X240181861Y-76689785D01*
X238824718Y-78046928D02*
X238824718Y-76546928D01*
X238824718Y-77975500D02*
X238967575Y-78046928D01*
X238967575Y-78046928D02*
X239253289Y-78046928D01*
X239253289Y-78046928D02*
X239396146Y-77975500D01*
X239396146Y-77975500D02*
X239467575Y-77904071D01*
X239467575Y-77904071D02*
X239539003Y-77761214D01*
X239539003Y-77761214D02*
X239539003Y-77332642D01*
X239539003Y-77332642D02*
X239467575Y-77189785D01*
X239467575Y-77189785D02*
X239396146Y-77118357D01*
X239396146Y-77118357D02*
X239253289Y-77046928D01*
X239253289Y-77046928D02*
X238967575Y-77046928D01*
X238967575Y-77046928D02*
X238824718Y-77118357D01*
X237467575Y-78046928D02*
X237467575Y-77261214D01*
X237467575Y-77261214D02*
X237539003Y-77118357D01*
X237539003Y-77118357D02*
X237681860Y-77046928D01*
X237681860Y-77046928D02*
X237967575Y-77046928D01*
X237967575Y-77046928D02*
X238110432Y-77118357D01*
X237467575Y-77975500D02*
X237610432Y-78046928D01*
X237610432Y-78046928D02*
X237967575Y-78046928D01*
X237967575Y-78046928D02*
X238110432Y-77975500D01*
X238110432Y-77975500D02*
X238181860Y-77832642D01*
X238181860Y-77832642D02*
X238181860Y-77689785D01*
X238181860Y-77689785D02*
X238110432Y-77546928D01*
X238110432Y-77546928D02*
X237967575Y-77475500D01*
X237967575Y-77475500D02*
X237610432Y-77475500D01*
X237610432Y-77475500D02*
X237467575Y-77404071D01*
X236896146Y-77046928D02*
X236539003Y-78046928D01*
X236181860Y-77046928D02*
X236539003Y-78046928D01*
X236539003Y-78046928D02*
X236681860Y-78404071D01*
X236681860Y-78404071D02*
X236753289Y-78475500D01*
X236753289Y-78475500D02*
X236896146Y-78546928D01*
X234610432Y-76546928D02*
X234253289Y-78046928D01*
X234253289Y-78046928D02*
X233967575Y-76975500D01*
X233967575Y-76975500D02*
X233681860Y-78046928D01*
X233681860Y-78046928D02*
X233324718Y-76546928D01*
X232753289Y-78046928D02*
X232753289Y-77046928D01*
X232753289Y-76546928D02*
X232824717Y-76618357D01*
X232824717Y-76618357D02*
X232753289Y-76689785D01*
X232753289Y-76689785D02*
X232681860Y-76618357D01*
X232681860Y-76618357D02*
X232753289Y-76546928D01*
X232753289Y-76546928D02*
X232753289Y-76689785D01*
X231396146Y-78046928D02*
X231396146Y-76546928D01*
X231396146Y-77975500D02*
X231539003Y-78046928D01*
X231539003Y-78046928D02*
X231824717Y-78046928D01*
X231824717Y-78046928D02*
X231967574Y-77975500D01*
X231967574Y-77975500D02*
X232039003Y-77904071D01*
X232039003Y-77904071D02*
X232110431Y-77761214D01*
X232110431Y-77761214D02*
X232110431Y-77332642D01*
X232110431Y-77332642D02*
X232039003Y-77189785D01*
X232039003Y-77189785D02*
X231967574Y-77118357D01*
X231967574Y-77118357D02*
X231824717Y-77046928D01*
X231824717Y-77046928D02*
X231539003Y-77046928D01*
X231539003Y-77046928D02*
X231396146Y-77118357D01*
X230039003Y-77046928D02*
X230039003Y-78261214D01*
X230039003Y-78261214D02*
X230110431Y-78404071D01*
X230110431Y-78404071D02*
X230181860Y-78475500D01*
X230181860Y-78475500D02*
X230324717Y-78546928D01*
X230324717Y-78546928D02*
X230539003Y-78546928D01*
X230539003Y-78546928D02*
X230681860Y-78475500D01*
X230039003Y-77975500D02*
X230181860Y-78046928D01*
X230181860Y-78046928D02*
X230467574Y-78046928D01*
X230467574Y-78046928D02*
X230610431Y-77975500D01*
X230610431Y-77975500D02*
X230681860Y-77904071D01*
X230681860Y-77904071D02*
X230753288Y-77761214D01*
X230753288Y-77761214D02*
X230753288Y-77332642D01*
X230753288Y-77332642D02*
X230681860Y-77189785D01*
X230681860Y-77189785D02*
X230610431Y-77118357D01*
X230610431Y-77118357D02*
X230467574Y-77046928D01*
X230467574Y-77046928D02*
X230181860Y-77046928D01*
X230181860Y-77046928D02*
X230039003Y-77118357D01*
X228753288Y-77975500D02*
X228896145Y-78046928D01*
X228896145Y-78046928D02*
X229181860Y-78046928D01*
X229181860Y-78046928D02*
X229324717Y-77975500D01*
X229324717Y-77975500D02*
X229396145Y-77832642D01*
X229396145Y-77832642D02*
X229396145Y-77261214D01*
X229396145Y-77261214D02*
X229324717Y-77118357D01*
X229324717Y-77118357D02*
X229181860Y-77046928D01*
X229181860Y-77046928D02*
X228896145Y-77046928D01*
X228896145Y-77046928D02*
X228753288Y-77118357D01*
X228753288Y-77118357D02*
X228681860Y-77261214D01*
X228681860Y-77261214D02*
X228681860Y-77404071D01*
X228681860Y-77404071D02*
X229396145Y-77546928D01*
X228253288Y-77046928D02*
X227681860Y-77046928D01*
X228039003Y-76546928D02*
X228039003Y-77832642D01*
X228039003Y-77832642D02*
X227967574Y-77975500D01*
X227967574Y-77975500D02*
X227824717Y-78046928D01*
X227824717Y-78046928D02*
X227681860Y-78046928D01*
X226253288Y-76546928D02*
X225753288Y-78046928D01*
X225753288Y-78046928D02*
X225253288Y-76546928D01*
X223967574Y-78046928D02*
X224824717Y-78046928D01*
X224396146Y-78046928D02*
X224396146Y-76546928D01*
X224396146Y-76546928D02*
X224539003Y-76761214D01*
X224539003Y-76761214D02*
X224681860Y-76904071D01*
X224681860Y-76904071D02*
X224824717Y-76975500D01*
X223324718Y-77904071D02*
X223253289Y-77975500D01*
X223253289Y-77975500D02*
X223324718Y-78046928D01*
X223324718Y-78046928D02*
X223396146Y-77975500D01*
X223396146Y-77975500D02*
X223324718Y-77904071D01*
X223324718Y-77904071D02*
X223324718Y-78046928D01*
X222324717Y-76546928D02*
X222181860Y-76546928D01*
X222181860Y-76546928D02*
X222039003Y-76618357D01*
X222039003Y-76618357D02*
X221967575Y-76689785D01*
X221967575Y-76689785D02*
X221896146Y-76832642D01*
X221896146Y-76832642D02*
X221824717Y-77118357D01*
X221824717Y-77118357D02*
X221824717Y-77475500D01*
X221824717Y-77475500D02*
X221896146Y-77761214D01*
X221896146Y-77761214D02*
X221967575Y-77904071D01*
X221967575Y-77904071D02*
X222039003Y-77975500D01*
X222039003Y-77975500D02*
X222181860Y-78046928D01*
X222181860Y-78046928D02*
X222324717Y-78046928D01*
X222324717Y-78046928D02*
X222467575Y-77975500D01*
X222467575Y-77975500D02*
X222539003Y-77904071D01*
X222539003Y-77904071D02*
X222610432Y-77761214D01*
X222610432Y-77761214D02*
X222681860Y-77475500D01*
X222681860Y-77475500D02*
X222681860Y-77118357D01*
X222681860Y-77118357D02*
X222610432Y-76832642D01*
X222610432Y-76832642D02*
X222539003Y-76689785D01*
X222539003Y-76689785D02*
X222467575Y-76618357D01*
X222467575Y-76618357D02*
X222324717Y-76546928D01*
D11*
X252961649Y-77400559D02*
X252990456Y-77493192D01*
X253014483Y-77587074D01*
X253033650Y-77682044D01*
X253047875Y-77777940D01*
X253053800Y-77831700D01*
X253060752Y-77918889D01*
X253064340Y-78004951D01*
X253064581Y-78089487D01*
X253061493Y-78172101D01*
X253055094Y-78252393D01*
X253045403Y-78329965D01*
X253032438Y-78404420D01*
X253016216Y-78475358D01*
X253003706Y-78520410D01*
X252980796Y-78589642D01*
X252954305Y-78655349D01*
X252924177Y-78717631D01*
X252890358Y-78776589D01*
X252852793Y-78832323D01*
X252811426Y-78884934D01*
X252766205Y-78934524D01*
X252764699Y-78936057D01*
X252724510Y-78974696D01*
X252683750Y-79009324D01*
X252641304Y-79040768D01*
X252596056Y-79069858D01*
X252546891Y-79097421D01*
X252534553Y-79103778D01*
X252476245Y-79130590D01*
X252414583Y-79153921D01*
X252349897Y-79173718D01*
X252282517Y-79189929D01*
X252212777Y-79202503D01*
X252141005Y-79211387D01*
X252067534Y-79216527D01*
X251992693Y-79217874D01*
X251916815Y-79215373D01*
X251840230Y-79208973D01*
X251799198Y-79203532D01*
X251738827Y-79192254D01*
X251676876Y-79176995D01*
X251614027Y-79157929D01*
X251550962Y-79135230D01*
X251522517Y-79123855D01*
X251461551Y-79097338D01*
X251399596Y-79067491D01*
X251336535Y-79034229D01*
X251272249Y-78997471D01*
X251206621Y-78957134D01*
X251139532Y-78913133D01*
X251070866Y-78865386D01*
X251000504Y-78813810D01*
X250928329Y-78758322D01*
X250854222Y-78698839D01*
X250778066Y-78635277D01*
X250699744Y-78567553D01*
X250619136Y-78495585D01*
X250536127Y-78419290D01*
X250509338Y-78394296D01*
X250483714Y-78370304D01*
X250459190Y-78347235D01*
X250435536Y-78324860D01*
X250412523Y-78302948D01*
X250389920Y-78281268D01*
X250367498Y-78259590D01*
X250345027Y-78237683D01*
X250322278Y-78215318D01*
X250299020Y-78192263D01*
X250275023Y-78168288D01*
X250250058Y-78143163D01*
X250223895Y-78116657D01*
X250196304Y-78088540D01*
X250167056Y-78058581D01*
X250135920Y-78026550D01*
X250102667Y-77992216D01*
X250067066Y-77955349D01*
X250028889Y-77915718D01*
X249987905Y-77873093D01*
X249943884Y-77827244D01*
X249896598Y-77777940D01*
X249865424Y-77745436D01*
X249829822Y-77708349D01*
X249794636Y-77671730D01*
X249760087Y-77635806D01*
X249726395Y-77600808D01*
X249693783Y-77566964D01*
X249662471Y-77534502D01*
X249632680Y-77503652D01*
X249604631Y-77474643D01*
X249578546Y-77447703D01*
X249554645Y-77423060D01*
X249533150Y-77400945D01*
X249514282Y-77381586D01*
X249498263Y-77365211D01*
X249485312Y-77352049D01*
X249475651Y-77342330D01*
X249457626Y-77324473D01*
X249402507Y-77271523D01*
X249348212Y-77222007D01*
X249293707Y-77175054D01*
X249237962Y-77129791D01*
X249179944Y-77085347D01*
X249118620Y-77040851D01*
X249103476Y-77030218D01*
X249027127Y-76979120D01*
X248949017Y-76930874D01*
X248869491Y-76885616D01*
X248788895Y-76843484D01*
X248707572Y-76804612D01*
X248625869Y-76769138D01*
X248544130Y-76737198D01*
X248462700Y-76708928D01*
X248381925Y-76684465D01*
X248302149Y-76663945D01*
X248223717Y-76647503D01*
X248146975Y-76635278D01*
X248072268Y-76627404D01*
X248068572Y-76627129D01*
X248030515Y-76625153D01*
X247990146Y-76624464D01*
X247948921Y-76625024D01*
X247908293Y-76626792D01*
X247869719Y-76629730D01*
X247834650Y-76633798D01*
X247802748Y-76639060D01*
X247753409Y-76650260D01*
X247705560Y-76664826D01*
X247659827Y-76682505D01*
X247616836Y-76703044D01*
X247577215Y-76726193D01*
X247541591Y-76751698D01*
X247527215Y-76763629D01*
X247492221Y-76797188D01*
X247460046Y-76834843D01*
X247430769Y-76876446D01*
X247404470Y-76921852D01*
X247381229Y-76970916D01*
X247361125Y-77023491D01*
X247344237Y-77079432D01*
X247330646Y-77138592D01*
X247328629Y-77149181D01*
X247322731Y-77184150D01*
X247317615Y-77220632D01*
X247313416Y-77257352D01*
X247310270Y-77293032D01*
X247308311Y-77326397D01*
X247307673Y-77356172D01*
X247307745Y-77385510D01*
X247326098Y-77349950D01*
X247330739Y-77341093D01*
X247356025Y-77297329D01*
X247383447Y-77257319D01*
X247413720Y-77220089D01*
X247447563Y-77184664D01*
X247482739Y-77153124D01*
X247523508Y-77122552D01*
X247566731Y-77096135D01*
X247612630Y-77073764D01*
X247661427Y-77055331D01*
X247713347Y-77040731D01*
X247768610Y-77029854D01*
X247780254Y-77028322D01*
X247799283Y-77026616D01*
X247821246Y-77025314D01*
X247844925Y-77024447D01*
X247869102Y-77024043D01*
X247892559Y-77024132D01*
X247914078Y-77024743D01*
X247932440Y-77025906D01*
X247988572Y-77032771D01*
X248049980Y-77044340D01*
X248112505Y-77060155D01*
X248175548Y-77080061D01*
X248238510Y-77103908D01*
X248252482Y-77109841D01*
X248276214Y-77120553D01*
X248302393Y-77132981D01*
X248329897Y-77146559D01*
X248357600Y-77160718D01*
X248384379Y-77174890D01*
X248409110Y-77188507D01*
X248430669Y-77201002D01*
X248443307Y-77208644D01*
X248523979Y-77260761D01*
X248602891Y-77317554D01*
X248679914Y-77378899D01*
X248754920Y-77444674D01*
X248827779Y-77514755D01*
X248898363Y-77589020D01*
X248966543Y-77667346D01*
X249032190Y-77749609D01*
X249095176Y-77835686D01*
X249100128Y-77842784D01*
X249123575Y-77877221D01*
X249146742Y-77912703D01*
X249170199Y-77950136D01*
X249194518Y-77990426D01*
X249220268Y-78034480D01*
X249221837Y-78037200D01*
X249254553Y-78092961D01*
X249286114Y-78144822D01*
X249317073Y-78193617D01*
X249347984Y-78240182D01*
X249379401Y-78285350D01*
X249411877Y-78329958D01*
X249445966Y-78374840D01*
X249449753Y-78379720D01*
X249470511Y-78406088D01*
X249491144Y-78431597D01*
X249512009Y-78456631D01*
X249533462Y-78481576D01*
X249555859Y-78506817D01*
X249579556Y-78532739D01*
X249604909Y-78559727D01*
X249632275Y-78588168D01*
X249662011Y-78618445D01*
X249694471Y-78650945D01*
X249730013Y-78686052D01*
X249768993Y-78724152D01*
X249780529Y-78735463D01*
X249802209Y-78757353D01*
X249820493Y-78776890D01*
X249835782Y-78794612D01*
X249848477Y-78811057D01*
X249858981Y-78826765D01*
X249867694Y-78842273D01*
X249869451Y-78846074D01*
X249875019Y-78858122D01*
X249881358Y-78874849D01*
X249886493Y-78893179D01*
X249890339Y-78921808D01*
X249889667Y-78951276D01*
X249884565Y-78980878D01*
X249875118Y-79009906D01*
X249861415Y-79037653D01*
X249855316Y-79047196D01*
X249837574Y-79068928D01*
X249816140Y-79088502D01*
X249791884Y-79105280D01*
X249765674Y-79118625D01*
X249738380Y-79127899D01*
X249733715Y-79129190D01*
X249724047Y-79132050D01*
X249710783Y-79136089D01*
X249694608Y-79141094D01*
X249676213Y-79146852D01*
X249656284Y-79153149D01*
X249635510Y-79159773D01*
X249607039Y-79168843D01*
X249522930Y-79195006D01*
X249442907Y-79218889D01*
X249366661Y-79240560D01*
X249293882Y-79260084D01*
X249224263Y-79277527D01*
X249157493Y-79292955D01*
X249093265Y-79306434D01*
X249031269Y-79318030D01*
X248971197Y-79327808D01*
X248912740Y-79335835D01*
X248855589Y-79342176D01*
X248799436Y-79346898D01*
X248743970Y-79350066D01*
X248664151Y-79351794D01*
X248577935Y-79349490D01*
X248494137Y-79342742D01*
X248412728Y-79331548D01*
X248333679Y-79315903D01*
X248256960Y-79295806D01*
X248199975Y-79277592D01*
X248123423Y-79248834D01*
X248046939Y-79215236D01*
X247970751Y-79176929D01*
X247895087Y-79134044D01*
X247820176Y-79086712D01*
X247746246Y-79035065D01*
X247673525Y-78979234D01*
X247602240Y-78919349D01*
X247590084Y-78908454D01*
X247571757Y-78891439D01*
X247551471Y-78872075D01*
X247530042Y-78851174D01*
X247508285Y-78829548D01*
X247487015Y-78808009D01*
X247467047Y-78787368D01*
X247449195Y-78768438D01*
X247434275Y-78752030D01*
X247412949Y-78727612D01*
X247347485Y-78647871D01*
X247286621Y-78566117D01*
X247230382Y-78482409D01*
X247178797Y-78396807D01*
X247131892Y-78309371D01*
X247089693Y-78220159D01*
X247061853Y-78152590D01*
X247482202Y-78152590D01*
X247493136Y-78172910D01*
X247523305Y-78226235D01*
X247567880Y-78296871D01*
X247616665Y-78365834D01*
X247669318Y-78432790D01*
X247725501Y-78497403D01*
X247784871Y-78559341D01*
X247847089Y-78618268D01*
X247911815Y-78673850D01*
X247978707Y-78725754D01*
X248047426Y-78773644D01*
X248117631Y-78817188D01*
X248188980Y-78856049D01*
X248242589Y-78881735D01*
X248299172Y-78905321D01*
X248355214Y-78924811D01*
X248411595Y-78940445D01*
X248469195Y-78952467D01*
X248528893Y-78961117D01*
X248591570Y-78966637D01*
X248640925Y-78968641D01*
X248707737Y-78968194D01*
X248777986Y-78964317D01*
X248851730Y-78957004D01*
X248929024Y-78946248D01*
X249009926Y-78932044D01*
X249094490Y-78914386D01*
X249108875Y-78911108D01*
X249131869Y-78905688D01*
X249155871Y-78899841D01*
X249180384Y-78893703D01*
X249204913Y-78887410D01*
X249228964Y-78881096D01*
X249252040Y-78874897D01*
X249273646Y-78868947D01*
X249293287Y-78863383D01*
X249310468Y-78858339D01*
X249324693Y-78853951D01*
X249335467Y-78850354D01*
X249342295Y-78847683D01*
X249344680Y-78846074D01*
X249344138Y-78844581D01*
X249340834Y-78840055D01*
X249335525Y-78834443D01*
X249330950Y-78829822D01*
X249323675Y-78822177D01*
X249314432Y-78812290D01*
X249303941Y-78800928D01*
X249292917Y-78788860D01*
X249271871Y-78765464D01*
X249211402Y-78695539D01*
X249153706Y-78624538D01*
X249098302Y-78551796D01*
X249044708Y-78476644D01*
X248992442Y-78398416D01*
X248941025Y-78316443D01*
X248889974Y-78230060D01*
X248873211Y-78201210D01*
X248843848Y-78152338D01*
X248815808Y-78107874D01*
X248789223Y-78068027D01*
X248760513Y-78027433D01*
X248715305Y-77967473D01*
X248668299Y-77909619D01*
X248619719Y-77854035D01*
X248569788Y-77800888D01*
X248518730Y-77750344D01*
X248466768Y-77702568D01*
X248414125Y-77657726D01*
X248361025Y-77615985D01*
X248307692Y-77577510D01*
X248254347Y-77542467D01*
X248201216Y-77511022D01*
X248148521Y-77483341D01*
X248096486Y-77459590D01*
X248045333Y-77439935D01*
X247995287Y-77424541D01*
X247946571Y-77413574D01*
X247899408Y-77407201D01*
X247897272Y-77407021D01*
X247859794Y-77405824D01*
X247825249Y-77408648D01*
X247793530Y-77415567D01*
X247764533Y-77426654D01*
X247738151Y-77441981D01*
X247714278Y-77461621D01*
X247692809Y-77485648D01*
X247673637Y-77514134D01*
X247656657Y-77547152D01*
X247641763Y-77584776D01*
X247638019Y-77596085D01*
X247633377Y-77613388D01*
X247631066Y-77628621D01*
X247630909Y-77643242D01*
X247632726Y-77658710D01*
X247635276Y-77671434D01*
X247643589Y-77699568D01*
X247655959Y-77729691D01*
X247672440Y-77761900D01*
X247693088Y-77796290D01*
X247717957Y-77832955D01*
X247747103Y-77871992D01*
X247780582Y-77913494D01*
X247782987Y-77916372D01*
X247836199Y-77977096D01*
X247893647Y-78037416D01*
X247954804Y-78096930D01*
X248019144Y-78155233D01*
X248086142Y-78211924D01*
X248155270Y-78266600D01*
X248226002Y-78318856D01*
X248297813Y-78368291D01*
X248370175Y-78414501D01*
X248442563Y-78457084D01*
X248514451Y-78495635D01*
X248585312Y-78529753D01*
X248598739Y-78535757D01*
X248662742Y-78562250D01*
X248724829Y-78584323D01*
X248785313Y-78602068D01*
X248844506Y-78615580D01*
X248902720Y-78624952D01*
X248906079Y-78625383D01*
X248950250Y-78632249D01*
X248989812Y-78640779D01*
X249024971Y-78651053D01*
X249055930Y-78663150D01*
X249082894Y-78677149D01*
X249106068Y-78693129D01*
X249125657Y-78711169D01*
X249126380Y-78711947D01*
X249140620Y-78729841D01*
X249150914Y-78748932D01*
X249158199Y-78770939D01*
X249160039Y-78779313D01*
X249161585Y-78797347D01*
X249158996Y-78812782D01*
X249152131Y-78825837D01*
X249140844Y-78836731D01*
X249124992Y-78845684D01*
X249104432Y-78852914D01*
X249101541Y-78853709D01*
X249095521Y-78855202D01*
X249089460Y-78856353D01*
X249082640Y-78857204D01*
X249074340Y-78857800D01*
X249063840Y-78858184D01*
X249050420Y-78858399D01*
X249033360Y-78858488D01*
X249011940Y-78858496D01*
X248995802Y-78858458D01*
X248975519Y-78858278D01*
X248957902Y-78857887D01*
X248941667Y-78857213D01*
X248925530Y-78856183D01*
X248908206Y-78854726D01*
X248888411Y-78852770D01*
X248864862Y-78850241D01*
X248844100Y-78847919D01*
X248822725Y-78845447D01*
X248802121Y-78842989D01*
X248783360Y-78840677D01*
X248767510Y-78838639D01*
X248755642Y-78837004D01*
X248678928Y-78823929D01*
X248594747Y-78805444D01*
X248508559Y-78782333D01*
X248420336Y-78754588D01*
X248384066Y-78742020D01*
X248292859Y-78707301D01*
X248202882Y-78668623D01*
X248114491Y-78626210D01*
X248028040Y-78580285D01*
X247943884Y-78531072D01*
X247862378Y-78478795D01*
X247783876Y-78423676D01*
X247708734Y-78365940D01*
X247637306Y-78305809D01*
X247569947Y-78243508D01*
X247507012Y-78179260D01*
X247482202Y-78152590D01*
X247061853Y-78152590D01*
X247052228Y-78129231D01*
X247019524Y-78036648D01*
X246991607Y-77942467D01*
X246968504Y-77846749D01*
X246950242Y-77749553D01*
X246936849Y-77650940D01*
X246936567Y-77648360D01*
X246931615Y-77595150D01*
X246927937Y-77539104D01*
X246925541Y-77481328D01*
X246924436Y-77422926D01*
X246924633Y-77365004D01*
X246926140Y-77308667D01*
X246928966Y-77255021D01*
X246933121Y-77205170D01*
X246935421Y-77183922D01*
X246945945Y-77108860D01*
X246959946Y-77035905D01*
X246977319Y-76965405D01*
X246997962Y-76897711D01*
X247021770Y-76833170D01*
X247048640Y-76772134D01*
X247078469Y-76714950D01*
X247086097Y-76701925D01*
X247099924Y-76679716D01*
X247115505Y-76656011D01*
X247131881Y-76632222D01*
X247148095Y-76609761D01*
X247163190Y-76590039D01*
X247163942Y-76589096D01*
X247179252Y-76570858D01*
X247197396Y-76550714D01*
X247217390Y-76529657D01*
X247238249Y-76508678D01*
X247258989Y-76488768D01*
X247278624Y-76470920D01*
X247296170Y-76456124D01*
X247302747Y-76450914D01*
X247356746Y-76411781D01*
X247413879Y-76376622D01*
X247474091Y-76345457D01*
X247537327Y-76318310D01*
X247603531Y-76295200D01*
X247672650Y-76276151D01*
X247744628Y-76261183D01*
X247819410Y-76250318D01*
X247867151Y-76245764D01*
X247925633Y-76242508D01*
X247985573Y-76241483D01*
X248045754Y-76242664D01*
X248104959Y-76246022D01*
X248161972Y-76251531D01*
X248215574Y-76259164D01*
X248231636Y-76261983D01*
X248305841Y-76277770D01*
X248381537Y-76298330D01*
X248458647Y-76323619D01*
X248537097Y-76353594D01*
X248616808Y-76388211D01*
X248697706Y-76427425D01*
X248779714Y-76471193D01*
X248862756Y-76519471D01*
X248946756Y-76572215D01*
X249031637Y-76629381D01*
X249117324Y-76690925D01*
X249203739Y-76756803D01*
X249290808Y-76826972D01*
X249378454Y-76901388D01*
X249466600Y-76980006D01*
X249479621Y-76992028D01*
X249500337Y-77011539D01*
X249523526Y-77033746D01*
X249548601Y-77058063D01*
X249574976Y-77083907D01*
X249602063Y-77110694D01*
X249629274Y-77137839D01*
X249656023Y-77164760D01*
X249681723Y-77190871D01*
X249705785Y-77215589D01*
X249727623Y-77238330D01*
X249746649Y-77258510D01*
X249758980Y-77271683D01*
X249774551Y-77288204D01*
X249792736Y-77307409D01*
X249813317Y-77329070D01*
X249836074Y-77352962D01*
X249860790Y-77378857D01*
X249887245Y-77406527D01*
X249915220Y-77435748D01*
X249944496Y-77466290D01*
X249974855Y-77497928D01*
X250006078Y-77530434D01*
X250037946Y-77563582D01*
X250070241Y-77597144D01*
X250102743Y-77630894D01*
X250135233Y-77664604D01*
X250167494Y-77698049D01*
X250199305Y-77731000D01*
X250230449Y-77763231D01*
X250260706Y-77794515D01*
X250289858Y-77824626D01*
X250317685Y-77853335D01*
X250343970Y-77880416D01*
X250368493Y-77905643D01*
X250391035Y-77928788D01*
X250411377Y-77949625D01*
X250429302Y-77967926D01*
X250444589Y-77983464D01*
X250457020Y-77996014D01*
X250466377Y-78005346D01*
X250472440Y-78011236D01*
X250547072Y-78080157D01*
X250633412Y-78156466D01*
X250719945Y-78229331D01*
X250806506Y-78298644D01*
X250892929Y-78364295D01*
X250979046Y-78426175D01*
X251064692Y-78484177D01*
X251149700Y-78538191D01*
X251233904Y-78588109D01*
X251317137Y-78633821D01*
X251399232Y-78675219D01*
X251480024Y-78712194D01*
X251559345Y-78744637D01*
X251637030Y-78772440D01*
X251674711Y-78784445D01*
X251728073Y-78799601D01*
X251779477Y-78811843D01*
X251830038Y-78821429D01*
X251880870Y-78828616D01*
X251895598Y-78830035D01*
X251916157Y-78831362D01*
X251939753Y-78832365D01*
X251965487Y-78833045D01*
X251992457Y-78833400D01*
X252019762Y-78833430D01*
X252046502Y-78833136D01*
X252071776Y-78832516D01*
X252094682Y-78831571D01*
X252114321Y-78830300D01*
X252129790Y-78828702D01*
X252147715Y-78826135D01*
X252203642Y-78815908D01*
X252255678Y-78802793D01*
X252304118Y-78786683D01*
X252349253Y-78767473D01*
X252391376Y-78745057D01*
X252430780Y-78719327D01*
X252434070Y-78716909D01*
X252449051Y-78704901D01*
X252465708Y-78690260D01*
X252482887Y-78674097D01*
X252499436Y-78657520D01*
X252514203Y-78641641D01*
X252526034Y-78627570D01*
X252528106Y-78624897D01*
X252556845Y-78584145D01*
X252582490Y-78540427D01*
X252605094Y-78493574D01*
X252624711Y-78443415D01*
X252641394Y-78389780D01*
X252655195Y-78332502D01*
X252666168Y-78271409D01*
X252674367Y-78206332D01*
X252679843Y-78137103D01*
X252679981Y-78134731D01*
X252681115Y-78114772D01*
X252681834Y-78099590D01*
X252682018Y-78088917D01*
X252681544Y-78082487D01*
X252680291Y-78080032D01*
X252678137Y-78081284D01*
X252674960Y-78085976D01*
X252670639Y-78093841D01*
X252665051Y-78104611D01*
X252640124Y-78149214D01*
X252608987Y-78196235D01*
X252574998Y-78239061D01*
X252538131Y-78277715D01*
X252498359Y-78312220D01*
X252455656Y-78342600D01*
X252409994Y-78368876D01*
X252361347Y-78391072D01*
X252309687Y-78409210D01*
X252295548Y-78413291D01*
X252243908Y-78424956D01*
X252190003Y-78432294D01*
X252134122Y-78435321D01*
X252076552Y-78434049D01*
X252017582Y-78428494D01*
X251957500Y-78418668D01*
X251896593Y-78404586D01*
X251835150Y-78386262D01*
X251789713Y-78370168D01*
X251719401Y-78341321D01*
X251648895Y-78307697D01*
X251578425Y-78269461D01*
X251508220Y-78226779D01*
X251438508Y-78179814D01*
X251369520Y-78128731D01*
X251301483Y-78073695D01*
X251234628Y-78014870D01*
X251169182Y-77952421D01*
X251105376Y-77886513D01*
X251043437Y-77817310D01*
X251008783Y-77776149D01*
X250965496Y-77721936D01*
X250923839Y-77666377D01*
X250883302Y-77608742D01*
X250843377Y-77548301D01*
X250803552Y-77484324D01*
X250763319Y-77416081D01*
X250743142Y-77381407D01*
X250702323Y-77313913D01*
X250661508Y-77250122D01*
X250620097Y-77189165D01*
X250577489Y-77130171D01*
X250533083Y-77072269D01*
X250486280Y-77014589D01*
X250464515Y-76988763D01*
X250442125Y-76962886D01*
X250419524Y-76937528D01*
X250396191Y-76912141D01*
X250371608Y-76886177D01*
X250345255Y-76859088D01*
X250316613Y-76830326D01*
X250285162Y-76799342D01*
X250250383Y-76765589D01*
X250233823Y-76749493D01*
X250217429Y-76733329D01*
X250201945Y-76717843D01*
X250187927Y-76703599D01*
X250175929Y-76691162D01*
X250166506Y-76681093D01*
X250160213Y-76673959D01*
X250140559Y-76648207D01*
X250122420Y-76618792D01*
X250118853Y-76610930D01*
X250642958Y-76610930D01*
X250644079Y-76612706D01*
X250648151Y-76617642D01*
X250654679Y-76625122D01*
X250663136Y-76634541D01*
X250672993Y-76645294D01*
X250701082Y-76676027D01*
X250764169Y-76748065D01*
X250824239Y-76821129D01*
X250881786Y-76895895D01*
X250937303Y-76973039D01*
X250991284Y-77053235D01*
X251044221Y-77137160D01*
X251096607Y-77225490D01*
X251096979Y-77226135D01*
X251107675Y-77244597D01*
X251118552Y-77263194D01*
X251129071Y-77281017D01*
X251138693Y-77297155D01*
X251146879Y-77310699D01*
X251153088Y-77320740D01*
X251188162Y-77374382D01*
X251233001Y-77438016D01*
X251279970Y-77499638D01*
X251328838Y-77559056D01*
X251379370Y-77616078D01*
X251431334Y-77670511D01*
X251484496Y-77722164D01*
X251538624Y-77770845D01*
X251593483Y-77816362D01*
X251648841Y-77858522D01*
X251704466Y-77897133D01*
X251760122Y-77932005D01*
X251815578Y-77962943D01*
X251870600Y-77989757D01*
X251924955Y-78012255D01*
X251978409Y-78030243D01*
X252030730Y-78043532D01*
X252046005Y-78046305D01*
X252069115Y-78049238D01*
X252093532Y-78051121D01*
X252118010Y-78051922D01*
X252141299Y-78051606D01*
X252162152Y-78050141D01*
X252179320Y-78047494D01*
X252201150Y-78041562D01*
X252229122Y-78029928D01*
X252254571Y-78014222D01*
X252277598Y-77994341D01*
X252298303Y-77970178D01*
X252316787Y-77941628D01*
X252333149Y-77908587D01*
X252347491Y-77870947D01*
X252350860Y-77860750D01*
X252354025Y-77850379D01*
X252355925Y-77842288D01*
X252356798Y-77835042D01*
X252356882Y-77827208D01*
X252356417Y-77817355D01*
X252354280Y-77798397D01*
X252348372Y-77774130D01*
X252341434Y-77755369D01*
X252327765Y-77725696D01*
X252310046Y-77693855D01*
X252288218Y-77659756D01*
X252262221Y-77623307D01*
X252231995Y-77584415D01*
X252197480Y-77542990D01*
X252196200Y-77541508D01*
X252185065Y-77529106D01*
X252170873Y-77513954D01*
X252154230Y-77496650D01*
X252135739Y-77477793D01*
X252116005Y-77457982D01*
X252095632Y-77437816D01*
X252075224Y-77417892D01*
X252055386Y-77398811D01*
X252036721Y-77381170D01*
X252019835Y-77365568D01*
X252005330Y-77352604D01*
X251993276Y-77342145D01*
X251929130Y-77288544D01*
X251863787Y-77237287D01*
X251797556Y-77188546D01*
X251730746Y-77142493D01*
X251663667Y-77099302D01*
X251596628Y-77059144D01*
X251529937Y-77022193D01*
X251463904Y-76988621D01*
X251398839Y-76958601D01*
X251335049Y-76932306D01*
X251272845Y-76909907D01*
X251212536Y-76891579D01*
X251154430Y-76877492D01*
X251145648Y-76875767D01*
X251130087Y-76873011D01*
X251112187Y-76870097D01*
X251093528Y-76867279D01*
X251075690Y-76864812D01*
X251062093Y-76862915D01*
X251044749Y-76860190D01*
X251028357Y-76857305D01*
X251014281Y-76854504D01*
X251003888Y-76852030D01*
X250998073Y-76850380D01*
X250965905Y-76839307D01*
X250936938Y-76825922D01*
X250911522Y-76810465D01*
X250890009Y-76793175D01*
X250872750Y-76774291D01*
X250860095Y-76754052D01*
X250857633Y-76748782D01*
X250850816Y-76730003D01*
X250847070Y-76711801D01*
X250846446Y-76695004D01*
X250848995Y-76680437D01*
X250854771Y-76668925D01*
X250857447Y-76665811D01*
X250868997Y-76656998D01*
X250885131Y-76649689D01*
X250905644Y-76643890D01*
X250930330Y-76639604D01*
X250958986Y-76636835D01*
X250991405Y-76635589D01*
X251027384Y-76635870D01*
X251066717Y-76637682D01*
X251109199Y-76641030D01*
X251154625Y-76645917D01*
X251202791Y-76652349D01*
X251253490Y-76660330D01*
X251258952Y-76661257D01*
X251366238Y-76681848D01*
X251470967Y-76706513D01*
X251573046Y-76735209D01*
X251672381Y-76767892D01*
X251768880Y-76804520D01*
X251862449Y-76845050D01*
X251952995Y-76889440D01*
X252040425Y-76937646D01*
X252124645Y-76989626D01*
X252205564Y-77045336D01*
X252283086Y-77104735D01*
X252357120Y-77167779D01*
X252369781Y-77179393D01*
X252385694Y-77194442D01*
X252403399Y-77211537D01*
X252422107Y-77229894D01*
X252441029Y-77248728D01*
X252459377Y-77267252D01*
X252476362Y-77284683D01*
X252491195Y-77300233D01*
X252503088Y-77313120D01*
X252517943Y-77329630D01*
X252500675Y-77296610D01*
X252465012Y-77232559D01*
X252420826Y-77162279D01*
X252372338Y-77093583D01*
X252319897Y-77026813D01*
X252263847Y-76962313D01*
X252204537Y-76900424D01*
X252142312Y-76841490D01*
X252077518Y-76785853D01*
X252010503Y-76733856D01*
X251941612Y-76685842D01*
X251871193Y-76642153D01*
X251799590Y-76603132D01*
X251763150Y-76585221D01*
X251727114Y-76568879D01*
X251692306Y-76554630D01*
X251657350Y-76541882D01*
X251654274Y-76540831D01*
X251598677Y-76524000D01*
X251540952Y-76510562D01*
X251480952Y-76500522D01*
X251418530Y-76493884D01*
X251353540Y-76490651D01*
X251285835Y-76490827D01*
X251215267Y-76494417D01*
X251141692Y-76501422D01*
X251064961Y-76511849D01*
X250984928Y-76525700D01*
X250901446Y-76542978D01*
X250814370Y-76563689D01*
X250810312Y-76564716D01*
X250792038Y-76569406D01*
X250772533Y-76574507D01*
X250752409Y-76579849D01*
X250732283Y-76585263D01*
X250712769Y-76590579D01*
X250694481Y-76595627D01*
X250678035Y-76600239D01*
X250664045Y-76604244D01*
X250653125Y-76607474D01*
X250645892Y-76609759D01*
X250642958Y-76610930D01*
X250118853Y-76610930D01*
X250109240Y-76589742D01*
X250100972Y-76560928D01*
X250097570Y-76532222D01*
X250098987Y-76503495D01*
X250100905Y-76491422D01*
X250109125Y-76460044D01*
X250121561Y-76431193D01*
X250138017Y-76405146D01*
X250158297Y-76382181D01*
X250182207Y-76362576D01*
X250209550Y-76346607D01*
X250214153Y-76344445D01*
X250226717Y-76339076D01*
X250239009Y-76334456D01*
X250248920Y-76331401D01*
X250254970Y-76329745D01*
X250265503Y-76326644D01*
X250279262Y-76322462D01*
X250295403Y-76317455D01*
X250313087Y-76311884D01*
X250331470Y-76306007D01*
X250399092Y-76284478D01*
X250475499Y-76260844D01*
X250548000Y-76239236D01*
X250616967Y-76219572D01*
X250682769Y-76201766D01*
X250745779Y-76185735D01*
X250806367Y-76171396D01*
X250864903Y-76158665D01*
X250921758Y-76147459D01*
X250977303Y-76137692D01*
X251031910Y-76129283D01*
X251085947Y-76122147D01*
X251139787Y-76116201D01*
X251193800Y-76111360D01*
X251194733Y-76111287D01*
X251211488Y-76110274D01*
X251232171Y-76109464D01*
X251255882Y-76108858D01*
X251281721Y-76108455D01*
X251308787Y-76108256D01*
X251336180Y-76108261D01*
X251362999Y-76108469D01*
X251388344Y-76108881D01*
X251411315Y-76109497D01*
X251431010Y-76110317D01*
X251446530Y-76111342D01*
X251494620Y-76116197D01*
X251550069Y-76123572D01*
X251604076Y-76132633D01*
X251655468Y-76143180D01*
X251703070Y-76155012D01*
X251734012Y-76163887D01*
X251811125Y-76189462D01*
X251888159Y-76219880D01*
X251964845Y-76254979D01*
X252040914Y-76294596D01*
X252116097Y-76338568D01*
X252190125Y-76386734D01*
X252262728Y-76438929D01*
X252333638Y-76494993D01*
X252402585Y-76554761D01*
X252469301Y-76618072D01*
X252500652Y-76649858D01*
X252568835Y-76723946D01*
X252632967Y-76800742D01*
X252692966Y-76880086D01*
X252748751Y-76961816D01*
X252800243Y-77045767D01*
X252847359Y-77131780D01*
X252890020Y-77219691D01*
X252928143Y-77309338D01*
X252935597Y-77329630D01*
X252961649Y-77400559D01*
G36*
X252961649Y-77400559D02*
G01*
X252990456Y-77493192D01*
X253014483Y-77587074D01*
X253033650Y-77682044D01*
X253047875Y-77777940D01*
X253053800Y-77831700D01*
X253060752Y-77918889D01*
X253064340Y-78004951D01*
X253064581Y-78089487D01*
X253061493Y-78172101D01*
X253055094Y-78252393D01*
X253045403Y-78329965D01*
X253032438Y-78404420D01*
X253016216Y-78475358D01*
X253003706Y-78520410D01*
X252980796Y-78589642D01*
X252954305Y-78655349D01*
X252924177Y-78717631D01*
X252890358Y-78776589D01*
X252852793Y-78832323D01*
X252811426Y-78884934D01*
X252766205Y-78934524D01*
X252764699Y-78936057D01*
X252724510Y-78974696D01*
X252683750Y-79009324D01*
X252641304Y-79040768D01*
X252596056Y-79069858D01*
X252546891Y-79097421D01*
X252534553Y-79103778D01*
X252476245Y-79130590D01*
X252414583Y-79153921D01*
X252349897Y-79173718D01*
X252282517Y-79189929D01*
X252212777Y-79202503D01*
X252141005Y-79211387D01*
X252067534Y-79216527D01*
X251992693Y-79217874D01*
X251916815Y-79215373D01*
X251840230Y-79208973D01*
X251799198Y-79203532D01*
X251738827Y-79192254D01*
X251676876Y-79176995D01*
X251614027Y-79157929D01*
X251550962Y-79135230D01*
X251522517Y-79123855D01*
X251461551Y-79097338D01*
X251399596Y-79067491D01*
X251336535Y-79034229D01*
X251272249Y-78997471D01*
X251206621Y-78957134D01*
X251139532Y-78913133D01*
X251070866Y-78865386D01*
X251000504Y-78813810D01*
X250928329Y-78758322D01*
X250854222Y-78698839D01*
X250778066Y-78635277D01*
X250699744Y-78567553D01*
X250619136Y-78495585D01*
X250536127Y-78419290D01*
X250509338Y-78394296D01*
X250483714Y-78370304D01*
X250459190Y-78347235D01*
X250435536Y-78324860D01*
X250412523Y-78302948D01*
X250389920Y-78281268D01*
X250367498Y-78259590D01*
X250345027Y-78237683D01*
X250322278Y-78215318D01*
X250299020Y-78192263D01*
X250275023Y-78168288D01*
X250250058Y-78143163D01*
X250223895Y-78116657D01*
X250196304Y-78088540D01*
X250167056Y-78058581D01*
X250135920Y-78026550D01*
X250102667Y-77992216D01*
X250067066Y-77955349D01*
X250028889Y-77915718D01*
X249987905Y-77873093D01*
X249943884Y-77827244D01*
X249896598Y-77777940D01*
X249865424Y-77745436D01*
X249829822Y-77708349D01*
X249794636Y-77671730D01*
X249760087Y-77635806D01*
X249726395Y-77600808D01*
X249693783Y-77566964D01*
X249662471Y-77534502D01*
X249632680Y-77503652D01*
X249604631Y-77474643D01*
X249578546Y-77447703D01*
X249554645Y-77423060D01*
X249533150Y-77400945D01*
X249514282Y-77381586D01*
X249498263Y-77365211D01*
X249485312Y-77352049D01*
X249475651Y-77342330D01*
X249457626Y-77324473D01*
X249402507Y-77271523D01*
X249348212Y-77222007D01*
X249293707Y-77175054D01*
X249237962Y-77129791D01*
X249179944Y-77085347D01*
X249118620Y-77040851D01*
X249103476Y-77030218D01*
X249027127Y-76979120D01*
X248949017Y-76930874D01*
X248869491Y-76885616D01*
X248788895Y-76843484D01*
X248707572Y-76804612D01*
X248625869Y-76769138D01*
X248544130Y-76737198D01*
X248462700Y-76708928D01*
X248381925Y-76684465D01*
X248302149Y-76663945D01*
X248223717Y-76647503D01*
X248146975Y-76635278D01*
X248072268Y-76627404D01*
X248068572Y-76627129D01*
X248030515Y-76625153D01*
X247990146Y-76624464D01*
X247948921Y-76625024D01*
X247908293Y-76626792D01*
X247869719Y-76629730D01*
X247834650Y-76633798D01*
X247802748Y-76639060D01*
X247753409Y-76650260D01*
X247705560Y-76664826D01*
X247659827Y-76682505D01*
X247616836Y-76703044D01*
X247577215Y-76726193D01*
X247541591Y-76751698D01*
X247527215Y-76763629D01*
X247492221Y-76797188D01*
X247460046Y-76834843D01*
X247430769Y-76876446D01*
X247404470Y-76921852D01*
X247381229Y-76970916D01*
X247361125Y-77023491D01*
X247344237Y-77079432D01*
X247330646Y-77138592D01*
X247328629Y-77149181D01*
X247322731Y-77184150D01*
X247317615Y-77220632D01*
X247313416Y-77257352D01*
X247310270Y-77293032D01*
X247308311Y-77326397D01*
X247307673Y-77356172D01*
X247307745Y-77385510D01*
X247326098Y-77349950D01*
X247330739Y-77341093D01*
X247356025Y-77297329D01*
X247383447Y-77257319D01*
X247413720Y-77220089D01*
X247447563Y-77184664D01*
X247482739Y-77153124D01*
X247523508Y-77122552D01*
X247566731Y-77096135D01*
X247612630Y-77073764D01*
X247661427Y-77055331D01*
X247713347Y-77040731D01*
X247768610Y-77029854D01*
X247780254Y-77028322D01*
X247799283Y-77026616D01*
X247821246Y-77025314D01*
X247844925Y-77024447D01*
X247869102Y-77024043D01*
X247892559Y-77024132D01*
X247914078Y-77024743D01*
X247932440Y-77025906D01*
X247988572Y-77032771D01*
X248049980Y-77044340D01*
X248112505Y-77060155D01*
X248175548Y-77080061D01*
X248238510Y-77103908D01*
X248252482Y-77109841D01*
X248276214Y-77120553D01*
X248302393Y-77132981D01*
X248329897Y-77146559D01*
X248357600Y-77160718D01*
X248384379Y-77174890D01*
X248409110Y-77188507D01*
X248430669Y-77201002D01*
X248443307Y-77208644D01*
X248523979Y-77260761D01*
X248602891Y-77317554D01*
X248679914Y-77378899D01*
X248754920Y-77444674D01*
X248827779Y-77514755D01*
X248898363Y-77589020D01*
X248966543Y-77667346D01*
X249032190Y-77749609D01*
X249095176Y-77835686D01*
X249100128Y-77842784D01*
X249123575Y-77877221D01*
X249146742Y-77912703D01*
X249170199Y-77950136D01*
X249194518Y-77990426D01*
X249220268Y-78034480D01*
X249221837Y-78037200D01*
X249254553Y-78092961D01*
X249286114Y-78144822D01*
X249317073Y-78193617D01*
X249347984Y-78240182D01*
X249379401Y-78285350D01*
X249411877Y-78329958D01*
X249445966Y-78374840D01*
X249449753Y-78379720D01*
X249470511Y-78406088D01*
X249491144Y-78431597D01*
X249512009Y-78456631D01*
X249533462Y-78481576D01*
X249555859Y-78506817D01*
X249579556Y-78532739D01*
X249604909Y-78559727D01*
X249632275Y-78588168D01*
X249662011Y-78618445D01*
X249694471Y-78650945D01*
X249730013Y-78686052D01*
X249768993Y-78724152D01*
X249780529Y-78735463D01*
X249802209Y-78757353D01*
X249820493Y-78776890D01*
X249835782Y-78794612D01*
X249848477Y-78811057D01*
X249858981Y-78826765D01*
X249867694Y-78842273D01*
X249869451Y-78846074D01*
X249875019Y-78858122D01*
X249881358Y-78874849D01*
X249886493Y-78893179D01*
X249890339Y-78921808D01*
X249889667Y-78951276D01*
X249884565Y-78980878D01*
X249875118Y-79009906D01*
X249861415Y-79037653D01*
X249855316Y-79047196D01*
X249837574Y-79068928D01*
X249816140Y-79088502D01*
X249791884Y-79105280D01*
X249765674Y-79118625D01*
X249738380Y-79127899D01*
X249733715Y-79129190D01*
X249724047Y-79132050D01*
X249710783Y-79136089D01*
X249694608Y-79141094D01*
X249676213Y-79146852D01*
X249656284Y-79153149D01*
X249635510Y-79159773D01*
X249607039Y-79168843D01*
X249522930Y-79195006D01*
X249442907Y-79218889D01*
X249366661Y-79240560D01*
X249293882Y-79260084D01*
X249224263Y-79277527D01*
X249157493Y-79292955D01*
X249093265Y-79306434D01*
X249031269Y-79318030D01*
X248971197Y-79327808D01*
X248912740Y-79335835D01*
X248855589Y-79342176D01*
X248799436Y-79346898D01*
X248743970Y-79350066D01*
X248664151Y-79351794D01*
X248577935Y-79349490D01*
X248494137Y-79342742D01*
X248412728Y-79331548D01*
X248333679Y-79315903D01*
X248256960Y-79295806D01*
X248199975Y-79277592D01*
X248123423Y-79248834D01*
X248046939Y-79215236D01*
X247970751Y-79176929D01*
X247895087Y-79134044D01*
X247820176Y-79086712D01*
X247746246Y-79035065D01*
X247673525Y-78979234D01*
X247602240Y-78919349D01*
X247590084Y-78908454D01*
X247571757Y-78891439D01*
X247551471Y-78872075D01*
X247530042Y-78851174D01*
X247508285Y-78829548D01*
X247487015Y-78808009D01*
X247467047Y-78787368D01*
X247449195Y-78768438D01*
X247434275Y-78752030D01*
X247412949Y-78727612D01*
X247347485Y-78647871D01*
X247286621Y-78566117D01*
X247230382Y-78482409D01*
X247178797Y-78396807D01*
X247131892Y-78309371D01*
X247089693Y-78220159D01*
X247061853Y-78152590D01*
X247482202Y-78152590D01*
X247493136Y-78172910D01*
X247523305Y-78226235D01*
X247567880Y-78296871D01*
X247616665Y-78365834D01*
X247669318Y-78432790D01*
X247725501Y-78497403D01*
X247784871Y-78559341D01*
X247847089Y-78618268D01*
X247911815Y-78673850D01*
X247978707Y-78725754D01*
X248047426Y-78773644D01*
X248117631Y-78817188D01*
X248188980Y-78856049D01*
X248242589Y-78881735D01*
X248299172Y-78905321D01*
X248355214Y-78924811D01*
X248411595Y-78940445D01*
X248469195Y-78952467D01*
X248528893Y-78961117D01*
X248591570Y-78966637D01*
X248640925Y-78968641D01*
X248707737Y-78968194D01*
X248777986Y-78964317D01*
X248851730Y-78957004D01*
X248929024Y-78946248D01*
X249009926Y-78932044D01*
X249094490Y-78914386D01*
X249108875Y-78911108D01*
X249131869Y-78905688D01*
X249155871Y-78899841D01*
X249180384Y-78893703D01*
X249204913Y-78887410D01*
X249228964Y-78881096D01*
X249252040Y-78874897D01*
X249273646Y-78868947D01*
X249293287Y-78863383D01*
X249310468Y-78858339D01*
X249324693Y-78853951D01*
X249335467Y-78850354D01*
X249342295Y-78847683D01*
X249344680Y-78846074D01*
X249344138Y-78844581D01*
X249340834Y-78840055D01*
X249335525Y-78834443D01*
X249330950Y-78829822D01*
X249323675Y-78822177D01*
X249314432Y-78812290D01*
X249303941Y-78800928D01*
X249292917Y-78788860D01*
X249271871Y-78765464D01*
X249211402Y-78695539D01*
X249153706Y-78624538D01*
X249098302Y-78551796D01*
X249044708Y-78476644D01*
X248992442Y-78398416D01*
X248941025Y-78316443D01*
X248889974Y-78230060D01*
X248873211Y-78201210D01*
X248843848Y-78152338D01*
X248815808Y-78107874D01*
X248789223Y-78068027D01*
X248760513Y-78027433D01*
X248715305Y-77967473D01*
X248668299Y-77909619D01*
X248619719Y-77854035D01*
X248569788Y-77800888D01*
X248518730Y-77750344D01*
X248466768Y-77702568D01*
X248414125Y-77657726D01*
X248361025Y-77615985D01*
X248307692Y-77577510D01*
X248254347Y-77542467D01*
X248201216Y-77511022D01*
X248148521Y-77483341D01*
X248096486Y-77459590D01*
X248045333Y-77439935D01*
X247995287Y-77424541D01*
X247946571Y-77413574D01*
X247899408Y-77407201D01*
X247897272Y-77407021D01*
X247859794Y-77405824D01*
X247825249Y-77408648D01*
X247793530Y-77415567D01*
X247764533Y-77426654D01*
X247738151Y-77441981D01*
X247714278Y-77461621D01*
X247692809Y-77485648D01*
X247673637Y-77514134D01*
X247656657Y-77547152D01*
X247641763Y-77584776D01*
X247638019Y-77596085D01*
X247633377Y-77613388D01*
X247631066Y-77628621D01*
X247630909Y-77643242D01*
X247632726Y-77658710D01*
X247635276Y-77671434D01*
X247643589Y-77699568D01*
X247655959Y-77729691D01*
X247672440Y-77761900D01*
X247693088Y-77796290D01*
X247717957Y-77832955D01*
X247747103Y-77871992D01*
X247780582Y-77913494D01*
X247782987Y-77916372D01*
X247836199Y-77977096D01*
X247893647Y-78037416D01*
X247954804Y-78096930D01*
X248019144Y-78155233D01*
X248086142Y-78211924D01*
X248155270Y-78266600D01*
X248226002Y-78318856D01*
X248297813Y-78368291D01*
X248370175Y-78414501D01*
X248442563Y-78457084D01*
X248514451Y-78495635D01*
X248585312Y-78529753D01*
X248598739Y-78535757D01*
X248662742Y-78562250D01*
X248724829Y-78584323D01*
X248785313Y-78602068D01*
X248844506Y-78615580D01*
X248902720Y-78624952D01*
X248906079Y-78625383D01*
X248950250Y-78632249D01*
X248989812Y-78640779D01*
X249024971Y-78651053D01*
X249055930Y-78663150D01*
X249082894Y-78677149D01*
X249106068Y-78693129D01*
X249125657Y-78711169D01*
X249126380Y-78711947D01*
X249140620Y-78729841D01*
X249150914Y-78748932D01*
X249158199Y-78770939D01*
X249160039Y-78779313D01*
X249161585Y-78797347D01*
X249158996Y-78812782D01*
X249152131Y-78825837D01*
X249140844Y-78836731D01*
X249124992Y-78845684D01*
X249104432Y-78852914D01*
X249101541Y-78853709D01*
X249095521Y-78855202D01*
X249089460Y-78856353D01*
X249082640Y-78857204D01*
X249074340Y-78857800D01*
X249063840Y-78858184D01*
X249050420Y-78858399D01*
X249033360Y-78858488D01*
X249011940Y-78858496D01*
X248995802Y-78858458D01*
X248975519Y-78858278D01*
X248957902Y-78857887D01*
X248941667Y-78857213D01*
X248925530Y-78856183D01*
X248908206Y-78854726D01*
X248888411Y-78852770D01*
X248864862Y-78850241D01*
X248844100Y-78847919D01*
X248822725Y-78845447D01*
X248802121Y-78842989D01*
X248783360Y-78840677D01*
X248767510Y-78838639D01*
X248755642Y-78837004D01*
X248678928Y-78823929D01*
X248594747Y-78805444D01*
X248508559Y-78782333D01*
X248420336Y-78754588D01*
X248384066Y-78742020D01*
X248292859Y-78707301D01*
X248202882Y-78668623D01*
X248114491Y-78626210D01*
X248028040Y-78580285D01*
X247943884Y-78531072D01*
X247862378Y-78478795D01*
X247783876Y-78423676D01*
X247708734Y-78365940D01*
X247637306Y-78305809D01*
X247569947Y-78243508D01*
X247507012Y-78179260D01*
X247482202Y-78152590D01*
X247061853Y-78152590D01*
X247052228Y-78129231D01*
X247019524Y-78036648D01*
X246991607Y-77942467D01*
X246968504Y-77846749D01*
X246950242Y-77749553D01*
X246936849Y-77650940D01*
X246936567Y-77648360D01*
X246931615Y-77595150D01*
X246927937Y-77539104D01*
X246925541Y-77481328D01*
X246924436Y-77422926D01*
X246924633Y-77365004D01*
X246926140Y-77308667D01*
X246928966Y-77255021D01*
X246933121Y-77205170D01*
X246935421Y-77183922D01*
X246945945Y-77108860D01*
X246959946Y-77035905D01*
X246977319Y-76965405D01*
X246997962Y-76897711D01*
X247021770Y-76833170D01*
X247048640Y-76772134D01*
X247078469Y-76714950D01*
X247086097Y-76701925D01*
X247099924Y-76679716D01*
X247115505Y-76656011D01*
X247131881Y-76632222D01*
X247148095Y-76609761D01*
X247163190Y-76590039D01*
X247163942Y-76589096D01*
X247179252Y-76570858D01*
X247197396Y-76550714D01*
X247217390Y-76529657D01*
X247238249Y-76508678D01*
X247258989Y-76488768D01*
X247278624Y-76470920D01*
X247296170Y-76456124D01*
X247302747Y-76450914D01*
X247356746Y-76411781D01*
X247413879Y-76376622D01*
X247474091Y-76345457D01*
X247537327Y-76318310D01*
X247603531Y-76295200D01*
X247672650Y-76276151D01*
X247744628Y-76261183D01*
X247819410Y-76250318D01*
X247867151Y-76245764D01*
X247925633Y-76242508D01*
X247985573Y-76241483D01*
X248045754Y-76242664D01*
X248104959Y-76246022D01*
X248161972Y-76251531D01*
X248215574Y-76259164D01*
X248231636Y-76261983D01*
X248305841Y-76277770D01*
X248381537Y-76298330D01*
X248458647Y-76323619D01*
X248537097Y-76353594D01*
X248616808Y-76388211D01*
X248697706Y-76427425D01*
X248779714Y-76471193D01*
X248862756Y-76519471D01*
X248946756Y-76572215D01*
X249031637Y-76629381D01*
X249117324Y-76690925D01*
X249203739Y-76756803D01*
X249290808Y-76826972D01*
X249378454Y-76901388D01*
X249466600Y-76980006D01*
X249479621Y-76992028D01*
X249500337Y-77011539D01*
X249523526Y-77033746D01*
X249548601Y-77058063D01*
X249574976Y-77083907D01*
X249602063Y-77110694D01*
X249629274Y-77137839D01*
X249656023Y-77164760D01*
X249681723Y-77190871D01*
X249705785Y-77215589D01*
X249727623Y-77238330D01*
X249746649Y-77258510D01*
X249758980Y-77271683D01*
X249774551Y-77288204D01*
X249792736Y-77307409D01*
X249813317Y-77329070D01*
X249836074Y-77352962D01*
X249860790Y-77378857D01*
X249887245Y-77406527D01*
X249915220Y-77435748D01*
X249944496Y-77466290D01*
X249974855Y-77497928D01*
X250006078Y-77530434D01*
X250037946Y-77563582D01*
X250070241Y-77597144D01*
X250102743Y-77630894D01*
X250135233Y-77664604D01*
X250167494Y-77698049D01*
X250199305Y-77731000D01*
X250230449Y-77763231D01*
X250260706Y-77794515D01*
X250289858Y-77824626D01*
X250317685Y-77853335D01*
X250343970Y-77880416D01*
X250368493Y-77905643D01*
X250391035Y-77928788D01*
X250411377Y-77949625D01*
X250429302Y-77967926D01*
X250444589Y-77983464D01*
X250457020Y-77996014D01*
X250466377Y-78005346D01*
X250472440Y-78011236D01*
X250547072Y-78080157D01*
X250633412Y-78156466D01*
X250719945Y-78229331D01*
X250806506Y-78298644D01*
X250892929Y-78364295D01*
X250979046Y-78426175D01*
X251064692Y-78484177D01*
X251149700Y-78538191D01*
X251233904Y-78588109D01*
X251317137Y-78633821D01*
X251399232Y-78675219D01*
X251480024Y-78712194D01*
X251559345Y-78744637D01*
X251637030Y-78772440D01*
X251674711Y-78784445D01*
X251728073Y-78799601D01*
X251779477Y-78811843D01*
X251830038Y-78821429D01*
X251880870Y-78828616D01*
X251895598Y-78830035D01*
X251916157Y-78831362D01*
X251939753Y-78832365D01*
X251965487Y-78833045D01*
X251992457Y-78833400D01*
X252019762Y-78833430D01*
X252046502Y-78833136D01*
X252071776Y-78832516D01*
X252094682Y-78831571D01*
X252114321Y-78830300D01*
X252129790Y-78828702D01*
X252147715Y-78826135D01*
X252203642Y-78815908D01*
X252255678Y-78802793D01*
X252304118Y-78786683D01*
X252349253Y-78767473D01*
X252391376Y-78745057D01*
X252430780Y-78719327D01*
X252434070Y-78716909D01*
X252449051Y-78704901D01*
X252465708Y-78690260D01*
X252482887Y-78674097D01*
X252499436Y-78657520D01*
X252514203Y-78641641D01*
X252526034Y-78627570D01*
X252528106Y-78624897D01*
X252556845Y-78584145D01*
X252582490Y-78540427D01*
X252605094Y-78493574D01*
X252624711Y-78443415D01*
X252641394Y-78389780D01*
X252655195Y-78332502D01*
X252666168Y-78271409D01*
X252674367Y-78206332D01*
X252679843Y-78137103D01*
X252679981Y-78134731D01*
X252681115Y-78114772D01*
X252681834Y-78099590D01*
X252682018Y-78088917D01*
X252681544Y-78082487D01*
X252680291Y-78080032D01*
X252678137Y-78081284D01*
X252674960Y-78085976D01*
X252670639Y-78093841D01*
X252665051Y-78104611D01*
X252640124Y-78149214D01*
X252608987Y-78196235D01*
X252574998Y-78239061D01*
X252538131Y-78277715D01*
X252498359Y-78312220D01*
X252455656Y-78342600D01*
X252409994Y-78368876D01*
X252361347Y-78391072D01*
X252309687Y-78409210D01*
X252295548Y-78413291D01*
X252243908Y-78424956D01*
X252190003Y-78432294D01*
X252134122Y-78435321D01*
X252076552Y-78434049D01*
X252017582Y-78428494D01*
X251957500Y-78418668D01*
X251896593Y-78404586D01*
X251835150Y-78386262D01*
X251789713Y-78370168D01*
X251719401Y-78341321D01*
X251648895Y-78307697D01*
X251578425Y-78269461D01*
X251508220Y-78226779D01*
X251438508Y-78179814D01*
X251369520Y-78128731D01*
X251301483Y-78073695D01*
X251234628Y-78014870D01*
X251169182Y-77952421D01*
X251105376Y-77886513D01*
X251043437Y-77817310D01*
X251008783Y-77776149D01*
X250965496Y-77721936D01*
X250923839Y-77666377D01*
X250883302Y-77608742D01*
X250843377Y-77548301D01*
X250803552Y-77484324D01*
X250763319Y-77416081D01*
X250743142Y-77381407D01*
X250702323Y-77313913D01*
X250661508Y-77250122D01*
X250620097Y-77189165D01*
X250577489Y-77130171D01*
X250533083Y-77072269D01*
X250486280Y-77014589D01*
X250464515Y-76988763D01*
X250442125Y-76962886D01*
X250419524Y-76937528D01*
X250396191Y-76912141D01*
X250371608Y-76886177D01*
X250345255Y-76859088D01*
X250316613Y-76830326D01*
X250285162Y-76799342D01*
X250250383Y-76765589D01*
X250233823Y-76749493D01*
X250217429Y-76733329D01*
X250201945Y-76717843D01*
X250187927Y-76703599D01*
X250175929Y-76691162D01*
X250166506Y-76681093D01*
X250160213Y-76673959D01*
X250140559Y-76648207D01*
X250122420Y-76618792D01*
X250118853Y-76610930D01*
X250642958Y-76610930D01*
X250644079Y-76612706D01*
X250648151Y-76617642D01*
X250654679Y-76625122D01*
X250663136Y-76634541D01*
X250672993Y-76645294D01*
X250701082Y-76676027D01*
X250764169Y-76748065D01*
X250824239Y-76821129D01*
X250881786Y-76895895D01*
X250937303Y-76973039D01*
X250991284Y-77053235D01*
X251044221Y-77137160D01*
X251096607Y-77225490D01*
X251096979Y-77226135D01*
X251107675Y-77244597D01*
X251118552Y-77263194D01*
X251129071Y-77281017D01*
X251138693Y-77297155D01*
X251146879Y-77310699D01*
X251153088Y-77320740D01*
X251188162Y-77374382D01*
X251233001Y-77438016D01*
X251279970Y-77499638D01*
X251328838Y-77559056D01*
X251379370Y-77616078D01*
X251431334Y-77670511D01*
X251484496Y-77722164D01*
X251538624Y-77770845D01*
X251593483Y-77816362D01*
X251648841Y-77858522D01*
X251704466Y-77897133D01*
X251760122Y-77932005D01*
X251815578Y-77962943D01*
X251870600Y-77989757D01*
X251924955Y-78012255D01*
X251978409Y-78030243D01*
X252030730Y-78043532D01*
X252046005Y-78046305D01*
X252069115Y-78049238D01*
X252093532Y-78051121D01*
X252118010Y-78051922D01*
X252141299Y-78051606D01*
X252162152Y-78050141D01*
X252179320Y-78047494D01*
X252201150Y-78041562D01*
X252229122Y-78029928D01*
X252254571Y-78014222D01*
X252277598Y-77994341D01*
X252298303Y-77970178D01*
X252316787Y-77941628D01*
X252333149Y-77908587D01*
X252347491Y-77870947D01*
X252350860Y-77860750D01*
X252354025Y-77850379D01*
X252355925Y-77842288D01*
X252356798Y-77835042D01*
X252356882Y-77827208D01*
X252356417Y-77817355D01*
X252354280Y-77798397D01*
X252348372Y-77774130D01*
X252341434Y-77755369D01*
X252327765Y-77725696D01*
X252310046Y-77693855D01*
X252288218Y-77659756D01*
X252262221Y-77623307D01*
X252231995Y-77584415D01*
X252197480Y-77542990D01*
X252196200Y-77541508D01*
X252185065Y-77529106D01*
X252170873Y-77513954D01*
X252154230Y-77496650D01*
X252135739Y-77477793D01*
X252116005Y-77457982D01*
X252095632Y-77437816D01*
X252075224Y-77417892D01*
X252055386Y-77398811D01*
X252036721Y-77381170D01*
X252019835Y-77365568D01*
X252005330Y-77352604D01*
X251993276Y-77342145D01*
X251929130Y-77288544D01*
X251863787Y-77237287D01*
X251797556Y-77188546D01*
X251730746Y-77142493D01*
X251663667Y-77099302D01*
X251596628Y-77059144D01*
X251529937Y-77022193D01*
X251463904Y-76988621D01*
X251398839Y-76958601D01*
X251335049Y-76932306D01*
X251272845Y-76909907D01*
X251212536Y-76891579D01*
X251154430Y-76877492D01*
X251145648Y-76875767D01*
X251130087Y-76873011D01*
X251112187Y-76870097D01*
X251093528Y-76867279D01*
X251075690Y-76864812D01*
X251062093Y-76862915D01*
X251044749Y-76860190D01*
X251028357Y-76857305D01*
X251014281Y-76854504D01*
X251003888Y-76852030D01*
X250998073Y-76850380D01*
X250965905Y-76839307D01*
X250936938Y-76825922D01*
X250911522Y-76810465D01*
X250890009Y-76793175D01*
X250872750Y-76774291D01*
X250860095Y-76754052D01*
X250857633Y-76748782D01*
X250850816Y-76730003D01*
X250847070Y-76711801D01*
X250846446Y-76695004D01*
X250848995Y-76680437D01*
X250854771Y-76668925D01*
X250857447Y-76665811D01*
X250868997Y-76656998D01*
X250885131Y-76649689D01*
X250905644Y-76643890D01*
X250930330Y-76639604D01*
X250958986Y-76636835D01*
X250991405Y-76635589D01*
X251027384Y-76635870D01*
X251066717Y-76637682D01*
X251109199Y-76641030D01*
X251154625Y-76645917D01*
X251202791Y-76652349D01*
X251253490Y-76660330D01*
X251258952Y-76661257D01*
X251366238Y-76681848D01*
X251470967Y-76706513D01*
X251573046Y-76735209D01*
X251672381Y-76767892D01*
X251768880Y-76804520D01*
X251862449Y-76845050D01*
X251952995Y-76889440D01*
X252040425Y-76937646D01*
X252124645Y-76989626D01*
X252205564Y-77045336D01*
X252283086Y-77104735D01*
X252357120Y-77167779D01*
X252369781Y-77179393D01*
X252385694Y-77194442D01*
X252403399Y-77211537D01*
X252422107Y-77229894D01*
X252441029Y-77248728D01*
X252459377Y-77267252D01*
X252476362Y-77284683D01*
X252491195Y-77300233D01*
X252503088Y-77313120D01*
X252517943Y-77329630D01*
X252500675Y-77296610D01*
X252465012Y-77232559D01*
X252420826Y-77162279D01*
X252372338Y-77093583D01*
X252319897Y-77026813D01*
X252263847Y-76962313D01*
X252204537Y-76900424D01*
X252142312Y-76841490D01*
X252077518Y-76785853D01*
X252010503Y-76733856D01*
X251941612Y-76685842D01*
X251871193Y-76642153D01*
X251799590Y-76603132D01*
X251763150Y-76585221D01*
X251727114Y-76568879D01*
X251692306Y-76554630D01*
X251657350Y-76541882D01*
X251654274Y-76540831D01*
X251598677Y-76524000D01*
X251540952Y-76510562D01*
X251480952Y-76500522D01*
X251418530Y-76493884D01*
X251353540Y-76490651D01*
X251285835Y-76490827D01*
X251215267Y-76494417D01*
X251141692Y-76501422D01*
X251064961Y-76511849D01*
X250984928Y-76525700D01*
X250901446Y-76542978D01*
X250814370Y-76563689D01*
X250810312Y-76564716D01*
X250792038Y-76569406D01*
X250772533Y-76574507D01*
X250752409Y-76579849D01*
X250732283Y-76585263D01*
X250712769Y-76590579D01*
X250694481Y-76595627D01*
X250678035Y-76600239D01*
X250664045Y-76604244D01*
X250653125Y-76607474D01*
X250645892Y-76609759D01*
X250642958Y-76610930D01*
X250118853Y-76610930D01*
X250109240Y-76589742D01*
X250100972Y-76560928D01*
X250097570Y-76532222D01*
X250098987Y-76503495D01*
X250100905Y-76491422D01*
X250109125Y-76460044D01*
X250121561Y-76431193D01*
X250138017Y-76405146D01*
X250158297Y-76382181D01*
X250182207Y-76362576D01*
X250209550Y-76346607D01*
X250214153Y-76344445D01*
X250226717Y-76339076D01*
X250239009Y-76334456D01*
X250248920Y-76331401D01*
X250254970Y-76329745D01*
X250265503Y-76326644D01*
X250279262Y-76322462D01*
X250295403Y-76317455D01*
X250313087Y-76311884D01*
X250331470Y-76306007D01*
X250399092Y-76284478D01*
X250475499Y-76260844D01*
X250548000Y-76239236D01*
X250616967Y-76219572D01*
X250682769Y-76201766D01*
X250745779Y-76185735D01*
X250806367Y-76171396D01*
X250864903Y-76158665D01*
X250921758Y-76147459D01*
X250977303Y-76137692D01*
X251031910Y-76129283D01*
X251085947Y-76122147D01*
X251139787Y-76116201D01*
X251193800Y-76111360D01*
X251194733Y-76111287D01*
X251211488Y-76110274D01*
X251232171Y-76109464D01*
X251255882Y-76108858D01*
X251281721Y-76108455D01*
X251308787Y-76108256D01*
X251336180Y-76108261D01*
X251362999Y-76108469D01*
X251388344Y-76108881D01*
X251411315Y-76109497D01*
X251431010Y-76110317D01*
X251446530Y-76111342D01*
X251494620Y-76116197D01*
X251550069Y-76123572D01*
X251604076Y-76132633D01*
X251655468Y-76143180D01*
X251703070Y-76155012D01*
X251734012Y-76163887D01*
X251811125Y-76189462D01*
X251888159Y-76219880D01*
X251964845Y-76254979D01*
X252040914Y-76294596D01*
X252116097Y-76338568D01*
X252190125Y-76386734D01*
X252262728Y-76438929D01*
X252333638Y-76494993D01*
X252402585Y-76554761D01*
X252469301Y-76618072D01*
X252500652Y-76649858D01*
X252568835Y-76723946D01*
X252632967Y-76800742D01*
X252692966Y-76880086D01*
X252748751Y-76961816D01*
X252800243Y-77045767D01*
X252847359Y-77131780D01*
X252890020Y-77219691D01*
X252928143Y-77309338D01*
X252935597Y-77329630D01*
X252961649Y-77400559D01*
G37*
X253725192Y-77794641D02*
X253724745Y-77826679D01*
X253724239Y-77854897D01*
X253723635Y-77880175D01*
X253722894Y-77903388D01*
X253721976Y-77925414D01*
X253720844Y-77947130D01*
X253719457Y-77969415D01*
X253717777Y-77993145D01*
X253715764Y-78019197D01*
X253713379Y-78048450D01*
X253710343Y-78083086D01*
X253695259Y-78218997D01*
X253675241Y-78353853D01*
X253650336Y-78487542D01*
X253620596Y-78619954D01*
X253586069Y-78750976D01*
X253546804Y-78880498D01*
X253502851Y-79008409D01*
X253454259Y-79134598D01*
X253401078Y-79258953D01*
X253343357Y-79381363D01*
X253281144Y-79501718D01*
X253214490Y-79619905D01*
X253143444Y-79735814D01*
X253068056Y-79849335D01*
X252988373Y-79960354D01*
X252904447Y-80068762D01*
X252816325Y-80174448D01*
X252724058Y-80277300D01*
X252708967Y-80293306D01*
X252689052Y-80313981D01*
X252666865Y-80336638D01*
X252643123Y-80360566D01*
X252618546Y-80385054D01*
X252593850Y-80409391D01*
X252569754Y-80432866D01*
X252546977Y-80454767D01*
X252526236Y-80474383D01*
X252508250Y-80491003D01*
X252499890Y-80498583D01*
X252395592Y-80589500D01*
X252288529Y-80676217D01*
X252178807Y-80758686D01*
X252066535Y-80836862D01*
X251951818Y-80910698D01*
X251834766Y-80980148D01*
X251715485Y-81045164D01*
X251594083Y-81105700D01*
X251470667Y-81161710D01*
X251345345Y-81213147D01*
X251218223Y-81259964D01*
X251089410Y-81302115D01*
X250959012Y-81339553D01*
X250827138Y-81372231D01*
X250693894Y-81400104D01*
X250559389Y-81423124D01*
X250423728Y-81441245D01*
X250287020Y-81454421D01*
X250281464Y-81454845D01*
X250256408Y-81456604D01*
X250227900Y-81458399D01*
X250197244Y-81460157D01*
X250165742Y-81461807D01*
X250134697Y-81463275D01*
X250105410Y-81464490D01*
X250101419Y-81464617D01*
X250088197Y-81464854D01*
X250070876Y-81464983D01*
X250050157Y-81465012D01*
X250026739Y-81464949D01*
X250001322Y-81464801D01*
X249974605Y-81464577D01*
X249947289Y-81464285D01*
X249920074Y-81463933D01*
X249893658Y-81463528D01*
X249868742Y-81463079D01*
X249846025Y-81462593D01*
X249826208Y-81462078D01*
X249809990Y-81461543D01*
X249798070Y-81460996D01*
X249708277Y-81454936D01*
X249602829Y-81445406D01*
X249500126Y-81433341D01*
X249399182Y-81418595D01*
X249299009Y-81401022D01*
X249198621Y-81380474D01*
X249097030Y-81356804D01*
X249000516Y-81331596D01*
X248870331Y-81293069D01*
X248741624Y-81249748D01*
X248614551Y-81201713D01*
X248489270Y-81149047D01*
X248365940Y-81091829D01*
X248244718Y-81030142D01*
X248125762Y-80964067D01*
X248009229Y-80893685D01*
X247895278Y-80819077D01*
X247784066Y-80740325D01*
X247675751Y-80657509D01*
X247570490Y-80570711D01*
X247551942Y-80554719D01*
X247462499Y-80474433D01*
X247374720Y-80390412D01*
X247289287Y-80303368D01*
X247206884Y-80214015D01*
X247128192Y-80123066D01*
X247053895Y-80031233D01*
X247052294Y-80029181D01*
X246969237Y-79918599D01*
X246890568Y-79805536D01*
X246816329Y-79690095D01*
X246746558Y-79572381D01*
X246681298Y-79452498D01*
X246620588Y-79330551D01*
X246564470Y-79206644D01*
X246512983Y-79080882D01*
X246466169Y-78953368D01*
X246424067Y-78824208D01*
X246386719Y-78693505D01*
X246354164Y-78561365D01*
X246326445Y-78427890D01*
X246303600Y-78293187D01*
X246285671Y-78157358D01*
X246272698Y-78020510D01*
X246268752Y-77963092D01*
X246262839Y-77825186D01*
X246262078Y-77706019D01*
X246602099Y-77706019D01*
X246603315Y-77836101D01*
X246609300Y-77964632D01*
X246620093Y-78091892D01*
X246635734Y-78218163D01*
X246656263Y-78343724D01*
X246681719Y-78468857D01*
X246712142Y-78593841D01*
X246747571Y-78718957D01*
X246747611Y-78719090D01*
X246781796Y-78825458D01*
X246819396Y-78929957D01*
X246860759Y-79033460D01*
X246906236Y-79136843D01*
X246956176Y-79240980D01*
X246990078Y-79307219D01*
X247051816Y-79419742D01*
X247117157Y-79528914D01*
X247186347Y-79635106D01*
X247259630Y-79738685D01*
X247337250Y-79840020D01*
X247419451Y-79939480D01*
X247445166Y-79969108D01*
X247530024Y-80062081D01*
X247618960Y-80152529D01*
X247711511Y-80240028D01*
X247807215Y-80324150D01*
X247905611Y-80404470D01*
X248006236Y-80480560D01*
X248072071Y-80527211D01*
X248180445Y-80599012D01*
X248291403Y-80666524D01*
X248404780Y-80729680D01*
X248520415Y-80788415D01*
X248638145Y-80842661D01*
X248757808Y-80892353D01*
X248879239Y-80937424D01*
X249002277Y-80977808D01*
X249126759Y-81013440D01*
X249252522Y-81044253D01*
X249379404Y-81070180D01*
X249507240Y-81091156D01*
X249544440Y-81096348D01*
X249583003Y-81101323D01*
X249621165Y-81105782D01*
X249660021Y-81109840D01*
X249700668Y-81113611D01*
X249744203Y-81117208D01*
X249791720Y-81120745D01*
X249795817Y-81120990D01*
X249807265Y-81121466D01*
X249822782Y-81121934D01*
X249841758Y-81122386D01*
X249863583Y-81122818D01*
X249887647Y-81123224D01*
X249913341Y-81123595D01*
X249940054Y-81123928D01*
X249967178Y-81124215D01*
X249994101Y-81124450D01*
X250020214Y-81124628D01*
X250044907Y-81124741D01*
X250067570Y-81124784D01*
X250087594Y-81124751D01*
X250104369Y-81124635D01*
X250117284Y-81124430D01*
X250125730Y-81124131D01*
X250132736Y-81123731D01*
X250143965Y-81123099D01*
X250158080Y-81122311D01*
X250173964Y-81121430D01*
X250190500Y-81120517D01*
X250198413Y-81120071D01*
X250324577Y-81110309D01*
X250450923Y-81095581D01*
X250577088Y-81075964D01*
X250702711Y-81051534D01*
X250827428Y-81022370D01*
X250950879Y-80988547D01*
X251072701Y-80950144D01*
X251192530Y-80907237D01*
X251275386Y-80874525D01*
X251395374Y-80822691D01*
X251512743Y-80766556D01*
X251627564Y-80706078D01*
X251739907Y-80641213D01*
X251849845Y-80571918D01*
X251957447Y-80498149D01*
X252062785Y-80419864D01*
X252165929Y-80337018D01*
X252266950Y-80249568D01*
X252267416Y-80249149D01*
X252282416Y-80235403D01*
X252300258Y-80218625D01*
X252320307Y-80199441D01*
X252341930Y-80178480D01*
X252364492Y-80156369D01*
X252387359Y-80133737D01*
X252409895Y-80111212D01*
X252431467Y-80089420D01*
X252451439Y-80068991D01*
X252469178Y-80050551D01*
X252484050Y-80034730D01*
X252484500Y-80034243D01*
X252572159Y-79935705D01*
X252655684Y-79834273D01*
X252735018Y-79730047D01*
X252810106Y-79623130D01*
X252880895Y-79513622D01*
X252947329Y-79401625D01*
X253009353Y-79287239D01*
X253066911Y-79170567D01*
X253119950Y-79051710D01*
X253168415Y-78930768D01*
X253212249Y-78807843D01*
X253251399Y-78683036D01*
X253285809Y-78556450D01*
X253285991Y-78555726D01*
X253315107Y-78429355D01*
X253339289Y-78302010D01*
X253358539Y-78173874D01*
X253372862Y-78045131D01*
X253382262Y-77915962D01*
X253386743Y-77786550D01*
X253386310Y-77657080D01*
X253380966Y-77527732D01*
X253370715Y-77398691D01*
X253355562Y-77270139D01*
X253335510Y-77142259D01*
X253310563Y-77015234D01*
X253280726Y-76889246D01*
X253246003Y-76764480D01*
X253211984Y-76657414D01*
X253167994Y-76534474D01*
X253119332Y-76413414D01*
X253066076Y-76294377D01*
X253008304Y-76177505D01*
X252946095Y-76062941D01*
X252879526Y-75950827D01*
X252808674Y-75841306D01*
X252733619Y-75734521D01*
X252654437Y-75630614D01*
X252571208Y-75529727D01*
X252550393Y-75505692D01*
X252461795Y-75408109D01*
X252369952Y-75314354D01*
X252274978Y-75224489D01*
X252176981Y-75138579D01*
X252076074Y-75056684D01*
X251972367Y-74978869D01*
X251865972Y-74905196D01*
X251756999Y-74835728D01*
X251645559Y-74770527D01*
X251531764Y-74709657D01*
X251415723Y-74653179D01*
X251297549Y-74601158D01*
X251177353Y-74553655D01*
X251055244Y-74510733D01*
X250931334Y-74472456D01*
X250805735Y-74438886D01*
X250678557Y-74410086D01*
X250549910Y-74386119D01*
X250508096Y-74379401D01*
X250453184Y-74371378D01*
X250398287Y-74364320D01*
X250342134Y-74358078D01*
X250283456Y-74352503D01*
X250220980Y-74347445D01*
X250214260Y-74346979D01*
X250193685Y-74345851D01*
X250169054Y-74344841D01*
X250141104Y-74343956D01*
X250110573Y-74343204D01*
X250078196Y-74342592D01*
X250044713Y-74342128D01*
X250010860Y-74341818D01*
X249977373Y-74341671D01*
X249944991Y-74341693D01*
X249914451Y-74341893D01*
X249886489Y-74342277D01*
X249861843Y-74342853D01*
X249841250Y-74343628D01*
X249802277Y-74345698D01*
X249674412Y-74355429D01*
X249548598Y-74369608D01*
X249424404Y-74388304D01*
X249301394Y-74411590D01*
X249179136Y-74439537D01*
X249057197Y-74472215D01*
X249031450Y-74479734D01*
X248908393Y-74518851D01*
X248786781Y-74562774D01*
X248666816Y-74611392D01*
X248548696Y-74664600D01*
X248432622Y-74722289D01*
X248318793Y-74784352D01*
X248207409Y-74850679D01*
X248098669Y-74921164D01*
X247992774Y-74995699D01*
X247889923Y-75074175D01*
X247790315Y-75156486D01*
X247749791Y-75191945D01*
X247680003Y-75255809D01*
X247610723Y-75322644D01*
X247543044Y-75391357D01*
X247478061Y-75460853D01*
X247416866Y-75530040D01*
X247387206Y-75565077D01*
X247305748Y-75666567D01*
X247228418Y-75770908D01*
X247155275Y-75877956D01*
X247086380Y-75987567D01*
X247021794Y-76099597D01*
X246961577Y-76213900D01*
X246905789Y-76330334D01*
X246854491Y-76448753D01*
X246807743Y-76569014D01*
X246765605Y-76690972D01*
X246728139Y-76814482D01*
X246695404Y-76939402D01*
X246667460Y-77065585D01*
X246644369Y-77192889D01*
X246626190Y-77321168D01*
X246612984Y-77450280D01*
X246612596Y-77454981D01*
X246610403Y-77482472D01*
X246608572Y-77507348D01*
X246607061Y-77530569D01*
X246605825Y-77553099D01*
X246604824Y-77575899D01*
X246604012Y-77599931D01*
X246603348Y-77626157D01*
X246602787Y-77655539D01*
X246602288Y-77689040D01*
X246602099Y-77706019D01*
X246262078Y-77706019D01*
X246261960Y-77687584D01*
X246266097Y-77550399D01*
X246275230Y-77413743D01*
X246289340Y-77277728D01*
X246308408Y-77142465D01*
X246332415Y-77008068D01*
X246361341Y-76874647D01*
X246395168Y-76742315D01*
X246433877Y-76611184D01*
X246477447Y-76481366D01*
X246525861Y-76352973D01*
X246579099Y-76226117D01*
X246588189Y-76205898D01*
X246601037Y-76178169D01*
X246615497Y-76147696D01*
X246631110Y-76115404D01*
X246647419Y-76082216D01*
X246663965Y-76049056D01*
X246680291Y-76016847D01*
X246695938Y-75986514D01*
X246710448Y-75958980D01*
X246723364Y-75935170D01*
X246782552Y-75831968D01*
X246855310Y-75714525D01*
X246932126Y-75600097D01*
X247012925Y-75488767D01*
X247097632Y-75380615D01*
X247186172Y-75275723D01*
X247278472Y-75174173D01*
X247374457Y-75076045D01*
X247474051Y-74981423D01*
X247577182Y-74890387D01*
X247683773Y-74803019D01*
X247793751Y-74719401D01*
X247907040Y-74639614D01*
X247925937Y-74626899D01*
X248041285Y-74552829D01*
X248159035Y-74483206D01*
X248279063Y-74418075D01*
X248401243Y-74357483D01*
X248525450Y-74301475D01*
X248651559Y-74250098D01*
X248779446Y-74203398D01*
X248908985Y-74161420D01*
X249040051Y-74124212D01*
X249172520Y-74091818D01*
X249306266Y-74064285D01*
X249441164Y-74041660D01*
X249577090Y-74023987D01*
X249588235Y-74022757D01*
X249634272Y-74017942D01*
X249677661Y-74013888D01*
X249719503Y-74010528D01*
X249760901Y-74007798D01*
X249802959Y-74005629D01*
X249846780Y-74003955D01*
X249893466Y-74002709D01*
X249944120Y-74001826D01*
X250011081Y-74001386D01*
X250091511Y-74002248D01*
X250168429Y-74004702D01*
X250242570Y-74008765D01*
X250305036Y-74013453D01*
X250442199Y-74027411D01*
X250578298Y-74046316D01*
X250713242Y-74070139D01*
X250846941Y-74098854D01*
X250979303Y-74132433D01*
X251110238Y-74170848D01*
X251239656Y-74214071D01*
X251367466Y-74262075D01*
X251493576Y-74314832D01*
X251617898Y-74372316D01*
X251740339Y-74434497D01*
X251860810Y-74501349D01*
X251954067Y-74557185D01*
X252069004Y-74631238D01*
X252180903Y-74709259D01*
X252289673Y-74791137D01*
X252395222Y-74876760D01*
X252497459Y-74966017D01*
X252596293Y-75058796D01*
X252691630Y-75154986D01*
X252783381Y-75254474D01*
X252871452Y-75357149D01*
X252955753Y-75462899D01*
X253036191Y-75571613D01*
X253112676Y-75683179D01*
X253185114Y-75797485D01*
X253253416Y-75914419D01*
X253317488Y-76033870D01*
X253377240Y-76155727D01*
X253432580Y-76279876D01*
X253483415Y-76406208D01*
X253529655Y-76534610D01*
X253569124Y-76657855D01*
X253606132Y-76789432D01*
X253638183Y-76922039D01*
X253665290Y-77055749D01*
X253687470Y-77190638D01*
X253704737Y-77326780D01*
X253717107Y-77464250D01*
X253717840Y-77474635D01*
X253720536Y-77516797D01*
X253722645Y-77557634D01*
X253724196Y-77598211D01*
X253725217Y-77639592D01*
X253725736Y-77682843D01*
X253725781Y-77729027D01*
X253725379Y-77779210D01*
X253725290Y-77786550D01*
X253725192Y-77794641D01*
G36*
X253725192Y-77794641D02*
G01*
X253724745Y-77826679D01*
X253724239Y-77854897D01*
X253723635Y-77880175D01*
X253722894Y-77903388D01*
X253721976Y-77925414D01*
X253720844Y-77947130D01*
X253719457Y-77969415D01*
X253717777Y-77993145D01*
X253715764Y-78019197D01*
X253713379Y-78048450D01*
X253710343Y-78083086D01*
X253695259Y-78218997D01*
X253675241Y-78353853D01*
X253650336Y-78487542D01*
X253620596Y-78619954D01*
X253586069Y-78750976D01*
X253546804Y-78880498D01*
X253502851Y-79008409D01*
X253454259Y-79134598D01*
X253401078Y-79258953D01*
X253343357Y-79381363D01*
X253281144Y-79501718D01*
X253214490Y-79619905D01*
X253143444Y-79735814D01*
X253068056Y-79849335D01*
X252988373Y-79960354D01*
X252904447Y-80068762D01*
X252816325Y-80174448D01*
X252724058Y-80277300D01*
X252708967Y-80293306D01*
X252689052Y-80313981D01*
X252666865Y-80336638D01*
X252643123Y-80360566D01*
X252618546Y-80385054D01*
X252593850Y-80409391D01*
X252569754Y-80432866D01*
X252546977Y-80454767D01*
X252526236Y-80474383D01*
X252508250Y-80491003D01*
X252499890Y-80498583D01*
X252395592Y-80589500D01*
X252288529Y-80676217D01*
X252178807Y-80758686D01*
X252066535Y-80836862D01*
X251951818Y-80910698D01*
X251834766Y-80980148D01*
X251715485Y-81045164D01*
X251594083Y-81105700D01*
X251470667Y-81161710D01*
X251345345Y-81213147D01*
X251218223Y-81259964D01*
X251089410Y-81302115D01*
X250959012Y-81339553D01*
X250827138Y-81372231D01*
X250693894Y-81400104D01*
X250559389Y-81423124D01*
X250423728Y-81441245D01*
X250287020Y-81454421D01*
X250281464Y-81454845D01*
X250256408Y-81456604D01*
X250227900Y-81458399D01*
X250197244Y-81460157D01*
X250165742Y-81461807D01*
X250134697Y-81463275D01*
X250105410Y-81464490D01*
X250101419Y-81464617D01*
X250088197Y-81464854D01*
X250070876Y-81464983D01*
X250050157Y-81465012D01*
X250026739Y-81464949D01*
X250001322Y-81464801D01*
X249974605Y-81464577D01*
X249947289Y-81464285D01*
X249920074Y-81463933D01*
X249893658Y-81463528D01*
X249868742Y-81463079D01*
X249846025Y-81462593D01*
X249826208Y-81462078D01*
X249809990Y-81461543D01*
X249798070Y-81460996D01*
X249708277Y-81454936D01*
X249602829Y-81445406D01*
X249500126Y-81433341D01*
X249399182Y-81418595D01*
X249299009Y-81401022D01*
X249198621Y-81380474D01*
X249097030Y-81356804D01*
X249000516Y-81331596D01*
X248870331Y-81293069D01*
X248741624Y-81249748D01*
X248614551Y-81201713D01*
X248489270Y-81149047D01*
X248365940Y-81091829D01*
X248244718Y-81030142D01*
X248125762Y-80964067D01*
X248009229Y-80893685D01*
X247895278Y-80819077D01*
X247784066Y-80740325D01*
X247675751Y-80657509D01*
X247570490Y-80570711D01*
X247551942Y-80554719D01*
X247462499Y-80474433D01*
X247374720Y-80390412D01*
X247289287Y-80303368D01*
X247206884Y-80214015D01*
X247128192Y-80123066D01*
X247053895Y-80031233D01*
X247052294Y-80029181D01*
X246969237Y-79918599D01*
X246890568Y-79805536D01*
X246816329Y-79690095D01*
X246746558Y-79572381D01*
X246681298Y-79452498D01*
X246620588Y-79330551D01*
X246564470Y-79206644D01*
X246512983Y-79080882D01*
X246466169Y-78953368D01*
X246424067Y-78824208D01*
X246386719Y-78693505D01*
X246354164Y-78561365D01*
X246326445Y-78427890D01*
X246303600Y-78293187D01*
X246285671Y-78157358D01*
X246272698Y-78020510D01*
X246268752Y-77963092D01*
X246262839Y-77825186D01*
X246262078Y-77706019D01*
X246602099Y-77706019D01*
X246603315Y-77836101D01*
X246609300Y-77964632D01*
X246620093Y-78091892D01*
X246635734Y-78218163D01*
X246656263Y-78343724D01*
X246681719Y-78468857D01*
X246712142Y-78593841D01*
X246747571Y-78718957D01*
X246747611Y-78719090D01*
X246781796Y-78825458D01*
X246819396Y-78929957D01*
X246860759Y-79033460D01*
X246906236Y-79136843D01*
X246956176Y-79240980D01*
X246990078Y-79307219D01*
X247051816Y-79419742D01*
X247117157Y-79528914D01*
X247186347Y-79635106D01*
X247259630Y-79738685D01*
X247337250Y-79840020D01*
X247419451Y-79939480D01*
X247445166Y-79969108D01*
X247530024Y-80062081D01*
X247618960Y-80152529D01*
X247711511Y-80240028D01*
X247807215Y-80324150D01*
X247905611Y-80404470D01*
X248006236Y-80480560D01*
X248072071Y-80527211D01*
X248180445Y-80599012D01*
X248291403Y-80666524D01*
X248404780Y-80729680D01*
X248520415Y-80788415D01*
X248638145Y-80842661D01*
X248757808Y-80892353D01*
X248879239Y-80937424D01*
X249002277Y-80977808D01*
X249126759Y-81013440D01*
X249252522Y-81044253D01*
X249379404Y-81070180D01*
X249507240Y-81091156D01*
X249544440Y-81096348D01*
X249583003Y-81101323D01*
X249621165Y-81105782D01*
X249660021Y-81109840D01*
X249700668Y-81113611D01*
X249744203Y-81117208D01*
X249791720Y-81120745D01*
X249795817Y-81120990D01*
X249807265Y-81121466D01*
X249822782Y-81121934D01*
X249841758Y-81122386D01*
X249863583Y-81122818D01*
X249887647Y-81123224D01*
X249913341Y-81123595D01*
X249940054Y-81123928D01*
X249967178Y-81124215D01*
X249994101Y-81124450D01*
X250020214Y-81124628D01*
X250044907Y-81124741D01*
X250067570Y-81124784D01*
X250087594Y-81124751D01*
X250104369Y-81124635D01*
X250117284Y-81124430D01*
X250125730Y-81124131D01*
X250132736Y-81123731D01*
X250143965Y-81123099D01*
X250158080Y-81122311D01*
X250173964Y-81121430D01*
X250190500Y-81120517D01*
X250198413Y-81120071D01*
X250324577Y-81110309D01*
X250450923Y-81095581D01*
X250577088Y-81075964D01*
X250702711Y-81051534D01*
X250827428Y-81022370D01*
X250950879Y-80988547D01*
X251072701Y-80950144D01*
X251192530Y-80907237D01*
X251275386Y-80874525D01*
X251395374Y-80822691D01*
X251512743Y-80766556D01*
X251627564Y-80706078D01*
X251739907Y-80641213D01*
X251849845Y-80571918D01*
X251957447Y-80498149D01*
X252062785Y-80419864D01*
X252165929Y-80337018D01*
X252266950Y-80249568D01*
X252267416Y-80249149D01*
X252282416Y-80235403D01*
X252300258Y-80218625D01*
X252320307Y-80199441D01*
X252341930Y-80178480D01*
X252364492Y-80156369D01*
X252387359Y-80133737D01*
X252409895Y-80111212D01*
X252431467Y-80089420D01*
X252451439Y-80068991D01*
X252469178Y-80050551D01*
X252484050Y-80034730D01*
X252484500Y-80034243D01*
X252572159Y-79935705D01*
X252655684Y-79834273D01*
X252735018Y-79730047D01*
X252810106Y-79623130D01*
X252880895Y-79513622D01*
X252947329Y-79401625D01*
X253009353Y-79287239D01*
X253066911Y-79170567D01*
X253119950Y-79051710D01*
X253168415Y-78930768D01*
X253212249Y-78807843D01*
X253251399Y-78683036D01*
X253285809Y-78556450D01*
X253285991Y-78555726D01*
X253315107Y-78429355D01*
X253339289Y-78302010D01*
X253358539Y-78173874D01*
X253372862Y-78045131D01*
X253382262Y-77915962D01*
X253386743Y-77786550D01*
X253386310Y-77657080D01*
X253380966Y-77527732D01*
X253370715Y-77398691D01*
X253355562Y-77270139D01*
X253335510Y-77142259D01*
X253310563Y-77015234D01*
X253280726Y-76889246D01*
X253246003Y-76764480D01*
X253211984Y-76657414D01*
X253167994Y-76534474D01*
X253119332Y-76413414D01*
X253066076Y-76294377D01*
X253008304Y-76177505D01*
X252946095Y-76062941D01*
X252879526Y-75950827D01*
X252808674Y-75841306D01*
X252733619Y-75734521D01*
X252654437Y-75630614D01*
X252571208Y-75529727D01*
X252550393Y-75505692D01*
X252461795Y-75408109D01*
X252369952Y-75314354D01*
X252274978Y-75224489D01*
X252176981Y-75138579D01*
X252076074Y-75056684D01*
X251972367Y-74978869D01*
X251865972Y-74905196D01*
X251756999Y-74835728D01*
X251645559Y-74770527D01*
X251531764Y-74709657D01*
X251415723Y-74653179D01*
X251297549Y-74601158D01*
X251177353Y-74553655D01*
X251055244Y-74510733D01*
X250931334Y-74472456D01*
X250805735Y-74438886D01*
X250678557Y-74410086D01*
X250549910Y-74386119D01*
X250508096Y-74379401D01*
X250453184Y-74371378D01*
X250398287Y-74364320D01*
X250342134Y-74358078D01*
X250283456Y-74352503D01*
X250220980Y-74347445D01*
X250214260Y-74346979D01*
X250193685Y-74345851D01*
X250169054Y-74344841D01*
X250141104Y-74343956D01*
X250110573Y-74343204D01*
X250078196Y-74342592D01*
X250044713Y-74342128D01*
X250010860Y-74341818D01*
X249977373Y-74341671D01*
X249944991Y-74341693D01*
X249914451Y-74341893D01*
X249886489Y-74342277D01*
X249861843Y-74342853D01*
X249841250Y-74343628D01*
X249802277Y-74345698D01*
X249674412Y-74355429D01*
X249548598Y-74369608D01*
X249424404Y-74388304D01*
X249301394Y-74411590D01*
X249179136Y-74439537D01*
X249057197Y-74472215D01*
X249031450Y-74479734D01*
X248908393Y-74518851D01*
X248786781Y-74562774D01*
X248666816Y-74611392D01*
X248548696Y-74664600D01*
X248432622Y-74722289D01*
X248318793Y-74784352D01*
X248207409Y-74850679D01*
X248098669Y-74921164D01*
X247992774Y-74995699D01*
X247889923Y-75074175D01*
X247790315Y-75156486D01*
X247749791Y-75191945D01*
X247680003Y-75255809D01*
X247610723Y-75322644D01*
X247543044Y-75391357D01*
X247478061Y-75460853D01*
X247416866Y-75530040D01*
X247387206Y-75565077D01*
X247305748Y-75666567D01*
X247228418Y-75770908D01*
X247155275Y-75877956D01*
X247086380Y-75987567D01*
X247021794Y-76099597D01*
X246961577Y-76213900D01*
X246905789Y-76330334D01*
X246854491Y-76448753D01*
X246807743Y-76569014D01*
X246765605Y-76690972D01*
X246728139Y-76814482D01*
X246695404Y-76939402D01*
X246667460Y-77065585D01*
X246644369Y-77192889D01*
X246626190Y-77321168D01*
X246612984Y-77450280D01*
X246612596Y-77454981D01*
X246610403Y-77482472D01*
X246608572Y-77507348D01*
X246607061Y-77530569D01*
X246605825Y-77553099D01*
X246604824Y-77575899D01*
X246604012Y-77599931D01*
X246603348Y-77626157D01*
X246602787Y-77655539D01*
X246602288Y-77689040D01*
X246602099Y-77706019D01*
X246262078Y-77706019D01*
X246261960Y-77687584D01*
X246266097Y-77550399D01*
X246275230Y-77413743D01*
X246289340Y-77277728D01*
X246308408Y-77142465D01*
X246332415Y-77008068D01*
X246361341Y-76874647D01*
X246395168Y-76742315D01*
X246433877Y-76611184D01*
X246477447Y-76481366D01*
X246525861Y-76352973D01*
X246579099Y-76226117D01*
X246588189Y-76205898D01*
X246601037Y-76178169D01*
X246615497Y-76147696D01*
X246631110Y-76115404D01*
X246647419Y-76082216D01*
X246663965Y-76049056D01*
X246680291Y-76016847D01*
X246695938Y-75986514D01*
X246710448Y-75958980D01*
X246723364Y-75935170D01*
X246782552Y-75831968D01*
X246855310Y-75714525D01*
X246932126Y-75600097D01*
X247012925Y-75488767D01*
X247097632Y-75380615D01*
X247186172Y-75275723D01*
X247278472Y-75174173D01*
X247374457Y-75076045D01*
X247474051Y-74981423D01*
X247577182Y-74890387D01*
X247683773Y-74803019D01*
X247793751Y-74719401D01*
X247907040Y-74639614D01*
X247925937Y-74626899D01*
X248041285Y-74552829D01*
X248159035Y-74483206D01*
X248279063Y-74418075D01*
X248401243Y-74357483D01*
X248525450Y-74301475D01*
X248651559Y-74250098D01*
X248779446Y-74203398D01*
X248908985Y-74161420D01*
X249040051Y-74124212D01*
X249172520Y-74091818D01*
X249306266Y-74064285D01*
X249441164Y-74041660D01*
X249577090Y-74023987D01*
X249588235Y-74022757D01*
X249634272Y-74017942D01*
X249677661Y-74013888D01*
X249719503Y-74010528D01*
X249760901Y-74007798D01*
X249802959Y-74005629D01*
X249846780Y-74003955D01*
X249893466Y-74002709D01*
X249944120Y-74001826D01*
X250011081Y-74001386D01*
X250091511Y-74002248D01*
X250168429Y-74004702D01*
X250242570Y-74008765D01*
X250305036Y-74013453D01*
X250442199Y-74027411D01*
X250578298Y-74046316D01*
X250713242Y-74070139D01*
X250846941Y-74098854D01*
X250979303Y-74132433D01*
X251110238Y-74170848D01*
X251239656Y-74214071D01*
X251367466Y-74262075D01*
X251493576Y-74314832D01*
X251617898Y-74372316D01*
X251740339Y-74434497D01*
X251860810Y-74501349D01*
X251954067Y-74557185D01*
X252069004Y-74631238D01*
X252180903Y-74709259D01*
X252289673Y-74791137D01*
X252395222Y-74876760D01*
X252497459Y-74966017D01*
X252596293Y-75058796D01*
X252691630Y-75154986D01*
X252783381Y-75254474D01*
X252871452Y-75357149D01*
X252955753Y-75462899D01*
X253036191Y-75571613D01*
X253112676Y-75683179D01*
X253185114Y-75797485D01*
X253253416Y-75914419D01*
X253317488Y-76033870D01*
X253377240Y-76155727D01*
X253432580Y-76279876D01*
X253483415Y-76406208D01*
X253529655Y-76534610D01*
X253569124Y-76657855D01*
X253606132Y-76789432D01*
X253638183Y-76922039D01*
X253665290Y-77055749D01*
X253687470Y-77190638D01*
X253704737Y-77326780D01*
X253717107Y-77464250D01*
X253717840Y-77474635D01*
X253720536Y-77516797D01*
X253722645Y-77557634D01*
X253724196Y-77598211D01*
X253725217Y-77639592D01*
X253725736Y-77682843D01*
X253725781Y-77729027D01*
X253725379Y-77779210D01*
X253725290Y-77786550D01*
X253725192Y-77794641D01*
G37*
%LPC*%
D12*
X134606196Y-85919048D03*
X134606196Y-87419048D03*
X135106196Y-86669048D03*
X135606196Y-85919048D03*
X135606196Y-87419048D03*
D13*
X160500000Y-143560000D03*
D14*
X160500000Y-142290000D03*
X160500000Y-141020000D03*
X160500000Y-139750000D03*
X160500000Y-138480000D03*
X160500000Y-137210000D03*
X160500000Y-135940000D03*
X160500000Y-134670000D03*
D15*
X154607267Y-75475364D03*
D16*
X149207267Y-75475364D03*
D17*
X118000000Y-104500000D03*
D16*
X118000000Y-99100000D03*
D13*
X117875360Y-123032355D03*
D14*
X117875360Y-124302355D03*
X117875360Y-125572355D03*
X117875360Y-126842355D03*
D18*
X164523200Y-97662500D03*
D13*
X137250000Y-133190000D03*
D14*
X137250000Y-134460000D03*
X137250000Y-135730000D03*
X137250000Y-137000000D03*
X137250000Y-138270000D03*
D19*
X261000000Y-143500000D03*
D20*
X261000000Y-143500000D03*
D19*
X261000000Y-74500000D03*
D20*
X261000000Y-74500000D03*
D19*
X117000000Y-74500000D03*
D20*
X117000000Y-74500000D03*
D19*
X117000000Y-143500000D03*
D20*
X117000000Y-143500000D03*
D13*
X166000000Y-122140000D03*
D14*
X166000000Y-123410000D03*
X166000000Y-124680000D03*
X166000000Y-125950000D03*
D13*
X117230000Y-112190000D03*
D14*
X118500000Y-112190000D03*
X117230000Y-113460000D03*
X118500000Y-113460000D03*
X117230000Y-114730000D03*
X118500000Y-114730000D03*
X117230000Y-116000000D03*
X118500000Y-116000000D03*
X117230000Y-117270000D03*
X118500000Y-117270000D03*
D21*
X116400000Y-85500000D03*
D22*
X143600000Y-85500000D03*
%LPD*%
M02*
