%TF.GenerationSoftware,KiCad,Pcbnew,8.0.2-8.0.2-0~ubuntu22.04.1*%
%TF.CreationDate,2024-05-15T13:27:15-04:00*%
%TF.ProjectId,holiday-widget,686f6c69-6461-4792-9d77-69646765742e,1.0*%
%TF.SameCoordinates,Original*%
%TF.FileFunction,Drillmap*%
%TF.FilePolarity,Positive*%
%FSLAX45Y45*%
G04 Gerber Fmt 4.5, Leading zero omitted, Abs format (unit mm)*
G04 Created by KiCad (PCBNEW 8.0.2-8.0.2-0~ubuntu22.04.1) date 2024-05-15 13:27:15*
%MOMM*%
%LPD*%
G01*
G04 APERTURE LIST*
%ADD10C,0.050000*%
%ADD11C,0.200000*%
%ADD12C,0.100000*%
G04 APERTURE END LIST*
D10*
X11400000Y-7150000D02*
X26400000Y-7150000D01*
X26400000Y-14650000D01*
X11400000Y-14650000D01*
X11400000Y-7150000D01*
D11*
D12*
X16427320Y-9741250D02*
X16477320Y-9791250D01*
X16477320Y-9741250D02*
X16427320Y-9791250D01*
D11*
X11658277Y-14963984D02*
X11658277Y-14763984D01*
X11658277Y-14763984D02*
X11705896Y-14763984D01*
X11705896Y-14763984D02*
X11734467Y-14773508D01*
X11734467Y-14773508D02*
X11753515Y-14792555D01*
X11753515Y-14792555D02*
X11763039Y-14811603D01*
X11763039Y-14811603D02*
X11772562Y-14849698D01*
X11772562Y-14849698D02*
X11772562Y-14878269D01*
X11772562Y-14878269D02*
X11763039Y-14916365D01*
X11763039Y-14916365D02*
X11753515Y-14935412D01*
X11753515Y-14935412D02*
X11734467Y-14954460D01*
X11734467Y-14954460D02*
X11705896Y-14963984D01*
X11705896Y-14963984D02*
X11658277Y-14963984D01*
X11858277Y-14963984D02*
X11858277Y-14830650D01*
X11858277Y-14868746D02*
X11867801Y-14849698D01*
X11867801Y-14849698D02*
X11877324Y-14840174D01*
X11877324Y-14840174D02*
X11896372Y-14830650D01*
X11896372Y-14830650D02*
X11915420Y-14830650D01*
X11982086Y-14963984D02*
X11982086Y-14830650D01*
X11982086Y-14763984D02*
X11972562Y-14773508D01*
X11972562Y-14773508D02*
X11982086Y-14783031D01*
X11982086Y-14783031D02*
X11991610Y-14773508D01*
X11991610Y-14773508D02*
X11982086Y-14763984D01*
X11982086Y-14763984D02*
X11982086Y-14783031D01*
X12105896Y-14963984D02*
X12086848Y-14954460D01*
X12086848Y-14954460D02*
X12077324Y-14935412D01*
X12077324Y-14935412D02*
X12077324Y-14763984D01*
X12210658Y-14963984D02*
X12191610Y-14954460D01*
X12191610Y-14954460D02*
X12182086Y-14935412D01*
X12182086Y-14935412D02*
X12182086Y-14763984D01*
X12439229Y-14963984D02*
X12439229Y-14763984D01*
X12439229Y-14763984D02*
X12505896Y-14906841D01*
X12505896Y-14906841D02*
X12572562Y-14763984D01*
X12572562Y-14763984D02*
X12572562Y-14963984D01*
X12753515Y-14963984D02*
X12753515Y-14859222D01*
X12753515Y-14859222D02*
X12743991Y-14840174D01*
X12743991Y-14840174D02*
X12724943Y-14830650D01*
X12724943Y-14830650D02*
X12686848Y-14830650D01*
X12686848Y-14830650D02*
X12667801Y-14840174D01*
X12753515Y-14954460D02*
X12734467Y-14963984D01*
X12734467Y-14963984D02*
X12686848Y-14963984D01*
X12686848Y-14963984D02*
X12667801Y-14954460D01*
X12667801Y-14954460D02*
X12658277Y-14935412D01*
X12658277Y-14935412D02*
X12658277Y-14916365D01*
X12658277Y-14916365D02*
X12667801Y-14897317D01*
X12667801Y-14897317D02*
X12686848Y-14887793D01*
X12686848Y-14887793D02*
X12734467Y-14887793D01*
X12734467Y-14887793D02*
X12753515Y-14878269D01*
X12848753Y-14830650D02*
X12848753Y-15030650D01*
X12848753Y-14840174D02*
X12867801Y-14830650D01*
X12867801Y-14830650D02*
X12905896Y-14830650D01*
X12905896Y-14830650D02*
X12924943Y-14840174D01*
X12924943Y-14840174D02*
X12934467Y-14849698D01*
X12934467Y-14849698D02*
X12943991Y-14868746D01*
X12943991Y-14868746D02*
X12943991Y-14925888D01*
X12943991Y-14925888D02*
X12934467Y-14944936D01*
X12934467Y-14944936D02*
X12924943Y-14954460D01*
X12924943Y-14954460D02*
X12905896Y-14963984D01*
X12905896Y-14963984D02*
X12867801Y-14963984D01*
X12867801Y-14963984D02*
X12848753Y-14954460D01*
X13029705Y-14944936D02*
X13039229Y-14954460D01*
X13039229Y-14954460D02*
X13029705Y-14963984D01*
X13029705Y-14963984D02*
X13020182Y-14954460D01*
X13020182Y-14954460D02*
X13029705Y-14944936D01*
X13029705Y-14944936D02*
X13029705Y-14963984D01*
X13029705Y-14840174D02*
X13039229Y-14849698D01*
X13039229Y-14849698D02*
X13029705Y-14859222D01*
X13029705Y-14859222D02*
X13020182Y-14849698D01*
X13020182Y-14849698D02*
X13029705Y-14840174D01*
X13029705Y-14840174D02*
X13029705Y-14859222D01*
D12*
X11347500Y-15267500D02*
X11397500Y-15317500D01*
X11397500Y-15267500D02*
X11347500Y-15317500D01*
D11*
X11696372Y-15183984D02*
X11715420Y-15183984D01*
X11715420Y-15183984D02*
X11734467Y-15193508D01*
X11734467Y-15193508D02*
X11743991Y-15203031D01*
X11743991Y-15203031D02*
X11753515Y-15222079D01*
X11753515Y-15222079D02*
X11763039Y-15260174D01*
X11763039Y-15260174D02*
X11763039Y-15307793D01*
X11763039Y-15307793D02*
X11753515Y-15345888D01*
X11753515Y-15345888D02*
X11743991Y-15364936D01*
X11743991Y-15364936D02*
X11734467Y-15374460D01*
X11734467Y-15374460D02*
X11715420Y-15383984D01*
X11715420Y-15383984D02*
X11696372Y-15383984D01*
X11696372Y-15383984D02*
X11677324Y-15374460D01*
X11677324Y-15374460D02*
X11667801Y-15364936D01*
X11667801Y-15364936D02*
X11658277Y-15345888D01*
X11658277Y-15345888D02*
X11648753Y-15307793D01*
X11648753Y-15307793D02*
X11648753Y-15260174D01*
X11648753Y-15260174D02*
X11658277Y-15222079D01*
X11658277Y-15222079D02*
X11667801Y-15203031D01*
X11667801Y-15203031D02*
X11677324Y-15193508D01*
X11677324Y-15193508D02*
X11696372Y-15183984D01*
X11848753Y-15364936D02*
X11858277Y-15374460D01*
X11858277Y-15374460D02*
X11848753Y-15383984D01*
X11848753Y-15383984D02*
X11839229Y-15374460D01*
X11839229Y-15374460D02*
X11848753Y-15364936D01*
X11848753Y-15364936D02*
X11848753Y-15383984D01*
X12039229Y-15183984D02*
X11943991Y-15183984D01*
X11943991Y-15183984D02*
X11934467Y-15279222D01*
X11934467Y-15279222D02*
X11943991Y-15269698D01*
X11943991Y-15269698D02*
X11963039Y-15260174D01*
X11963039Y-15260174D02*
X12010658Y-15260174D01*
X12010658Y-15260174D02*
X12029705Y-15269698D01*
X12029705Y-15269698D02*
X12039229Y-15279222D01*
X12039229Y-15279222D02*
X12048753Y-15298269D01*
X12048753Y-15298269D02*
X12048753Y-15345888D01*
X12048753Y-15345888D02*
X12039229Y-15364936D01*
X12039229Y-15364936D02*
X12029705Y-15374460D01*
X12029705Y-15374460D02*
X12010658Y-15383984D01*
X12010658Y-15383984D02*
X11963039Y-15383984D01*
X11963039Y-15383984D02*
X11943991Y-15374460D01*
X11943991Y-15374460D02*
X11934467Y-15364936D01*
X12172562Y-15183984D02*
X12191610Y-15183984D01*
X12191610Y-15183984D02*
X12210658Y-15193508D01*
X12210658Y-15193508D02*
X12220182Y-15203031D01*
X12220182Y-15203031D02*
X12229705Y-15222079D01*
X12229705Y-15222079D02*
X12239229Y-15260174D01*
X12239229Y-15260174D02*
X12239229Y-15307793D01*
X12239229Y-15307793D02*
X12229705Y-15345888D01*
X12229705Y-15345888D02*
X12220182Y-15364936D01*
X12220182Y-15364936D02*
X12210658Y-15374460D01*
X12210658Y-15374460D02*
X12191610Y-15383984D01*
X12191610Y-15383984D02*
X12172562Y-15383984D01*
X12172562Y-15383984D02*
X12153515Y-15374460D01*
X12153515Y-15374460D02*
X12143991Y-15364936D01*
X12143991Y-15364936D02*
X12134467Y-15345888D01*
X12134467Y-15345888D02*
X12124943Y-15307793D01*
X12124943Y-15307793D02*
X12124943Y-15260174D01*
X12124943Y-15260174D02*
X12134467Y-15222079D01*
X12134467Y-15222079D02*
X12143991Y-15203031D01*
X12143991Y-15203031D02*
X12153515Y-15193508D01*
X12153515Y-15193508D02*
X12172562Y-15183984D01*
X12363039Y-15183984D02*
X12382086Y-15183984D01*
X12382086Y-15183984D02*
X12401134Y-15193508D01*
X12401134Y-15193508D02*
X12410658Y-15203031D01*
X12410658Y-15203031D02*
X12420182Y-15222079D01*
X12420182Y-15222079D02*
X12429705Y-15260174D01*
X12429705Y-15260174D02*
X12429705Y-15307793D01*
X12429705Y-15307793D02*
X12420182Y-15345888D01*
X12420182Y-15345888D02*
X12410658Y-15364936D01*
X12410658Y-15364936D02*
X12401134Y-15374460D01*
X12401134Y-15374460D02*
X12382086Y-15383984D01*
X12382086Y-15383984D02*
X12363039Y-15383984D01*
X12363039Y-15383984D02*
X12343991Y-15374460D01*
X12343991Y-15374460D02*
X12334467Y-15364936D01*
X12334467Y-15364936D02*
X12324943Y-15345888D01*
X12324943Y-15345888D02*
X12315420Y-15307793D01*
X12315420Y-15307793D02*
X12315420Y-15260174D01*
X12315420Y-15260174D02*
X12324943Y-15222079D01*
X12324943Y-15222079D02*
X12334467Y-15203031D01*
X12334467Y-15203031D02*
X12343991Y-15193508D01*
X12343991Y-15193508D02*
X12363039Y-15183984D01*
X12515420Y-15383984D02*
X12515420Y-15250650D01*
X12515420Y-15269698D02*
X12524943Y-15260174D01*
X12524943Y-15260174D02*
X12543991Y-15250650D01*
X12543991Y-15250650D02*
X12572563Y-15250650D01*
X12572563Y-15250650D02*
X12591610Y-15260174D01*
X12591610Y-15260174D02*
X12601134Y-15279222D01*
X12601134Y-15279222D02*
X12601134Y-15383984D01*
X12601134Y-15279222D02*
X12610658Y-15260174D01*
X12610658Y-15260174D02*
X12629705Y-15250650D01*
X12629705Y-15250650D02*
X12658277Y-15250650D01*
X12658277Y-15250650D02*
X12677324Y-15260174D01*
X12677324Y-15260174D02*
X12686848Y-15279222D01*
X12686848Y-15279222D02*
X12686848Y-15383984D01*
X12782086Y-15383984D02*
X12782086Y-15250650D01*
X12782086Y-15269698D02*
X12791610Y-15260174D01*
X12791610Y-15260174D02*
X12810658Y-15250650D01*
X12810658Y-15250650D02*
X12839229Y-15250650D01*
X12839229Y-15250650D02*
X12858277Y-15260174D01*
X12858277Y-15260174D02*
X12867801Y-15279222D01*
X12867801Y-15279222D02*
X12867801Y-15383984D01*
X12867801Y-15279222D02*
X12877324Y-15260174D01*
X12877324Y-15260174D02*
X12896372Y-15250650D01*
X12896372Y-15250650D02*
X12924943Y-15250650D01*
X12924943Y-15250650D02*
X12943991Y-15260174D01*
X12943991Y-15260174D02*
X12953515Y-15279222D01*
X12953515Y-15279222D02*
X12953515Y-15383984D01*
X13343991Y-15174460D02*
X13172563Y-15431603D01*
X13601134Y-15183984D02*
X13620182Y-15183984D01*
X13620182Y-15183984D02*
X13639229Y-15193508D01*
X13639229Y-15193508D02*
X13648753Y-15203031D01*
X13648753Y-15203031D02*
X13658277Y-15222079D01*
X13658277Y-15222079D02*
X13667801Y-15260174D01*
X13667801Y-15260174D02*
X13667801Y-15307793D01*
X13667801Y-15307793D02*
X13658277Y-15345888D01*
X13658277Y-15345888D02*
X13648753Y-15364936D01*
X13648753Y-15364936D02*
X13639229Y-15374460D01*
X13639229Y-15374460D02*
X13620182Y-15383984D01*
X13620182Y-15383984D02*
X13601134Y-15383984D01*
X13601134Y-15383984D02*
X13582086Y-15374460D01*
X13582086Y-15374460D02*
X13572563Y-15364936D01*
X13572563Y-15364936D02*
X13563039Y-15345888D01*
X13563039Y-15345888D02*
X13553515Y-15307793D01*
X13553515Y-15307793D02*
X13553515Y-15260174D01*
X13553515Y-15260174D02*
X13563039Y-15222079D01*
X13563039Y-15222079D02*
X13572563Y-15203031D01*
X13572563Y-15203031D02*
X13582086Y-15193508D01*
X13582086Y-15193508D02*
X13601134Y-15183984D01*
X13753515Y-15364936D02*
X13763039Y-15374460D01*
X13763039Y-15374460D02*
X13753515Y-15383984D01*
X13753515Y-15383984D02*
X13743991Y-15374460D01*
X13743991Y-15374460D02*
X13753515Y-15364936D01*
X13753515Y-15364936D02*
X13753515Y-15383984D01*
X13886848Y-15183984D02*
X13905896Y-15183984D01*
X13905896Y-15183984D02*
X13924944Y-15193508D01*
X13924944Y-15193508D02*
X13934467Y-15203031D01*
X13934467Y-15203031D02*
X13943991Y-15222079D01*
X13943991Y-15222079D02*
X13953515Y-15260174D01*
X13953515Y-15260174D02*
X13953515Y-15307793D01*
X13953515Y-15307793D02*
X13943991Y-15345888D01*
X13943991Y-15345888D02*
X13934467Y-15364936D01*
X13934467Y-15364936D02*
X13924944Y-15374460D01*
X13924944Y-15374460D02*
X13905896Y-15383984D01*
X13905896Y-15383984D02*
X13886848Y-15383984D01*
X13886848Y-15383984D02*
X13867801Y-15374460D01*
X13867801Y-15374460D02*
X13858277Y-15364936D01*
X13858277Y-15364936D02*
X13848753Y-15345888D01*
X13848753Y-15345888D02*
X13839229Y-15307793D01*
X13839229Y-15307793D02*
X13839229Y-15260174D01*
X13839229Y-15260174D02*
X13848753Y-15222079D01*
X13848753Y-15222079D02*
X13858277Y-15203031D01*
X13858277Y-15203031D02*
X13867801Y-15193508D01*
X13867801Y-15193508D02*
X13886848Y-15183984D01*
X14143991Y-15383984D02*
X14029706Y-15383984D01*
X14086848Y-15383984D02*
X14086848Y-15183984D01*
X14086848Y-15183984D02*
X14067801Y-15212555D01*
X14067801Y-15212555D02*
X14048753Y-15231603D01*
X14048753Y-15231603D02*
X14029706Y-15241127D01*
X14239229Y-15383984D02*
X14277325Y-15383984D01*
X14277325Y-15383984D02*
X14296372Y-15374460D01*
X14296372Y-15374460D02*
X14305896Y-15364936D01*
X14305896Y-15364936D02*
X14324944Y-15336365D01*
X14324944Y-15336365D02*
X14334467Y-15298269D01*
X14334467Y-15298269D02*
X14334467Y-15222079D01*
X14334467Y-15222079D02*
X14324944Y-15203031D01*
X14324944Y-15203031D02*
X14315420Y-15193508D01*
X14315420Y-15193508D02*
X14296372Y-15183984D01*
X14296372Y-15183984D02*
X14258277Y-15183984D01*
X14258277Y-15183984D02*
X14239229Y-15193508D01*
X14239229Y-15193508D02*
X14229706Y-15203031D01*
X14229706Y-15203031D02*
X14220182Y-15222079D01*
X14220182Y-15222079D02*
X14220182Y-15269698D01*
X14220182Y-15269698D02*
X14229706Y-15288746D01*
X14229706Y-15288746D02*
X14239229Y-15298269D01*
X14239229Y-15298269D02*
X14258277Y-15307793D01*
X14258277Y-15307793D02*
X14296372Y-15307793D01*
X14296372Y-15307793D02*
X14315420Y-15298269D01*
X14315420Y-15298269D02*
X14324944Y-15288746D01*
X14324944Y-15288746D02*
X14334467Y-15269698D01*
X14401134Y-15183984D02*
X14534467Y-15183984D01*
X14534467Y-15183984D02*
X14448753Y-15383984D01*
X14601134Y-15183984D02*
X14601134Y-15222079D01*
X14677325Y-15183984D02*
X14677325Y-15222079D01*
X14972563Y-15460174D02*
X14963039Y-15450650D01*
X14963039Y-15450650D02*
X14943991Y-15422079D01*
X14943991Y-15422079D02*
X14934468Y-15403031D01*
X14934468Y-15403031D02*
X14924944Y-15374460D01*
X14924944Y-15374460D02*
X14915420Y-15326841D01*
X14915420Y-15326841D02*
X14915420Y-15288746D01*
X14915420Y-15288746D02*
X14924944Y-15241127D01*
X14924944Y-15241127D02*
X14934468Y-15212555D01*
X14934468Y-15212555D02*
X14943991Y-15193508D01*
X14943991Y-15193508D02*
X14963039Y-15164936D01*
X14963039Y-15164936D02*
X14972563Y-15155412D01*
X15153515Y-15383984D02*
X15039229Y-15383984D01*
X15096372Y-15383984D02*
X15096372Y-15183984D01*
X15096372Y-15183984D02*
X15077325Y-15212555D01*
X15077325Y-15212555D02*
X15058277Y-15231603D01*
X15058277Y-15231603D02*
X15039229Y-15241127D01*
X15391610Y-15383984D02*
X15391610Y-15183984D01*
X15477325Y-15383984D02*
X15477325Y-15279222D01*
X15477325Y-15279222D02*
X15467801Y-15260174D01*
X15467801Y-15260174D02*
X15448753Y-15250650D01*
X15448753Y-15250650D02*
X15420182Y-15250650D01*
X15420182Y-15250650D02*
X15401134Y-15260174D01*
X15401134Y-15260174D02*
X15391610Y-15269698D01*
X15601134Y-15383984D02*
X15582087Y-15374460D01*
X15582087Y-15374460D02*
X15572563Y-15364936D01*
X15572563Y-15364936D02*
X15563039Y-15345888D01*
X15563039Y-15345888D02*
X15563039Y-15288746D01*
X15563039Y-15288746D02*
X15572563Y-15269698D01*
X15572563Y-15269698D02*
X15582087Y-15260174D01*
X15582087Y-15260174D02*
X15601134Y-15250650D01*
X15601134Y-15250650D02*
X15629706Y-15250650D01*
X15629706Y-15250650D02*
X15648753Y-15260174D01*
X15648753Y-15260174D02*
X15658277Y-15269698D01*
X15658277Y-15269698D02*
X15667801Y-15288746D01*
X15667801Y-15288746D02*
X15667801Y-15345888D01*
X15667801Y-15345888D02*
X15658277Y-15364936D01*
X15658277Y-15364936D02*
X15648753Y-15374460D01*
X15648753Y-15374460D02*
X15629706Y-15383984D01*
X15629706Y-15383984D02*
X15601134Y-15383984D01*
X15782087Y-15383984D02*
X15763039Y-15374460D01*
X15763039Y-15374460D02*
X15753515Y-15355412D01*
X15753515Y-15355412D02*
X15753515Y-15183984D01*
X15934468Y-15374460D02*
X15915420Y-15383984D01*
X15915420Y-15383984D02*
X15877325Y-15383984D01*
X15877325Y-15383984D02*
X15858277Y-15374460D01*
X15858277Y-15374460D02*
X15848753Y-15355412D01*
X15848753Y-15355412D02*
X15848753Y-15279222D01*
X15848753Y-15279222D02*
X15858277Y-15260174D01*
X15858277Y-15260174D02*
X15877325Y-15250650D01*
X15877325Y-15250650D02*
X15915420Y-15250650D01*
X15915420Y-15250650D02*
X15934468Y-15260174D01*
X15934468Y-15260174D02*
X15943991Y-15279222D01*
X15943991Y-15279222D02*
X15943991Y-15298269D01*
X15943991Y-15298269D02*
X15848753Y-15317317D01*
X16010658Y-15460174D02*
X16020182Y-15450650D01*
X16020182Y-15450650D02*
X16039230Y-15422079D01*
X16039230Y-15422079D02*
X16048753Y-15403031D01*
X16048753Y-15403031D02*
X16058277Y-15374460D01*
X16058277Y-15374460D02*
X16067801Y-15326841D01*
X16067801Y-15326841D02*
X16067801Y-15288746D01*
X16067801Y-15288746D02*
X16058277Y-15241127D01*
X16058277Y-15241127D02*
X16048753Y-15212555D01*
X16048753Y-15212555D02*
X16039230Y-15193508D01*
X16039230Y-15193508D02*
X16020182Y-15164936D01*
X16020182Y-15164936D02*
X16010658Y-15155412D01*
X16372563Y-15460174D02*
X16363039Y-15450650D01*
X16363039Y-15450650D02*
X16343991Y-15422079D01*
X16343991Y-15422079D02*
X16334468Y-15403031D01*
X16334468Y-15403031D02*
X16324944Y-15374460D01*
X16324944Y-15374460D02*
X16315420Y-15326841D01*
X16315420Y-15326841D02*
X16315420Y-15288746D01*
X16315420Y-15288746D02*
X16324944Y-15241127D01*
X16324944Y-15241127D02*
X16334468Y-15212555D01*
X16334468Y-15212555D02*
X16343991Y-15193508D01*
X16343991Y-15193508D02*
X16363039Y-15164936D01*
X16363039Y-15164936D02*
X16372563Y-15155412D01*
X16448753Y-15250650D02*
X16448753Y-15383984D01*
X16448753Y-15269698D02*
X16458277Y-15260174D01*
X16458277Y-15260174D02*
X16477325Y-15250650D01*
X16477325Y-15250650D02*
X16505896Y-15250650D01*
X16505896Y-15250650D02*
X16524944Y-15260174D01*
X16524944Y-15260174D02*
X16534468Y-15279222D01*
X16534468Y-15279222D02*
X16534468Y-15383984D01*
X16658277Y-15383984D02*
X16639230Y-15374460D01*
X16639230Y-15374460D02*
X16629706Y-15364936D01*
X16629706Y-15364936D02*
X16620182Y-15345888D01*
X16620182Y-15345888D02*
X16620182Y-15288746D01*
X16620182Y-15288746D02*
X16629706Y-15269698D01*
X16629706Y-15269698D02*
X16639230Y-15260174D01*
X16639230Y-15260174D02*
X16658277Y-15250650D01*
X16658277Y-15250650D02*
X16686849Y-15250650D01*
X16686849Y-15250650D02*
X16705896Y-15260174D01*
X16705896Y-15260174D02*
X16715420Y-15269698D01*
X16715420Y-15269698D02*
X16724944Y-15288746D01*
X16724944Y-15288746D02*
X16724944Y-15345888D01*
X16724944Y-15345888D02*
X16715420Y-15364936D01*
X16715420Y-15364936D02*
X16705896Y-15374460D01*
X16705896Y-15374460D02*
X16686849Y-15383984D01*
X16686849Y-15383984D02*
X16658277Y-15383984D01*
X16782087Y-15250650D02*
X16858277Y-15250650D01*
X16810658Y-15183984D02*
X16810658Y-15355412D01*
X16810658Y-15355412D02*
X16820182Y-15374460D01*
X16820182Y-15374460D02*
X16839230Y-15383984D01*
X16839230Y-15383984D02*
X16858277Y-15383984D01*
X17077325Y-15250650D02*
X17077325Y-15450650D01*
X17077325Y-15260174D02*
X17096373Y-15250650D01*
X17096373Y-15250650D02*
X17134468Y-15250650D01*
X17134468Y-15250650D02*
X17153515Y-15260174D01*
X17153515Y-15260174D02*
X17163039Y-15269698D01*
X17163039Y-15269698D02*
X17172563Y-15288746D01*
X17172563Y-15288746D02*
X17172563Y-15345888D01*
X17172563Y-15345888D02*
X17163039Y-15364936D01*
X17163039Y-15364936D02*
X17153515Y-15374460D01*
X17153515Y-15374460D02*
X17134468Y-15383984D01*
X17134468Y-15383984D02*
X17096373Y-15383984D01*
X17096373Y-15383984D02*
X17077325Y-15374460D01*
X17286849Y-15383984D02*
X17267801Y-15374460D01*
X17267801Y-15374460D02*
X17258277Y-15355412D01*
X17258277Y-15355412D02*
X17258277Y-15183984D01*
X17448754Y-15383984D02*
X17448754Y-15279222D01*
X17448754Y-15279222D02*
X17439230Y-15260174D01*
X17439230Y-15260174D02*
X17420182Y-15250650D01*
X17420182Y-15250650D02*
X17382087Y-15250650D01*
X17382087Y-15250650D02*
X17363039Y-15260174D01*
X17448754Y-15374460D02*
X17429706Y-15383984D01*
X17429706Y-15383984D02*
X17382087Y-15383984D01*
X17382087Y-15383984D02*
X17363039Y-15374460D01*
X17363039Y-15374460D02*
X17353515Y-15355412D01*
X17353515Y-15355412D02*
X17353515Y-15336365D01*
X17353515Y-15336365D02*
X17363039Y-15317317D01*
X17363039Y-15317317D02*
X17382087Y-15307793D01*
X17382087Y-15307793D02*
X17429706Y-15307793D01*
X17429706Y-15307793D02*
X17448754Y-15298269D01*
X17515420Y-15250650D02*
X17591611Y-15250650D01*
X17543992Y-15183984D02*
X17543992Y-15355412D01*
X17543992Y-15355412D02*
X17553515Y-15374460D01*
X17553515Y-15374460D02*
X17572563Y-15383984D01*
X17572563Y-15383984D02*
X17591611Y-15383984D01*
X17734468Y-15374460D02*
X17715420Y-15383984D01*
X17715420Y-15383984D02*
X17677325Y-15383984D01*
X17677325Y-15383984D02*
X17658277Y-15374460D01*
X17658277Y-15374460D02*
X17648754Y-15355412D01*
X17648754Y-15355412D02*
X17648754Y-15279222D01*
X17648754Y-15279222D02*
X17658277Y-15260174D01*
X17658277Y-15260174D02*
X17677325Y-15250650D01*
X17677325Y-15250650D02*
X17715420Y-15250650D01*
X17715420Y-15250650D02*
X17734468Y-15260174D01*
X17734468Y-15260174D02*
X17743992Y-15279222D01*
X17743992Y-15279222D02*
X17743992Y-15298269D01*
X17743992Y-15298269D02*
X17648754Y-15317317D01*
X17915420Y-15383984D02*
X17915420Y-15183984D01*
X17915420Y-15374460D02*
X17896373Y-15383984D01*
X17896373Y-15383984D02*
X17858277Y-15383984D01*
X17858277Y-15383984D02*
X17839230Y-15374460D01*
X17839230Y-15374460D02*
X17829706Y-15364936D01*
X17829706Y-15364936D02*
X17820182Y-15345888D01*
X17820182Y-15345888D02*
X17820182Y-15288746D01*
X17820182Y-15288746D02*
X17829706Y-15269698D01*
X17829706Y-15269698D02*
X17839230Y-15260174D01*
X17839230Y-15260174D02*
X17858277Y-15250650D01*
X17858277Y-15250650D02*
X17896373Y-15250650D01*
X17896373Y-15250650D02*
X17915420Y-15260174D01*
X17991611Y-15460174D02*
X18001135Y-15450650D01*
X18001135Y-15450650D02*
X18020182Y-15422079D01*
X18020182Y-15422079D02*
X18029706Y-15403031D01*
X18029706Y-15403031D02*
X18039230Y-15374460D01*
X18039230Y-15374460D02*
X18048754Y-15326841D01*
X18048754Y-15326841D02*
X18048754Y-15288746D01*
X18048754Y-15288746D02*
X18039230Y-15241127D01*
X18039230Y-15241127D02*
X18029706Y-15212555D01*
X18029706Y-15212555D02*
X18020182Y-15193508D01*
X18020182Y-15193508D02*
X18001135Y-15164936D01*
X18001135Y-15164936D02*
X17991611Y-15155412D01*
M02*
