G04 #@! TF.GenerationSoftware,KiCad,Pcbnew,8.0.2-8.0.2-0~ubuntu22.04.1*
G04 #@! TF.CreationDate,2024-05-15T13:26:14-04:00*
G04 #@! TF.ProjectId,holiday-widget,686f6c69-6461-4792-9d77-69646765742e,1.0*
G04 #@! TF.SameCoordinates,Original*
G04 #@! TF.FileFunction,Paste,Top*
G04 #@! TF.FilePolarity,Positive*
%FSLAX46Y46*%
G04 Gerber Fmt 4.6, Leading zero omitted, Abs format (unit mm)*
G04 Created by KiCad (PCBNEW 8.0.2-8.0.2-0~ubuntu22.04.1) date 2024-05-15 13:26:14*
%MOMM*%
%LPD*%
G01*
G04 APERTURE LIST*
G04 Aperture macros list*
%AMRoundRect*
0 Rectangle with rounded corners*
0 $1 Rounding radius*
0 $2 $3 $4 $5 $6 $7 $8 $9 X,Y pos of 4 corners*
0 Add a 4 corners polygon primitive as box body*
4,1,4,$2,$3,$4,$5,$6,$7,$8,$9,$2,$3,0*
0 Add four circle primitives for the rounded corners*
1,1,$1+$1,$2,$3*
1,1,$1+$1,$4,$5*
1,1,$1+$1,$6,$7*
1,1,$1+$1,$8,$9*
0 Add four rect primitives between the rounded corners*
20,1,$1+$1,$2,$3,$4,$5,0*
20,1,$1+$1,$4,$5,$6,$7,0*
20,1,$1+$1,$6,$7,$8,$9,0*
20,1,$1+$1,$8,$9,$2,$3,0*%
%AMFreePoly0*
4,1,51,0.911569,0.773019,1.138152,0.657569,1.317969,0.477752,1.433419,0.251169,1.462091,0.070138,1.470107,0.070840,1.473200,0.000000,1.470107,-0.070840,1.462091,-0.070138,1.433419,-0.251169,1.317969,-0.477752,1.138152,-0.657569,0.911569,-0.773019,0.660400,-0.812800,0.409231,-0.773019,0.182648,-0.657569,0.002831,-0.477752,-0.112619,-0.251169,-0.141291,-0.070138,-0.149307,-0.070840,
-0.152400,0.000000,0.152400,0.000000,0.177263,-0.156981,0.249420,-0.298595,0.361805,-0.410981,0.503420,-0.483137,0.660400,-0.508000,0.817381,-0.483137,0.958995,-0.410981,1.071381,-0.298595,1.143537,-0.156981,1.168400,0.000000,1.143537,0.156981,1.071381,0.298595,0.958995,0.410981,0.817381,0.483137,0.660400,0.508000,0.503420,0.483137,0.361805,0.410981,0.249420,0.298595,
0.177263,0.156981,0.152400,0.000000,-0.152400,0.000000,-0.149307,0.070840,-0.141291,0.070138,-0.112619,0.251169,0.002831,0.477752,0.182648,0.657569,0.409231,0.773019,0.660400,0.812800,0.911569,0.773019,0.911569,0.773019,$1*%
%AMFreePoly1*
4,1,11,0.760000,0.825000,0.380000,0.510000,0.380000,-0.510000,0.760000,-0.825000,0.760000,-1.525000,-0.125000,-1.525000,-0.380000,-1.270000,-0.380000,1.270000,-0.125000,1.525000,0.760000,1.525000,0.760000,0.825000,0.760000,0.825000,$1*%
G04 Aperture macros list end*
%ADD10R,0.230000X0.230000*%
%ADD11O,0.800000X0.230000*%
%ADD12R,0.680000X1.050000*%
%ADD13R,0.260000X0.500000*%
%ADD14R,1.550000X1.300000*%
%ADD15RoundRect,0.237500X-0.300000X-0.237500X0.300000X-0.237500X0.300000X0.237500X-0.300000X0.237500X0*%
%ADD16RoundRect,0.237500X0.300000X0.237500X-0.300000X0.237500X-0.300000X-0.237500X0.300000X-0.237500X0*%
%ADD17RoundRect,0.250000X-0.325000X-0.450000X0.325000X-0.450000X0.325000X0.450000X-0.325000X0.450000X0*%
%ADD18RoundRect,0.125000X-0.125000X-0.375000X0.125000X-0.375000X0.125000X0.375000X-0.125000X0.375000X0*%
%ADD19RoundRect,0.237500X-0.250000X-0.237500X0.250000X-0.237500X0.250000X0.237500X-0.250000X0.237500X0*%
%ADD20RoundRect,0.237500X0.237500X-0.300000X0.237500X0.300000X-0.237500X0.300000X-0.237500X-0.300000X0*%
%ADD21RoundRect,0.237500X-0.237500X0.250000X-0.237500X-0.250000X0.237500X-0.250000X0.237500X0.250000X0*%
%ADD22RoundRect,0.087500X-0.187500X-0.087500X0.187500X-0.087500X0.187500X0.087500X-0.187500X0.087500X0*%
%ADD23RoundRect,0.087500X-0.087500X-0.187500X0.087500X-0.187500X0.087500X0.187500X-0.087500X0.187500X0*%
%ADD24RoundRect,0.150000X-0.587500X-0.150000X0.587500X-0.150000X0.587500X0.150000X-0.587500X0.150000X0*%
%ADD25RoundRect,0.237500X0.250000X0.237500X-0.250000X0.237500X-0.250000X-0.237500X0.250000X-0.237500X0*%
%ADD26RoundRect,0.237500X0.237500X-0.250000X0.237500X0.250000X-0.237500X0.250000X-0.237500X-0.250000X0*%
%ADD27RoundRect,0.125000X0.375000X-0.125000X0.375000X0.125000X-0.375000X0.125000X-0.375000X-0.125000X0*%
%ADD28RoundRect,0.237500X-0.237500X0.300000X-0.237500X-0.300000X0.237500X-0.300000X0.237500X0.300000X0*%
%ADD29R,0.533400X0.736600*%
%ADD30FreePoly0,0.000000*%
%ADD31RoundRect,0.250000X0.450000X-0.325000X0.450000X0.325000X-0.450000X0.325000X-0.450000X-0.325000X0*%
%ADD32R,0.300000X1.600000*%
%ADD33RoundRect,0.100000X-0.100000X-0.300000X0.100000X-0.300000X0.100000X0.300000X-0.100000X0.300000X0*%
%ADD34RoundRect,0.200000X-0.215000X-0.200000X0.215000X-0.200000X0.215000X0.200000X-0.215000X0.200000X0*%
%ADD35RoundRect,0.085000X-0.265000X-0.085000X0.265000X-0.085000X0.265000X0.085000X-0.265000X0.085000X0*%
%ADD36FreePoly1,90.000000*%
%ADD37FreePoly1,270.000000*%
%ADD38RoundRect,0.075000X-0.700000X-0.075000X0.700000X-0.075000X0.700000X0.075000X-0.700000X0.075000X0*%
%ADD39RoundRect,0.075000X-0.075000X-0.700000X0.075000X-0.700000X0.075000X0.700000X-0.075000X0.700000X0*%
G04 APERTURE END LIST*
D10*
X133346196Y-85669048D03*
D11*
X133631196Y-85669048D03*
D10*
X133346196Y-86169048D03*
D11*
X133631196Y-86169048D03*
D10*
X133346196Y-86669048D03*
D11*
X133631196Y-86669048D03*
D10*
X133346196Y-87169048D03*
D11*
X133631196Y-87169048D03*
D10*
X133346196Y-87669048D03*
D11*
X133631196Y-87669048D03*
X136581196Y-87669048D03*
D10*
X136866196Y-87669048D03*
D11*
X136581196Y-87169048D03*
D10*
X136866196Y-87169048D03*
D11*
X136581196Y-86669048D03*
D10*
X136866196Y-86669048D03*
D11*
X136581196Y-86169048D03*
D10*
X136866196Y-86169048D03*
D11*
X136581196Y-85669048D03*
D10*
X136866196Y-85669048D03*
D12*
X134656196Y-86034048D03*
X134656196Y-87304048D03*
D13*
X134856196Y-85039048D03*
X134856196Y-88299048D03*
X135356196Y-85039048D03*
X135356196Y-88299048D03*
D12*
X135556196Y-86034048D03*
X135556196Y-87304048D03*
D14*
X136000000Y-95500000D03*
X143950000Y-95500000D03*
X136000000Y-100000000D03*
X143950000Y-100000000D03*
D15*
X152847261Y-115705081D03*
X154572261Y-115705081D03*
D16*
X137535635Y-121937760D03*
X135810635Y-121937760D03*
D17*
X238489371Y-119278460D03*
X240539371Y-119278460D03*
D18*
X147000000Y-101000000D03*
D19*
X121712407Y-110048551D03*
X123537407Y-110048551D03*
D20*
X151906336Y-91802774D03*
X151906336Y-90077774D03*
D17*
X238975000Y-97500000D03*
X241025000Y-97500000D03*
D21*
X133725000Y-98087500D03*
X133725000Y-99912500D03*
D17*
X226475000Y-96000000D03*
X228525000Y-96000000D03*
D22*
X166671477Y-106921439D03*
X166671477Y-107421439D03*
X166671477Y-107921439D03*
X166671477Y-108421439D03*
X166671477Y-108921439D03*
D23*
X167396477Y-109146439D03*
X167896477Y-109146439D03*
X168396477Y-109146439D03*
D22*
X169121477Y-108921439D03*
X169121477Y-108421439D03*
X169121477Y-107921439D03*
X169121477Y-107421439D03*
X169121477Y-106921439D03*
D23*
X168396477Y-106696439D03*
X167896477Y-106696439D03*
X167396477Y-106696439D03*
D18*
X129500000Y-115750000D03*
D24*
X181616299Y-97988898D03*
X181616299Y-99888898D03*
X183491299Y-98938898D03*
D19*
X131750000Y-102250000D03*
X133575000Y-102250000D03*
D25*
X133630584Y-107104329D03*
X131805584Y-107104329D03*
D26*
X171133179Y-85884780D03*
X171133179Y-84059780D03*
D15*
X168275000Y-98500000D03*
X170000000Y-98500000D03*
D17*
X259975000Y-118000000D03*
X262025000Y-118000000D03*
D26*
X172829630Y-140429444D03*
X172829630Y-138604444D03*
D21*
X161010000Y-87000000D03*
X161010000Y-88825000D03*
D26*
X172891901Y-134825000D03*
X172891901Y-133000000D03*
D17*
X223475000Y-108500000D03*
X225525000Y-108500000D03*
X227220392Y-121177972D03*
X229270392Y-121177972D03*
D27*
X148394215Y-91812997D03*
D17*
X188975000Y-107500000D03*
X191025000Y-107500000D03*
D28*
X122009140Y-136285051D03*
X122009140Y-138010051D03*
D17*
X183475000Y-84000000D03*
X185525000Y-84000000D03*
D29*
X166597200Y-96825000D03*
X165775000Y-96825000D03*
D30*
X163862800Y-97662500D03*
D29*
X165775000Y-98500000D03*
X166597200Y-98500000D03*
D24*
X176062500Y-83050000D03*
X176062500Y-84950000D03*
X177937500Y-84000000D03*
D31*
X158589541Y-92856990D03*
X158589541Y-90806990D03*
D20*
X133081196Y-83488957D03*
X133081196Y-81763957D03*
D16*
X137574547Y-115697983D03*
X135849547Y-115697983D03*
D18*
X128000000Y-115750000D03*
D17*
X254475000Y-77000000D03*
X256525000Y-77000000D03*
X199629790Y-119364524D03*
X201679790Y-119364524D03*
D24*
X177125000Y-133550000D03*
X177125000Y-135450000D03*
X179000000Y-134500000D03*
D21*
X144750000Y-136750000D03*
X144750000Y-138575000D03*
D24*
X177201174Y-137770048D03*
X177201174Y-139670048D03*
X179076174Y-138720048D03*
D26*
X176633710Y-104912500D03*
X176633710Y-103087500D03*
D17*
X216000000Y-108500000D03*
X218050000Y-108500000D03*
D31*
X144770877Y-142588376D03*
X144770877Y-140538376D03*
D24*
X176026096Y-77110791D03*
X176026096Y-79010791D03*
X177901096Y-78060791D03*
D17*
X211787206Y-121425894D03*
X213837206Y-121425894D03*
D25*
X136576618Y-83476992D03*
X134751618Y-83476992D03*
D19*
X160000000Y-113000000D03*
X161825000Y-113000000D03*
D28*
X170182981Y-110624258D03*
X170182981Y-112349258D03*
D15*
X133775000Y-89870914D03*
X135500000Y-89870914D03*
D17*
X199475000Y-139500000D03*
X201525000Y-139500000D03*
D14*
X143721058Y-106967923D03*
X135771058Y-106967923D03*
X143721058Y-102467923D03*
X135771058Y-102467923D03*
D32*
X150632267Y-84450364D03*
X151282267Y-84450364D03*
X151932267Y-84450364D03*
X152582267Y-84450364D03*
X152582267Y-81050364D03*
X151932267Y-81050364D03*
X151282267Y-81050364D03*
X150632267Y-81050364D03*
D28*
X120377782Y-136286282D03*
X120377782Y-138011282D03*
D25*
X128162500Y-108570167D03*
X126337500Y-108570167D03*
D17*
X233530918Y-108276892D03*
X235580918Y-108276892D03*
D16*
X137541190Y-120325651D03*
X135816190Y-120325651D03*
D15*
X159547416Y-104880682D03*
X161272416Y-104880682D03*
D28*
X125397471Y-136289045D03*
X125397471Y-138014045D03*
D26*
X123626843Y-138059983D03*
X123626843Y-136234983D03*
X176663601Y-113187296D03*
X176663601Y-111362296D03*
D33*
X122451214Y-134813954D03*
X123136214Y-134813954D03*
X123821214Y-134813954D03*
X124506214Y-134813954D03*
X125191214Y-134813954D03*
X126081214Y-132813954D03*
X125401214Y-132813954D03*
X124401214Y-132813954D03*
X123751214Y-132813954D03*
D34*
X122586214Y-132813954D03*
D17*
X200299181Y-97274615D03*
X202349181Y-97274615D03*
D21*
X147250000Y-136675000D03*
X147250000Y-138500000D03*
D26*
X176703799Y-99113898D03*
X176703799Y-97288898D03*
D20*
X140229105Y-112307588D03*
X140229105Y-110582588D03*
D24*
X181616299Y-112113898D03*
X181616299Y-114013898D03*
X183491299Y-113063898D03*
D26*
X176656301Y-118343785D03*
X176656301Y-116518785D03*
D19*
X157000000Y-110500000D03*
X158825000Y-110500000D03*
D17*
X212475000Y-96500000D03*
X214525000Y-96500000D03*
X236975000Y-81000000D03*
X239025000Y-81000000D03*
D18*
X131000000Y-115750000D03*
D28*
X127000000Y-136275000D03*
X127000000Y-138000000D03*
X142500000Y-126775000D03*
X142500000Y-128500000D03*
D24*
X181600611Y-116101075D03*
X181600611Y-118001075D03*
X183475611Y-117051075D03*
D26*
X171000000Y-78325000D03*
X171000000Y-76500000D03*
D17*
X182975000Y-130000000D03*
X185025000Y-130000000D03*
X219506118Y-130103187D03*
X221556118Y-130103187D03*
D31*
X147255159Y-142513376D03*
X147255159Y-140463376D03*
D28*
X168597824Y-110609753D03*
X168597824Y-112334753D03*
D19*
X121675000Y-113000000D03*
X123500000Y-113000000D03*
D26*
X167008476Y-112363471D03*
X167008476Y-110538471D03*
D35*
X156500000Y-104000000D03*
X156500000Y-104500000D03*
X156500000Y-105000000D03*
X158000000Y-105000000D03*
X158000000Y-104500000D03*
X158000000Y-104000000D03*
D26*
X151893596Y-88323728D03*
X151893596Y-86498728D03*
D16*
X137172158Y-113979227D03*
X138897158Y-113979227D03*
D26*
X148839788Y-88295996D03*
X148839788Y-86470996D03*
D28*
X150259409Y-125326240D03*
X150259409Y-127051240D03*
D17*
X256000000Y-99500000D03*
X258050000Y-99500000D03*
X246000000Y-137500000D03*
X248050000Y-137500000D03*
D15*
X133775000Y-91500000D03*
X135500000Y-91500000D03*
D17*
X202950000Y-76500000D03*
X205000000Y-76500000D03*
D21*
X158500000Y-87000000D03*
X158500000Y-88825000D03*
D20*
X131415924Y-84554339D03*
X131415924Y-82829339D03*
D36*
X130581196Y-88798390D03*
D37*
X130581196Y-86258390D03*
D19*
X134756196Y-81799037D03*
X136581196Y-81799037D03*
D31*
X161046595Y-92838376D03*
X161046595Y-90788376D03*
D17*
X204596760Y-108356758D03*
X206646760Y-108356758D03*
X219500000Y-87000000D03*
X221550000Y-87000000D03*
D24*
X181625000Y-102371013D03*
X181625000Y-104271013D03*
X183500000Y-103321013D03*
D15*
X166976620Y-100195690D03*
X168701620Y-100195690D03*
D38*
X139582934Y-115388726D03*
X139582934Y-115888726D03*
X139582934Y-116388726D03*
X139582934Y-116888726D03*
X139582934Y-117388726D03*
X139582934Y-117888726D03*
X139582934Y-118388726D03*
X139582934Y-118888726D03*
X139582934Y-119388726D03*
X139582934Y-119888726D03*
X139582934Y-120388726D03*
X139582934Y-120888726D03*
X139582934Y-121388726D03*
X139582934Y-121888726D03*
X139582934Y-122388726D03*
X139582934Y-122888726D03*
D39*
X141507934Y-124813726D03*
X142007934Y-124813726D03*
X142507934Y-124813726D03*
X143007934Y-124813726D03*
X143507934Y-124813726D03*
X144007934Y-124813726D03*
X144507934Y-124813726D03*
X145007934Y-124813726D03*
X145507934Y-124813726D03*
X146007934Y-124813726D03*
X146507934Y-124813726D03*
X147007934Y-124813726D03*
X147507934Y-124813726D03*
X148007934Y-124813726D03*
X148507934Y-124813726D03*
X149007934Y-124813726D03*
D38*
X150932934Y-122888726D03*
X150932934Y-122388726D03*
X150932934Y-121888726D03*
X150932934Y-121388726D03*
X150932934Y-120888726D03*
X150932934Y-120388726D03*
X150932934Y-119888726D03*
X150932934Y-119388726D03*
X150932934Y-118888726D03*
X150932934Y-118388726D03*
X150932934Y-117888726D03*
X150932934Y-117388726D03*
X150932934Y-116888726D03*
X150932934Y-116388726D03*
X150932934Y-115888726D03*
X150932934Y-115388726D03*
D39*
X149007934Y-113463726D03*
X148507934Y-113463726D03*
X148007934Y-113463726D03*
X147507934Y-113463726D03*
X147007934Y-113463726D03*
X146507934Y-113463726D03*
X146007934Y-113463726D03*
X145507934Y-113463726D03*
X145007934Y-113463726D03*
X144507934Y-113463726D03*
X144007934Y-113463726D03*
X143507934Y-113463726D03*
X143007934Y-113463726D03*
X142507934Y-113463726D03*
X142007934Y-113463726D03*
X141507934Y-113463726D03*
M02*
