G04 #@! TF.GenerationSoftware,KiCad,Pcbnew,8.0.2-8.0.2-0~ubuntu22.04.1*
G04 #@! TF.CreationDate,2024-05-15T13:26:14-04:00*
G04 #@! TF.ProjectId,holiday-widget,686f6c69-6461-4792-9d77-69646765742e,1.0*
G04 #@! TF.SameCoordinates,Original*
G04 #@! TF.FileFunction,Legend,Top*
G04 #@! TF.FilePolarity,Positive*
%FSLAX46Y46*%
G04 Gerber Fmt 4.6, Leading zero omitted, Abs format (unit mm)*
G04 Created by KiCad (PCBNEW 8.0.2-8.0.2-0~ubuntu22.04.1) date 2024-05-15 13:26:14*
%MOMM*%
%LPD*%
G01*
G04 APERTURE LIST*
G04 Aperture macros list*
%AMRoundRect*
0 Rectangle with rounded corners*
0 $1 Rounding radius*
0 $2 $3 $4 $5 $6 $7 $8 $9 X,Y pos of 4 corners*
0 Add a 4 corners polygon primitive as box body*
4,1,4,$2,$3,$4,$5,$6,$7,$8,$9,$2,$3,0*
0 Add four circle primitives for the rounded corners*
1,1,$1+$1,$2,$3*
1,1,$1+$1,$4,$5*
1,1,$1+$1,$6,$7*
1,1,$1+$1,$8,$9*
0 Add four rect primitives between the rounded corners*
20,1,$1+$1,$2,$3,$4,$5,0*
20,1,$1+$1,$4,$5,$6,$7,0*
20,1,$1+$1,$6,$7,$8,$9,0*
20,1,$1+$1,$8,$9,$2,$3,0*%
%AMFreePoly0*
4,1,51,0.911569,0.773019,1.138152,0.657569,1.317969,0.477752,1.433419,0.251169,1.462091,0.070138,1.470107,0.070840,1.473200,0.000000,1.470107,-0.070840,1.462091,-0.070138,1.433419,-0.251169,1.317969,-0.477752,1.138152,-0.657569,0.911569,-0.773019,0.660400,-0.812800,0.409231,-0.773019,0.182648,-0.657569,0.002831,-0.477752,-0.112619,-0.251169,-0.141291,-0.070138,-0.149307,-0.070840,
-0.152400,0.000000,0.152400,0.000000,0.177263,-0.156981,0.249420,-0.298595,0.361805,-0.410981,0.503420,-0.483137,0.660400,-0.508000,0.817381,-0.483137,0.958995,-0.410981,1.071381,-0.298595,1.143537,-0.156981,1.168400,0.000000,1.143537,0.156981,1.071381,0.298595,0.958995,0.410981,0.817381,0.483137,0.660400,0.508000,0.503420,0.483137,0.361805,0.410981,0.249420,0.298595,
0.177263,0.156981,0.152400,0.000000,-0.152400,0.000000,-0.149307,0.070840,-0.141291,0.070138,-0.112619,0.251169,0.002831,0.477752,0.182648,0.657569,0.409231,0.773019,0.660400,0.812800,0.911569,0.773019,0.911569,0.773019,$1*%
%AMFreePoly1*
4,1,11,0.760000,0.825000,0.380000,0.510000,0.380000,-0.510000,0.760000,-0.825000,0.760000,-1.525000,-0.125000,-1.525000,-0.380000,-1.270000,-0.380000,1.270000,-0.125000,1.525000,0.760000,1.525000,0.760000,0.825000,0.760000,0.825000,$1*%
G04 Aperture macros list end*
%ADD10C,0.300000*%
%ADD11C,0.200000*%
%ADD12C,0.250000*%
%ADD13C,0.120000*%
%ADD14C,0.152400*%
%ADD15C,0.100000*%
%ADD16R,0.280000X0.280000*%
%ADD17O,0.850000X0.280000*%
%ADD18C,0.600000*%
%ADD19R,0.680000X1.050000*%
%ADD20R,0.260000X0.500000*%
%ADD21R,0.280000X0.700000*%
%ADD22R,1.650000X2.400000*%
%ADD23R,1.550000X1.300000*%
%ADD24RoundRect,0.237500X-0.300000X-0.237500X0.300000X-0.237500X0.300000X0.237500X-0.300000X0.237500X0*%
%ADD25RoundRect,0.237500X0.300000X0.237500X-0.300000X0.237500X-0.300000X-0.237500X0.300000X-0.237500X0*%
%ADD26R,1.000000X1.000000*%
%ADD27O,1.000000X1.000000*%
%ADD28RoundRect,0.250000X-0.325000X-0.450000X0.325000X-0.450000X0.325000X0.450000X-0.325000X0.450000X0*%
%ADD29RoundRect,0.250000X1.125000X1.125000X-1.125000X1.125000X-1.125000X-1.125000X1.125000X-1.125000X0*%
%ADD30C,2.750000*%
%ADD31RoundRect,0.125000X-0.125000X-0.375000X0.125000X-0.375000X0.125000X0.375000X-0.125000X0.375000X0*%
%ADD32RoundRect,0.237500X-0.250000X-0.237500X0.250000X-0.237500X0.250000X0.237500X-0.250000X0.237500X0*%
%ADD33RoundRect,0.237500X0.237500X-0.300000X0.237500X0.300000X-0.237500X0.300000X-0.237500X-0.300000X0*%
%ADD34RoundRect,0.237500X-0.237500X0.250000X-0.237500X-0.250000X0.237500X-0.250000X0.237500X0.250000X0*%
%ADD35RoundRect,0.087500X-0.187500X-0.087500X0.187500X-0.087500X0.187500X0.087500X-0.187500X0.087500X0*%
%ADD36RoundRect,0.087500X-0.087500X-0.187500X0.087500X-0.187500X0.087500X0.187500X-0.087500X0.187500X0*%
%ADD37RoundRect,0.150000X-0.587500X-0.150000X0.587500X-0.150000X0.587500X0.150000X-0.587500X0.150000X0*%
%ADD38RoundRect,0.237500X0.250000X0.237500X-0.250000X0.237500X-0.250000X-0.237500X0.250000X-0.237500X0*%
%ADD39RoundRect,0.237500X0.237500X-0.250000X0.237500X0.250000X-0.237500X0.250000X-0.237500X-0.250000X0*%
%ADD40RoundRect,0.250000X1.125000X-1.125000X1.125000X1.125000X-1.125000X1.125000X-1.125000X-1.125000X0*%
%ADD41RoundRect,0.125000X0.375000X-0.125000X0.375000X0.125000X-0.375000X0.125000X-0.375000X-0.125000X0*%
%ADD42RoundRect,0.237500X-0.237500X0.300000X-0.237500X-0.300000X0.237500X-0.300000X0.237500X0.300000X0*%
%ADD43C,0.500000*%
%ADD44R,0.533400X0.736600*%
%ADD45FreePoly0,0.000000*%
%ADD46RoundRect,0.250000X0.450000X-0.325000X0.450000X0.325000X-0.450000X0.325000X-0.450000X-0.325000X0*%
%ADD47C,2.600000*%
%ADD48C,3.800000*%
%ADD49R,1.500000X1.000000*%
%ADD50R,0.300000X1.600000*%
%ADD51RoundRect,0.100000X-0.100000X-0.300000X0.100000X-0.300000X0.100000X0.300000X-0.100000X0.300000X0*%
%ADD52RoundRect,0.200000X-0.215000X-0.200000X0.215000X-0.200000X0.215000X0.200000X-0.215000X0.200000X0*%
%ADD53RoundRect,0.085000X-0.265000X-0.085000X0.265000X-0.085000X0.265000X0.085000X-0.265000X0.085000X0*%
%ADD54FreePoly1,90.000000*%
%ADD55FreePoly1,270.000000*%
%ADD56O,1.300000X4.600000*%
%ADD57O,1.300000X2.800000*%
%ADD58RoundRect,0.075000X-0.700000X-0.075000X0.700000X-0.075000X0.700000X0.075000X-0.700000X0.075000X0*%
%ADD59RoundRect,0.075000X-0.075000X-0.700000X0.075000X-0.700000X0.075000X0.700000X-0.075000X0.700000X0*%
G04 APERTURE END LIST*
D10*
X117118856Y-133065686D02*
X118333142Y-133065686D01*
X118333142Y-133065686D02*
X118475999Y-132994257D01*
X118475999Y-132994257D02*
X118547428Y-132922829D01*
X118547428Y-132922829D02*
X118618856Y-132779971D01*
X118618856Y-132779971D02*
X118618856Y-132494257D01*
X118618856Y-132494257D02*
X118547428Y-132351400D01*
X118547428Y-132351400D02*
X118475999Y-132279971D01*
X118475999Y-132279971D02*
X118333142Y-132208543D01*
X118333142Y-132208543D02*
X117118856Y-132208543D01*
X118190285Y-131565685D02*
X118190285Y-130851400D01*
X118618856Y-131708542D02*
X117118856Y-131208542D01*
X117118856Y-131208542D02*
X118618856Y-130708542D01*
X118618856Y-129351400D02*
X117904570Y-129851400D01*
X118618856Y-130208543D02*
X117118856Y-130208543D01*
X117118856Y-130208543D02*
X117118856Y-129637114D01*
X117118856Y-129637114D02*
X117190285Y-129494257D01*
X117190285Y-129494257D02*
X117261713Y-129422828D01*
X117261713Y-129422828D02*
X117404570Y-129351400D01*
X117404570Y-129351400D02*
X117618856Y-129351400D01*
X117618856Y-129351400D02*
X117761713Y-129422828D01*
X117761713Y-129422828D02*
X117833142Y-129494257D01*
X117833142Y-129494257D02*
X117904570Y-129637114D01*
X117904570Y-129637114D02*
X117904570Y-130208543D01*
X117118856Y-128922828D02*
X117118856Y-128065686D01*
X118618856Y-128494257D02*
X117118856Y-128494257D01*
D11*
X120554742Y-123238341D02*
X119983314Y-123238341D01*
X120269028Y-123238341D02*
X120269028Y-122238341D01*
X120269028Y-122238341D02*
X120173790Y-122381198D01*
X120173790Y-122381198D02*
X120078552Y-122476436D01*
X120078552Y-122476436D02*
X119983314Y-122524055D01*
X163143482Y-144117219D02*
X162572054Y-144117219D01*
X162857768Y-144117219D02*
X162857768Y-143117219D01*
X162857768Y-143117219D02*
X162762530Y-143260076D01*
X162762530Y-143260076D02*
X162667292Y-143355314D01*
X162667292Y-143355314D02*
X162572054Y-143402933D01*
D10*
X163857511Y-125445489D02*
X162357511Y-125445489D01*
X162500368Y-124802631D02*
X162428940Y-124731203D01*
X162428940Y-124731203D02*
X162357511Y-124588346D01*
X162357511Y-124588346D02*
X162357511Y-124231203D01*
X162357511Y-124231203D02*
X162428940Y-124088346D01*
X162428940Y-124088346D02*
X162500368Y-124016917D01*
X162500368Y-124016917D02*
X162643225Y-123945488D01*
X162643225Y-123945488D02*
X162786083Y-123945488D01*
X162786083Y-123945488D02*
X163000368Y-124016917D01*
X163000368Y-124016917D02*
X163857511Y-124874060D01*
X163857511Y-124874060D02*
X163857511Y-123945488D01*
X163714654Y-122445489D02*
X163786083Y-122516917D01*
X163786083Y-122516917D02*
X163857511Y-122731203D01*
X163857511Y-122731203D02*
X163857511Y-122874060D01*
X163857511Y-122874060D02*
X163786083Y-123088346D01*
X163786083Y-123088346D02*
X163643225Y-123231203D01*
X163643225Y-123231203D02*
X163500368Y-123302632D01*
X163500368Y-123302632D02*
X163214654Y-123374060D01*
X163214654Y-123374060D02*
X163000368Y-123374060D01*
X163000368Y-123374060D02*
X162714654Y-123302632D01*
X162714654Y-123302632D02*
X162571797Y-123231203D01*
X162571797Y-123231203D02*
X162428940Y-123088346D01*
X162428940Y-123088346D02*
X162357511Y-122874060D01*
X162357511Y-122874060D02*
X162357511Y-122731203D01*
X162357511Y-122731203D02*
X162428940Y-122516917D01*
X162428940Y-122516917D02*
X162500368Y-122445489D01*
D11*
X115339334Y-111986660D02*
X114767906Y-111986660D01*
X115053620Y-111986660D02*
X115053620Y-110986660D01*
X115053620Y-110986660D02*
X114958382Y-111129517D01*
X114958382Y-111129517D02*
X114863144Y-111224755D01*
X114863144Y-111224755D02*
X114767906Y-111272374D01*
D10*
X120565902Y-103814273D02*
X121065902Y-105314273D01*
X121065902Y-105314273D02*
X121565902Y-103814273D01*
X122065901Y-105314273D02*
X122065901Y-103814273D01*
X122065901Y-103814273D02*
X122423044Y-103814273D01*
X122423044Y-103814273D02*
X122637330Y-103885702D01*
X122637330Y-103885702D02*
X122780187Y-104028559D01*
X122780187Y-104028559D02*
X122851616Y-104171416D01*
X122851616Y-104171416D02*
X122923044Y-104457130D01*
X122923044Y-104457130D02*
X122923044Y-104671416D01*
X122923044Y-104671416D02*
X122851616Y-104957130D01*
X122851616Y-104957130D02*
X122780187Y-105099987D01*
X122780187Y-105099987D02*
X122637330Y-105242845D01*
X122637330Y-105242845D02*
X122423044Y-105314273D01*
X122423044Y-105314273D02*
X122065901Y-105314273D01*
X124423044Y-105171416D02*
X124351616Y-105242845D01*
X124351616Y-105242845D02*
X124137330Y-105314273D01*
X124137330Y-105314273D02*
X123994473Y-105314273D01*
X123994473Y-105314273D02*
X123780187Y-105242845D01*
X123780187Y-105242845D02*
X123637330Y-105099987D01*
X123637330Y-105099987D02*
X123565901Y-104957130D01*
X123565901Y-104957130D02*
X123494473Y-104671416D01*
X123494473Y-104671416D02*
X123494473Y-104457130D01*
X123494473Y-104457130D02*
X123565901Y-104171416D01*
X123565901Y-104171416D02*
X123637330Y-104028559D01*
X123637330Y-104028559D02*
X123780187Y-103885702D01*
X123780187Y-103885702D02*
X123994473Y-103814273D01*
X123994473Y-103814273D02*
X124137330Y-103814273D01*
X124137330Y-103814273D02*
X124351616Y-103885702D01*
X124351616Y-103885702D02*
X124423044Y-103957130D01*
X124708759Y-105457130D02*
X125851616Y-105457130D01*
X126208758Y-104528559D02*
X126708758Y-104528559D01*
X126923044Y-105314273D02*
X126208758Y-105314273D01*
X126208758Y-105314273D02*
X126208758Y-103814273D01*
X126208758Y-103814273D02*
X126923044Y-103814273D01*
X127423044Y-103814273D02*
X128423044Y-105314273D01*
X128423044Y-103814273D02*
X127423044Y-105314273D01*
X128994472Y-104742845D02*
X130137330Y-104742845D01*
X129565901Y-105314273D02*
X129565901Y-104171416D01*
D12*
X145985901Y-104590809D02*
X146128758Y-104638428D01*
X146128758Y-104638428D02*
X146176377Y-104686047D01*
X146176377Y-104686047D02*
X146223996Y-104781285D01*
X146223996Y-104781285D02*
X146223996Y-104924142D01*
X146223996Y-104924142D02*
X146176377Y-105019380D01*
X146176377Y-105019380D02*
X146128758Y-105067000D01*
X146128758Y-105067000D02*
X146033520Y-105114619D01*
X146033520Y-105114619D02*
X145652568Y-105114619D01*
X145652568Y-105114619D02*
X145652568Y-104114619D01*
X145652568Y-104114619D02*
X145985901Y-104114619D01*
X145985901Y-104114619D02*
X146081139Y-104162238D01*
X146081139Y-104162238D02*
X146128758Y-104209857D01*
X146128758Y-104209857D02*
X146176377Y-104305095D01*
X146176377Y-104305095D02*
X146176377Y-104400333D01*
X146176377Y-104400333D02*
X146128758Y-104495571D01*
X146128758Y-104495571D02*
X146081139Y-104543190D01*
X146081139Y-104543190D02*
X145985901Y-104590809D01*
X145985901Y-104590809D02*
X145652568Y-104590809D01*
X146843044Y-104114619D02*
X147033520Y-104114619D01*
X147033520Y-104114619D02*
X147128758Y-104162238D01*
X147128758Y-104162238D02*
X147223996Y-104257476D01*
X147223996Y-104257476D02*
X147271615Y-104447952D01*
X147271615Y-104447952D02*
X147271615Y-104781285D01*
X147271615Y-104781285D02*
X147223996Y-104971761D01*
X147223996Y-104971761D02*
X147128758Y-105067000D01*
X147128758Y-105067000D02*
X147033520Y-105114619D01*
X147033520Y-105114619D02*
X146843044Y-105114619D01*
X146843044Y-105114619D02*
X146747806Y-105067000D01*
X146747806Y-105067000D02*
X146652568Y-104971761D01*
X146652568Y-104971761D02*
X146604949Y-104781285D01*
X146604949Y-104781285D02*
X146604949Y-104447952D01*
X146604949Y-104447952D02*
X146652568Y-104257476D01*
X146652568Y-104257476D02*
X146747806Y-104162238D01*
X146747806Y-104162238D02*
X146843044Y-104114619D01*
X147890663Y-104114619D02*
X148081139Y-104114619D01*
X148081139Y-104114619D02*
X148176377Y-104162238D01*
X148176377Y-104162238D02*
X148271615Y-104257476D01*
X148271615Y-104257476D02*
X148319234Y-104447952D01*
X148319234Y-104447952D02*
X148319234Y-104781285D01*
X148319234Y-104781285D02*
X148271615Y-104971761D01*
X148271615Y-104971761D02*
X148176377Y-105067000D01*
X148176377Y-105067000D02*
X148081139Y-105114619D01*
X148081139Y-105114619D02*
X147890663Y-105114619D01*
X147890663Y-105114619D02*
X147795425Y-105067000D01*
X147795425Y-105067000D02*
X147700187Y-104971761D01*
X147700187Y-104971761D02*
X147652568Y-104781285D01*
X147652568Y-104781285D02*
X147652568Y-104447952D01*
X147652568Y-104447952D02*
X147700187Y-104257476D01*
X147700187Y-104257476D02*
X147795425Y-104162238D01*
X147795425Y-104162238D02*
X147890663Y-104114619D01*
X148604949Y-104114619D02*
X149176377Y-104114619D01*
X148890663Y-105114619D02*
X148890663Y-104114619D01*
D11*
X135475147Y-133503878D02*
X134903719Y-133503878D01*
X135189433Y-133503878D02*
X135189433Y-132503878D01*
X135189433Y-132503878D02*
X135094195Y-132646735D01*
X135094195Y-132646735D02*
X134998957Y-132741973D01*
X134998957Y-132741973D02*
X134903719Y-132789592D01*
D10*
X140729400Y-139016917D02*
X140800828Y-138802632D01*
X140800828Y-138802632D02*
X140800828Y-138445489D01*
X140800828Y-138445489D02*
X140729400Y-138302632D01*
X140729400Y-138302632D02*
X140657971Y-138231203D01*
X140657971Y-138231203D02*
X140515114Y-138159774D01*
X140515114Y-138159774D02*
X140372257Y-138159774D01*
X140372257Y-138159774D02*
X140229400Y-138231203D01*
X140229400Y-138231203D02*
X140157971Y-138302632D01*
X140157971Y-138302632D02*
X140086542Y-138445489D01*
X140086542Y-138445489D02*
X140015114Y-138731203D01*
X140015114Y-138731203D02*
X139943685Y-138874060D01*
X139943685Y-138874060D02*
X139872257Y-138945489D01*
X139872257Y-138945489D02*
X139729400Y-139016917D01*
X139729400Y-139016917D02*
X139586542Y-139016917D01*
X139586542Y-139016917D02*
X139443685Y-138945489D01*
X139443685Y-138945489D02*
X139372257Y-138874060D01*
X139372257Y-138874060D02*
X139300828Y-138731203D01*
X139300828Y-138731203D02*
X139300828Y-138374060D01*
X139300828Y-138374060D02*
X139372257Y-138159774D01*
X140800828Y-137516918D02*
X139300828Y-137516918D01*
X139300828Y-137516918D02*
X139300828Y-136945489D01*
X139300828Y-136945489D02*
X139372257Y-136802632D01*
X139372257Y-136802632D02*
X139443685Y-136731203D01*
X139443685Y-136731203D02*
X139586542Y-136659775D01*
X139586542Y-136659775D02*
X139800828Y-136659775D01*
X139800828Y-136659775D02*
X139943685Y-136731203D01*
X139943685Y-136731203D02*
X140015114Y-136802632D01*
X140015114Y-136802632D02*
X140086542Y-136945489D01*
X140086542Y-136945489D02*
X140086542Y-137516918D01*
X140800828Y-136016918D02*
X139300828Y-136016918D01*
X121506121Y-98385874D02*
X121363264Y-98314445D01*
X121363264Y-98314445D02*
X121148978Y-98314445D01*
X121148978Y-98314445D02*
X120934692Y-98385874D01*
X120934692Y-98385874D02*
X120791835Y-98528731D01*
X120791835Y-98528731D02*
X120720406Y-98671588D01*
X120720406Y-98671588D02*
X120648978Y-98957302D01*
X120648978Y-98957302D02*
X120648978Y-99171588D01*
X120648978Y-99171588D02*
X120720406Y-99457302D01*
X120720406Y-99457302D02*
X120791835Y-99600159D01*
X120791835Y-99600159D02*
X120934692Y-99743017D01*
X120934692Y-99743017D02*
X121148978Y-99814445D01*
X121148978Y-99814445D02*
X121291835Y-99814445D01*
X121291835Y-99814445D02*
X121506121Y-99743017D01*
X121506121Y-99743017D02*
X121577549Y-99671588D01*
X121577549Y-99671588D02*
X121577549Y-99171588D01*
X121577549Y-99171588D02*
X121291835Y-99171588D01*
X122220406Y-99814445D02*
X122220406Y-98314445D01*
X122220406Y-98314445D02*
X123077549Y-99814445D01*
X123077549Y-99814445D02*
X123077549Y-98314445D01*
X123791835Y-99814445D02*
X123791835Y-98314445D01*
X123791835Y-98314445D02*
X124148978Y-98314445D01*
X124148978Y-98314445D02*
X124363264Y-98385874D01*
X124363264Y-98385874D02*
X124506121Y-98528731D01*
X124506121Y-98528731D02*
X124577550Y-98671588D01*
X124577550Y-98671588D02*
X124648978Y-98957302D01*
X124648978Y-98957302D02*
X124648978Y-99171588D01*
X124648978Y-99171588D02*
X124577550Y-99457302D01*
X124577550Y-99457302D02*
X124506121Y-99600159D01*
X124506121Y-99600159D02*
X124363264Y-99743017D01*
X124363264Y-99743017D02*
X124148978Y-99814445D01*
X124148978Y-99814445D02*
X123791835Y-99814445D01*
D12*
X120335984Y-84006281D02*
X120669317Y-84006281D01*
X120812174Y-84530091D02*
X120335984Y-84530091D01*
X120335984Y-84530091D02*
X120335984Y-83530091D01*
X120335984Y-83530091D02*
X120812174Y-83530091D01*
X121145508Y-83530091D02*
X121812174Y-84530091D01*
X121812174Y-83530091D02*
X121145508Y-84530091D01*
X122050270Y-83530091D02*
X122621698Y-83530091D01*
X122335984Y-84530091D02*
X122335984Y-83530091D01*
X120548233Y-81221357D02*
X120691090Y-81268976D01*
X120691090Y-81268976D02*
X120738709Y-81316595D01*
X120738709Y-81316595D02*
X120786328Y-81411833D01*
X120786328Y-81411833D02*
X120786328Y-81554690D01*
X120786328Y-81554690D02*
X120738709Y-81649928D01*
X120738709Y-81649928D02*
X120691090Y-81697548D01*
X120691090Y-81697548D02*
X120595852Y-81745167D01*
X120595852Y-81745167D02*
X120214900Y-81745167D01*
X120214900Y-81745167D02*
X120214900Y-80745167D01*
X120214900Y-80745167D02*
X120548233Y-80745167D01*
X120548233Y-80745167D02*
X120643471Y-80792786D01*
X120643471Y-80792786D02*
X120691090Y-80840405D01*
X120691090Y-80840405D02*
X120738709Y-80935643D01*
X120738709Y-80935643D02*
X120738709Y-81030881D01*
X120738709Y-81030881D02*
X120691090Y-81126119D01*
X120691090Y-81126119D02*
X120643471Y-81173738D01*
X120643471Y-81173738D02*
X120548233Y-81221357D01*
X120548233Y-81221357D02*
X120214900Y-81221357D01*
X121167281Y-81459452D02*
X121643471Y-81459452D01*
X121072043Y-81745167D02*
X121405376Y-80745167D01*
X121405376Y-80745167D02*
X121738709Y-81745167D01*
X121929186Y-80745167D02*
X122500614Y-80745167D01*
X122214900Y-81745167D02*
X122214900Y-80745167D01*
X146155874Y-98174793D02*
X145822541Y-97698602D01*
X145584446Y-98174793D02*
X145584446Y-97174793D01*
X145584446Y-97174793D02*
X145965398Y-97174793D01*
X145965398Y-97174793D02*
X146060636Y-97222412D01*
X146060636Y-97222412D02*
X146108255Y-97270031D01*
X146108255Y-97270031D02*
X146155874Y-97365269D01*
X146155874Y-97365269D02*
X146155874Y-97508126D01*
X146155874Y-97508126D02*
X146108255Y-97603364D01*
X146108255Y-97603364D02*
X146060636Y-97650983D01*
X146060636Y-97650983D02*
X145965398Y-97698602D01*
X145965398Y-97698602D02*
X145584446Y-97698602D01*
X146584446Y-97650983D02*
X146917779Y-97650983D01*
X147060636Y-98174793D02*
X146584446Y-98174793D01*
X146584446Y-98174793D02*
X146584446Y-97174793D01*
X146584446Y-97174793D02*
X147060636Y-97174793D01*
X147441589Y-98127174D02*
X147584446Y-98174793D01*
X147584446Y-98174793D02*
X147822541Y-98174793D01*
X147822541Y-98174793D02*
X147917779Y-98127174D01*
X147917779Y-98127174D02*
X147965398Y-98079554D01*
X147965398Y-98079554D02*
X148013017Y-97984316D01*
X148013017Y-97984316D02*
X148013017Y-97889078D01*
X148013017Y-97889078D02*
X147965398Y-97793840D01*
X147965398Y-97793840D02*
X147917779Y-97746221D01*
X147917779Y-97746221D02*
X147822541Y-97698602D01*
X147822541Y-97698602D02*
X147632065Y-97650983D01*
X147632065Y-97650983D02*
X147536827Y-97603364D01*
X147536827Y-97603364D02*
X147489208Y-97555745D01*
X147489208Y-97555745D02*
X147441589Y-97460507D01*
X147441589Y-97460507D02*
X147441589Y-97365269D01*
X147441589Y-97365269D02*
X147489208Y-97270031D01*
X147489208Y-97270031D02*
X147536827Y-97222412D01*
X147536827Y-97222412D02*
X147632065Y-97174793D01*
X147632065Y-97174793D02*
X147870160Y-97174793D01*
X147870160Y-97174793D02*
X148013017Y-97222412D01*
X148441589Y-97650983D02*
X148774922Y-97650983D01*
X148917779Y-98174793D02*
X148441589Y-98174793D01*
X148441589Y-98174793D02*
X148441589Y-97174793D01*
X148441589Y-97174793D02*
X148917779Y-97174793D01*
X149203494Y-97174793D02*
X149774922Y-97174793D01*
X149489208Y-98174793D02*
X149489208Y-97174793D01*
D11*
X168581938Y-122421620D02*
X168010510Y-122421620D01*
X168296224Y-122421620D02*
X168296224Y-121421620D01*
X168296224Y-121421620D02*
X168200986Y-121564477D01*
X168200986Y-121564477D02*
X168105748Y-121659715D01*
X168105748Y-121659715D02*
X168010510Y-121707334D01*
D10*
X162622257Y-140159774D02*
X162550828Y-140302632D01*
X162550828Y-140302632D02*
X162550828Y-140516917D01*
X162550828Y-140516917D02*
X162622257Y-140731203D01*
X162622257Y-140731203D02*
X162765114Y-140874060D01*
X162765114Y-140874060D02*
X162907971Y-140945489D01*
X162907971Y-140945489D02*
X163193685Y-141016917D01*
X163193685Y-141016917D02*
X163407971Y-141016917D01*
X163407971Y-141016917D02*
X163693685Y-140945489D01*
X163693685Y-140945489D02*
X163836542Y-140874060D01*
X163836542Y-140874060D02*
X163979400Y-140731203D01*
X163979400Y-140731203D02*
X164050828Y-140516917D01*
X164050828Y-140516917D02*
X164050828Y-140374060D01*
X164050828Y-140374060D02*
X163979400Y-140159774D01*
X163979400Y-140159774D02*
X163907971Y-140088346D01*
X163907971Y-140088346D02*
X163407971Y-140088346D01*
X163407971Y-140088346D02*
X163407971Y-140374060D01*
X164050828Y-139445489D02*
X162550828Y-139445489D01*
X162550828Y-139445489D02*
X162550828Y-138874060D01*
X162550828Y-138874060D02*
X162622257Y-138731203D01*
X162622257Y-138731203D02*
X162693685Y-138659774D01*
X162693685Y-138659774D02*
X162836542Y-138588346D01*
X162836542Y-138588346D02*
X163050828Y-138588346D01*
X163050828Y-138588346D02*
X163193685Y-138659774D01*
X163193685Y-138659774D02*
X163265114Y-138731203D01*
X163265114Y-138731203D02*
X163336542Y-138874060D01*
X163336542Y-138874060D02*
X163336542Y-139445489D01*
X164050828Y-137945489D02*
X162550828Y-137945489D01*
X162550828Y-136945488D02*
X162550828Y-136659774D01*
X162550828Y-136659774D02*
X162622257Y-136516917D01*
X162622257Y-136516917D02*
X162765114Y-136374060D01*
X162765114Y-136374060D02*
X163050828Y-136302631D01*
X163050828Y-136302631D02*
X163550828Y-136302631D01*
X163550828Y-136302631D02*
X163836542Y-136374060D01*
X163836542Y-136374060D02*
X163979400Y-136516917D01*
X163979400Y-136516917D02*
X164050828Y-136659774D01*
X164050828Y-136659774D02*
X164050828Y-136945488D01*
X164050828Y-136945488D02*
X163979400Y-137088346D01*
X163979400Y-137088346D02*
X163836542Y-137231203D01*
X163836542Y-137231203D02*
X163550828Y-137302631D01*
X163550828Y-137302631D02*
X163050828Y-137302631D01*
X163050828Y-137302631D02*
X162765114Y-137231203D01*
X162765114Y-137231203D02*
X162622257Y-137088346D01*
X162622257Y-137088346D02*
X162550828Y-136945488D01*
D13*
X133481196Y-88294048D02*
X133481196Y-88069048D01*
X133481196Y-88294048D02*
X134456196Y-88294048D01*
X133786196Y-85044048D02*
X134456196Y-85044048D01*
X135756196Y-85044048D02*
X136731196Y-85044048D01*
X135756196Y-88294048D02*
X136731196Y-88294048D01*
X136731196Y-85269048D02*
X136731196Y-85044048D01*
X136731196Y-88069048D02*
X136731196Y-88294048D01*
X133266196Y-85249048D02*
X133026196Y-84919048D01*
X133506196Y-84919048D01*
X133266196Y-85249048D01*
G36*
X133266196Y-85249048D02*
G01*
X133026196Y-84919048D01*
X133506196Y-84919048D01*
X133266196Y-85249048D01*
G37*
X136745000Y-94520000D02*
X143205000Y-94520000D01*
X136745000Y-94550000D02*
X136745000Y-94520000D01*
X136745000Y-96450000D02*
X136745000Y-99050000D01*
X136745000Y-100980000D02*
X136745000Y-100950000D01*
X136745000Y-100980000D02*
X143205000Y-100980000D01*
X143205000Y-94520000D02*
X143205000Y-94550000D01*
X143205000Y-96450000D02*
X143205000Y-99050000D01*
X143205000Y-100980000D02*
X143205000Y-100950000D01*
X153563494Y-115195081D02*
X153856028Y-115195081D01*
X153563494Y-116215081D02*
X153856028Y-116215081D01*
X136819402Y-121427760D02*
X136526868Y-121427760D01*
X136819402Y-122447760D02*
X136526868Y-122447760D01*
X159390000Y-142800000D02*
X159390000Y-133975000D01*
X159936529Y-142800000D02*
X159390000Y-142800000D01*
X160192470Y-133975000D02*
X159390000Y-133975000D01*
X161610000Y-133975000D02*
X160807530Y-133975000D01*
X161610000Y-142800000D02*
X161063471Y-142800000D01*
X161610000Y-142800000D02*
X161610000Y-133975000D01*
X161610000Y-143560000D02*
X161610000Y-144320000D01*
X161610000Y-144320000D02*
X160500000Y-144320000D01*
X237654371Y-118318460D02*
X237654371Y-120238460D01*
X237654371Y-120238460D02*
X240514371Y-120238460D01*
X240514371Y-118318460D02*
X237654371Y-118318460D01*
X122370183Y-109526051D02*
X122879631Y-109526051D01*
X122370183Y-110571051D02*
X122879631Y-110571051D01*
X151396336Y-91086541D02*
X151396336Y-90794007D01*
X152416336Y-91086541D02*
X152416336Y-90794007D01*
X238140000Y-96540000D02*
X238140000Y-98460000D01*
X238140000Y-98460000D02*
X241000000Y-98460000D01*
X241000000Y-96540000D02*
X238140000Y-96540000D01*
X133202500Y-98745276D02*
X133202500Y-99254724D01*
X134247500Y-98745276D02*
X134247500Y-99254724D01*
X225640000Y-95040000D02*
X225640000Y-96960000D01*
X225640000Y-96960000D02*
X228500000Y-96960000D01*
X228500000Y-95040000D02*
X225640000Y-95040000D01*
X166286477Y-109531439D02*
X166286477Y-109356439D01*
X166961477Y-106311439D02*
X166586477Y-106311439D01*
X166961477Y-109531439D02*
X166286477Y-109531439D01*
X168831477Y-106311439D02*
X169506477Y-106311439D01*
X168831477Y-109531439D02*
X169506477Y-109531439D01*
X169506477Y-106311439D02*
X169506477Y-106486439D01*
X169506477Y-109531439D02*
X169506477Y-109356439D01*
X166286477Y-106311439D02*
X166146477Y-106121439D01*
X166426477Y-106121439D01*
X166286477Y-106311439D01*
G36*
X166286477Y-106311439D02*
G01*
X166146477Y-106121439D01*
X166426477Y-106121439D01*
X166286477Y-106311439D01*
G37*
X182553799Y-97378898D02*
X181903799Y-97378898D01*
X182553799Y-97378898D02*
X183203799Y-97378898D01*
X182553799Y-100498898D02*
X181903799Y-100498898D01*
X182553799Y-100498898D02*
X183203799Y-100498898D01*
X181391299Y-97428898D02*
X181151299Y-97098898D01*
X181631299Y-97098898D01*
X181391299Y-97428898D01*
G36*
X181391299Y-97428898D02*
G01*
X181151299Y-97098898D01*
X181631299Y-97098898D01*
X181391299Y-97428898D01*
G37*
X132407776Y-101727500D02*
X132917224Y-101727500D01*
X132407776Y-102772500D02*
X132917224Y-102772500D01*
X132972808Y-106581829D02*
X132463360Y-106581829D01*
X132972808Y-107626829D02*
X132463360Y-107626829D01*
X170610679Y-85227004D02*
X170610679Y-84717556D01*
X171655679Y-85227004D02*
X171655679Y-84717556D01*
X168991233Y-97990000D02*
X169283767Y-97990000D01*
X168991233Y-99010000D02*
X169283767Y-99010000D01*
X259140000Y-117040000D02*
X259140000Y-118960000D01*
X259140000Y-118960000D02*
X262000000Y-118960000D01*
X262000000Y-117040000D02*
X259140000Y-117040000D01*
X172307130Y-139771668D02*
X172307130Y-139262220D01*
X173352130Y-139771668D02*
X173352130Y-139262220D01*
X160487500Y-87657776D02*
X160487500Y-88167224D01*
X161532500Y-87657776D02*
X161532500Y-88167224D01*
X172369401Y-134167224D02*
X172369401Y-133657776D01*
X173414401Y-134167224D02*
X173414401Y-133657776D01*
X222640000Y-107540000D02*
X222640000Y-109460000D01*
X222640000Y-109460000D02*
X225500000Y-109460000D01*
X225500000Y-107540000D02*
X222640000Y-107540000D01*
X226385392Y-120217972D02*
X226385392Y-122137972D01*
X226385392Y-122137972D02*
X229245392Y-122137972D01*
X229245392Y-120217972D02*
X226385392Y-120217972D01*
X116765360Y-122272355D02*
X117875360Y-122272355D01*
X116765360Y-123032355D02*
X116765360Y-122272355D01*
X116765360Y-123792355D02*
X116765360Y-127537355D01*
X116765360Y-123792355D02*
X117311889Y-123792355D01*
X116765360Y-127537355D02*
X117567830Y-127537355D01*
X118182890Y-127537355D02*
X118985360Y-127537355D01*
X118438831Y-123792355D02*
X118985360Y-123792355D01*
X118985360Y-123792355D02*
X118985360Y-127537355D01*
X188140000Y-106540000D02*
X188140000Y-108460000D01*
X188140000Y-108460000D02*
X191000000Y-108460000D01*
X191000000Y-106540000D02*
X188140000Y-106540000D01*
X121499140Y-137001284D02*
X121499140Y-137293818D01*
X122519140Y-137001284D02*
X122519140Y-137293818D01*
X182640000Y-83040000D02*
X182640000Y-84960000D01*
X182640000Y-84960000D02*
X185500000Y-84960000D01*
X185500000Y-83040000D02*
X182640000Y-83040000D01*
D14*
X163306200Y-96163900D02*
X163306200Y-99161100D01*
X163306200Y-99161100D02*
X165226360Y-99161100D01*
X165226360Y-96163900D02*
X163306200Y-96163900D01*
X167167000Y-96319418D02*
X167167000Y-96163900D01*
X167167000Y-97994418D02*
X167167000Y-97330582D01*
X167167000Y-99161100D02*
X167167000Y-99005582D01*
D13*
X136140000Y-132430000D02*
X137250000Y-132430000D01*
X136140000Y-133190000D02*
X136140000Y-132430000D01*
X136140000Y-133950000D02*
X136140000Y-138965000D01*
X136140000Y-133950000D02*
X136686529Y-133950000D01*
X136140000Y-138965000D02*
X136942470Y-138965000D01*
X137557530Y-138965000D02*
X138360000Y-138965000D01*
X137813471Y-133950000D02*
X138360000Y-133950000D01*
X138360000Y-133950000D02*
X138360000Y-138965000D01*
X177000000Y-82440000D02*
X176350000Y-82440000D01*
X177000000Y-82440000D02*
X177650000Y-82440000D01*
X177000000Y-85560000D02*
X176350000Y-85560000D01*
X177000000Y-85560000D02*
X177650000Y-85560000D01*
X175837500Y-82490000D02*
X175597500Y-82160000D01*
X176077500Y-82160000D01*
X175837500Y-82490000D01*
G36*
X175837500Y-82490000D02*
G01*
X175597500Y-82160000D01*
X176077500Y-82160000D01*
X175837500Y-82490000D01*
G37*
X157629541Y-90831990D02*
X157629541Y-93691990D01*
X157629541Y-93691990D02*
X159549541Y-93691990D01*
X159549541Y-93691990D02*
X159549541Y-90831990D01*
X132571196Y-82772724D02*
X132571196Y-82480190D01*
X133591196Y-82772724D02*
X133591196Y-82480190D01*
X136858314Y-115187983D02*
X136565780Y-115187983D01*
X136858314Y-116207983D02*
X136565780Y-116207983D01*
X253640000Y-76040000D02*
X253640000Y-77960000D01*
X253640000Y-77960000D02*
X256500000Y-77960000D01*
X256500000Y-76040000D02*
X253640000Y-76040000D01*
X198794790Y-118404524D02*
X198794790Y-120324524D01*
X198794790Y-120324524D02*
X201654790Y-120324524D01*
X201654790Y-118404524D02*
X198794790Y-118404524D01*
X178062500Y-132940000D02*
X177412500Y-132940000D01*
X178062500Y-132940000D02*
X178712500Y-132940000D01*
X178062500Y-136060000D02*
X177412500Y-136060000D01*
X178062500Y-136060000D02*
X178712500Y-136060000D01*
X176900000Y-132990000D02*
X176660000Y-132660000D01*
X177140000Y-132660000D01*
X176900000Y-132990000D01*
G36*
X176900000Y-132990000D02*
G01*
X176660000Y-132660000D01*
X177140000Y-132660000D01*
X176900000Y-132990000D01*
G37*
X144227500Y-137407776D02*
X144227500Y-137917224D01*
X145272500Y-137407776D02*
X145272500Y-137917224D01*
X178138674Y-137160048D02*
X177488674Y-137160048D01*
X178138674Y-137160048D02*
X178788674Y-137160048D01*
X178138674Y-140280048D02*
X177488674Y-140280048D01*
X178138674Y-140280048D02*
X178788674Y-140280048D01*
X176976174Y-137210048D02*
X176736174Y-136880048D01*
X177216174Y-136880048D01*
X176976174Y-137210048D01*
G36*
X176976174Y-137210048D02*
G01*
X176736174Y-136880048D01*
X177216174Y-136880048D01*
X176976174Y-137210048D01*
G37*
X176111210Y-104254724D02*
X176111210Y-103745276D01*
X177156210Y-104254724D02*
X177156210Y-103745276D01*
X215165000Y-107540000D02*
X215165000Y-109460000D01*
X215165000Y-109460000D02*
X218025000Y-109460000D01*
X218025000Y-107540000D02*
X215165000Y-107540000D01*
X143810877Y-140563376D02*
X143810877Y-143423376D01*
X143810877Y-143423376D02*
X145730877Y-143423376D01*
X145730877Y-143423376D02*
X145730877Y-140563376D01*
X176963596Y-76500791D02*
X176313596Y-76500791D01*
X176963596Y-76500791D02*
X177613596Y-76500791D01*
X176963596Y-79620791D02*
X176313596Y-79620791D01*
X176963596Y-79620791D02*
X177613596Y-79620791D01*
X175801096Y-76550791D02*
X175561096Y-76220791D01*
X176041096Y-76220791D01*
X175801096Y-76550791D01*
G36*
X175801096Y-76550791D02*
G01*
X175561096Y-76220791D01*
X176041096Y-76220791D01*
X175801096Y-76550791D01*
G37*
X210952206Y-120465894D02*
X210952206Y-122385894D01*
X210952206Y-122385894D02*
X213812206Y-122385894D01*
X213812206Y-120465894D02*
X210952206Y-120465894D01*
X135918842Y-82954492D02*
X135409394Y-82954492D01*
X135918842Y-83999492D02*
X135409394Y-83999492D01*
X160657776Y-112477500D02*
X161167224Y-112477500D01*
X160657776Y-113522500D02*
X161167224Y-113522500D01*
X169672981Y-111340491D02*
X169672981Y-111633025D01*
X170692981Y-111340491D02*
X170692981Y-111633025D01*
X134491233Y-89360914D02*
X134783767Y-89360914D01*
X134491233Y-90380914D02*
X134783767Y-90380914D01*
X123081196Y-80576457D02*
X125081196Y-80576457D01*
X123081196Y-84676457D02*
X123081196Y-80576457D01*
X125081196Y-80576457D02*
X125081196Y-84676457D01*
X125081196Y-84676457D02*
X123081196Y-84676457D01*
X198640000Y-138540000D02*
X198640000Y-140460000D01*
X198640000Y-140460000D02*
X201500000Y-140460000D01*
X201500000Y-138540000D02*
X198640000Y-138540000D01*
X136516058Y-101487923D02*
X136516058Y-101517923D01*
X136516058Y-106017923D02*
X136516058Y-103417923D01*
X136516058Y-107947923D02*
X136516058Y-107917923D01*
X142976058Y-101487923D02*
X136516058Y-101487923D01*
X142976058Y-101487923D02*
X142976058Y-101517923D01*
X142976058Y-106017923D02*
X142976058Y-103417923D01*
X142976058Y-107917923D02*
X142976058Y-107947923D01*
X142976058Y-107947923D02*
X136516058Y-107947923D01*
X150107267Y-81250364D02*
X150107267Y-84250364D01*
X153107267Y-81250364D02*
X153107267Y-84250364D01*
X150207267Y-84600364D02*
X149877267Y-84840364D01*
X149877267Y-84360364D01*
X150207267Y-84600364D01*
G36*
X150207267Y-84600364D02*
G01*
X149877267Y-84840364D01*
X149877267Y-84360364D01*
X150207267Y-84600364D01*
G37*
X119867782Y-137002515D02*
X119867782Y-137295049D01*
X120887782Y-137002515D02*
X120887782Y-137295049D01*
X127504724Y-108047667D02*
X126995276Y-108047667D01*
X127504724Y-109092667D02*
X126995276Y-109092667D01*
X232695918Y-107316892D02*
X232695918Y-109236892D01*
X232695918Y-109236892D02*
X235555918Y-109236892D01*
X235555918Y-107316892D02*
X232695918Y-107316892D01*
X136824957Y-119815651D02*
X136532423Y-119815651D01*
X136824957Y-120835651D02*
X136532423Y-120835651D01*
X160263649Y-104370682D02*
X160556183Y-104370682D01*
X160263649Y-105390682D02*
X160556183Y-105390682D01*
X124887471Y-137005278D02*
X124887471Y-137297812D01*
X125907471Y-137005278D02*
X125907471Y-137297812D01*
X123104343Y-137402207D02*
X123104343Y-136892759D01*
X124149343Y-137402207D02*
X124149343Y-136892759D01*
X176141101Y-112529520D02*
X176141101Y-112020072D01*
X177186101Y-112529520D02*
X177186101Y-112020072D01*
D15*
X121301214Y-132313954D02*
X127301214Y-132313954D01*
X127301214Y-135313954D01*
X121301214Y-135313954D01*
X121301214Y-132313954D01*
D13*
X199464181Y-96314615D02*
X199464181Y-98234615D01*
X199464181Y-98234615D02*
X202324181Y-98234615D01*
X202324181Y-96314615D02*
X199464181Y-96314615D01*
X146727500Y-137332776D02*
X146727500Y-137842224D01*
X147772500Y-137332776D02*
X147772500Y-137842224D01*
X176181299Y-98456122D02*
X176181299Y-97946674D01*
X177226299Y-98456122D02*
X177226299Y-97946674D01*
X139719105Y-111591355D02*
X139719105Y-111298821D01*
X140739105Y-111591355D02*
X140739105Y-111298821D01*
X182553799Y-111503898D02*
X181903799Y-111503898D01*
X182553799Y-111503898D02*
X183203799Y-111503898D01*
X182553799Y-114623898D02*
X181903799Y-114623898D01*
X182553799Y-114623898D02*
X183203799Y-114623898D01*
X181391299Y-111553898D02*
X181151299Y-111223898D01*
X181631299Y-111223898D01*
X181391299Y-111553898D01*
G36*
X181391299Y-111553898D02*
G01*
X181151299Y-111223898D01*
X181631299Y-111223898D01*
X181391299Y-111553898D01*
G37*
X176133801Y-117686009D02*
X176133801Y-117176561D01*
X177178801Y-117686009D02*
X177178801Y-117176561D01*
X157657776Y-109977500D02*
X158167224Y-109977500D01*
X157657776Y-111022500D02*
X158167224Y-111022500D01*
X211640000Y-95540000D02*
X211640000Y-97460000D01*
X211640000Y-97460000D02*
X214500000Y-97460000D01*
X214500000Y-95540000D02*
X211640000Y-95540000D01*
X236140000Y-80040000D02*
X236140000Y-81960000D01*
X236140000Y-81960000D02*
X239000000Y-81960000D01*
X239000000Y-80040000D02*
X236140000Y-80040000D01*
X126490000Y-136991233D02*
X126490000Y-137283767D01*
X127510000Y-136991233D02*
X127510000Y-137283767D01*
X141990000Y-127491233D02*
X141990000Y-127783767D01*
X143010000Y-127491233D02*
X143010000Y-127783767D01*
X182538111Y-115491075D02*
X181888111Y-115491075D01*
X182538111Y-115491075D02*
X183188111Y-115491075D01*
X182538111Y-118611075D02*
X181888111Y-118611075D01*
X182538111Y-118611075D02*
X183188111Y-118611075D01*
X181375611Y-115541075D02*
X181135611Y-115211075D01*
X181615611Y-115211075D01*
X181375611Y-115541075D01*
G36*
X181375611Y-115541075D02*
G01*
X181135611Y-115211075D01*
X181615611Y-115211075D01*
X181375611Y-115541075D01*
G37*
X170477500Y-77667224D02*
X170477500Y-77157776D01*
X171522500Y-77667224D02*
X171522500Y-77157776D01*
X182140000Y-129040000D02*
X182140000Y-130960000D01*
X182140000Y-130960000D02*
X185000000Y-130960000D01*
X185000000Y-129040000D02*
X182140000Y-129040000D01*
X218671118Y-129143187D02*
X218671118Y-131063187D01*
X218671118Y-131063187D02*
X221531118Y-131063187D01*
X221531118Y-129143187D02*
X218671118Y-129143187D01*
X146295159Y-140488376D02*
X146295159Y-143348376D01*
X146295159Y-143348376D02*
X148215159Y-143348376D01*
X148215159Y-143348376D02*
X148215159Y-140488376D01*
X168087824Y-111325986D02*
X168087824Y-111618520D01*
X169107824Y-111325986D02*
X169107824Y-111618520D01*
X122332776Y-112477500D02*
X122842224Y-112477500D01*
X122332776Y-113522500D02*
X122842224Y-113522500D01*
X166485976Y-111705695D02*
X166485976Y-111196247D01*
X167530976Y-111705695D02*
X167530976Y-111196247D01*
X157900000Y-103600000D02*
X156800000Y-103600000D01*
X157900000Y-105400000D02*
X156600000Y-105400000D01*
X156550000Y-103600000D02*
X156270000Y-103600000D01*
X156550000Y-103320000D01*
X156550000Y-103600000D01*
G36*
X156550000Y-103600000D02*
G01*
X156270000Y-103600000D01*
X156550000Y-103320000D01*
X156550000Y-103600000D01*
G37*
X151371096Y-87665952D02*
X151371096Y-87156504D01*
X152416096Y-87665952D02*
X152416096Y-87156504D01*
X138180925Y-114489227D02*
X137888391Y-114489227D01*
X138180925Y-113469227D02*
X137888391Y-113469227D01*
X148317288Y-87638220D02*
X148317288Y-87128772D01*
X149362288Y-87638220D02*
X149362288Y-87128772D01*
X149749409Y-126042473D02*
X149749409Y-126335007D01*
X150769409Y-126042473D02*
X150769409Y-126335007D01*
X255165000Y-98540000D02*
X255165000Y-100460000D01*
X255165000Y-100460000D02*
X258025000Y-100460000D01*
X258025000Y-98540000D02*
X255165000Y-98540000D01*
X245165000Y-136540000D02*
X245165000Y-138460000D01*
X245165000Y-138460000D02*
X248025000Y-138460000D01*
X248025000Y-136540000D02*
X245165000Y-136540000D01*
X134491233Y-90990000D02*
X134783767Y-90990000D01*
X134491233Y-92010000D02*
X134783767Y-92010000D01*
X202115000Y-75540000D02*
X202115000Y-77460000D01*
X202115000Y-77460000D02*
X204975000Y-77460000D01*
X204975000Y-75540000D02*
X202115000Y-75540000D01*
X157977500Y-87657776D02*
X157977500Y-88167224D01*
X159022500Y-87657776D02*
X159022500Y-88167224D01*
X130905924Y-83838106D02*
X130905924Y-83545572D01*
X131925924Y-83838106D02*
X131925924Y-83545572D01*
X164890000Y-121380000D02*
X166000000Y-121380000D01*
X164890000Y-122140000D02*
X164890000Y-121380000D01*
X164890000Y-122900000D02*
X164890000Y-126645000D01*
X164890000Y-122900000D02*
X165436529Y-122900000D01*
X164890000Y-126645000D02*
X165692470Y-126645000D01*
X166307530Y-126645000D02*
X167110000Y-126645000D01*
X166563471Y-122900000D02*
X167110000Y-122900000D01*
X167110000Y-122900000D02*
X167110000Y-126645000D01*
X128856196Y-89003390D02*
X128856196Y-86053390D01*
X132306196Y-89003390D02*
X132306196Y-86053390D01*
X135413972Y-81276537D02*
X135923420Y-81276537D01*
X135413972Y-82321537D02*
X135923420Y-82321537D01*
X160086595Y-90813376D02*
X160086595Y-93673376D01*
X160086595Y-93673376D02*
X162006595Y-93673376D01*
X162006595Y-93673376D02*
X162006595Y-90813376D01*
X203761760Y-107396758D02*
X203761760Y-109316758D01*
X203761760Y-109316758D02*
X206621760Y-109316758D01*
X206621760Y-107396758D02*
X203761760Y-107396758D01*
X116100000Y-111430000D02*
X117230000Y-111430000D01*
X116100000Y-112190000D02*
X116100000Y-111430000D01*
X116100000Y-112950000D02*
X116100000Y-117965000D01*
X116100000Y-112950000D02*
X116666529Y-112950000D01*
X116100000Y-117965000D02*
X116922470Y-117965000D01*
X117537530Y-117965000D02*
X118192470Y-117965000D01*
X117793471Y-112950000D02*
X117936529Y-112950000D01*
X117990000Y-111495000D02*
X118192470Y-111495000D01*
X117990000Y-111626529D02*
X117990000Y-111495000D01*
X117990000Y-112896529D02*
X117990000Y-112753471D01*
X118807530Y-111495000D02*
X119630000Y-111495000D01*
X118807530Y-117965000D02*
X119630000Y-117965000D01*
X119630000Y-111495000D02*
X119630000Y-117965000D01*
X218665000Y-86040000D02*
X218665000Y-87960000D01*
X218665000Y-87960000D02*
X221525000Y-87960000D01*
X221525000Y-86040000D02*
X218665000Y-86040000D01*
X182562500Y-101761013D02*
X181912500Y-101761013D01*
X182562500Y-101761013D02*
X183212500Y-101761013D01*
X182562500Y-104881013D02*
X181912500Y-104881013D01*
X182562500Y-104881013D02*
X183212500Y-104881013D01*
X181400000Y-101811013D02*
X181160000Y-101481013D01*
X181640000Y-101481013D01*
X181400000Y-101811013D01*
G36*
X181400000Y-101811013D02*
G01*
X181160000Y-101481013D01*
X181640000Y-101481013D01*
X181400000Y-101811013D01*
G37*
X167692853Y-99685690D02*
X167985387Y-99685690D01*
X167692853Y-100705690D02*
X167985387Y-100705690D01*
X140147934Y-114028726D02*
X140147934Y-114978726D01*
X140147934Y-124248726D02*
X140147934Y-123298726D01*
X141097934Y-114028726D02*
X140147934Y-114028726D01*
X141097934Y-124248726D02*
X140147934Y-124248726D01*
X149417934Y-114028726D02*
X150367934Y-114028726D01*
X149417934Y-124248726D02*
X150367934Y-124248726D01*
X150367934Y-114028726D02*
X150367934Y-114978726D01*
X150367934Y-124248726D02*
X150367934Y-123298726D01*
X139532934Y-114978726D02*
X139192934Y-114508726D01*
X139872934Y-114508726D01*
X139532934Y-114978726D01*
G36*
X139532934Y-114978726D02*
G01*
X139192934Y-114508726D01*
X139872934Y-114508726D01*
X139532934Y-114978726D01*
G37*
%LPC*%
D16*
X133346196Y-85669048D03*
D17*
X133631196Y-85669048D03*
D16*
X133346196Y-86169048D03*
D17*
X133631196Y-86169048D03*
D16*
X133346196Y-86669048D03*
D17*
X133631196Y-86669048D03*
D16*
X133346196Y-87169048D03*
D17*
X133631196Y-87169048D03*
D16*
X133346196Y-87669048D03*
D17*
X133631196Y-87669048D03*
X136581196Y-87669048D03*
D16*
X136866196Y-87669048D03*
D17*
X136581196Y-87169048D03*
D16*
X136866196Y-87169048D03*
D17*
X136581196Y-86669048D03*
D16*
X136866196Y-86669048D03*
D17*
X136581196Y-86169048D03*
D16*
X136866196Y-86169048D03*
D17*
X136581196Y-85669048D03*
D16*
X136866196Y-85669048D03*
D18*
X134606196Y-85919048D03*
X134606196Y-87419048D03*
D19*
X134656196Y-86034048D03*
X134656196Y-87304048D03*
D20*
X134856196Y-85039048D03*
D21*
X134856196Y-85119048D03*
X134856196Y-88219048D03*
D20*
X134856196Y-88299048D03*
D18*
X135106196Y-86669048D03*
D22*
X135106196Y-86669048D03*
D20*
X135356196Y-85039048D03*
D21*
X135356196Y-85119048D03*
X135356196Y-88219048D03*
D20*
X135356196Y-88299048D03*
D19*
X135556196Y-86034048D03*
X135556196Y-87304048D03*
D18*
X135606196Y-85919048D03*
X135606196Y-87419048D03*
D23*
X136000000Y-95500000D03*
X143950000Y-95500000D03*
X136000000Y-100000000D03*
X143950000Y-100000000D03*
D24*
X152847261Y-115705081D03*
X154572261Y-115705081D03*
D25*
X137535635Y-121937760D03*
X135810635Y-121937760D03*
D26*
X160500000Y-143560000D03*
D27*
X160500000Y-142290000D03*
X160500000Y-141020000D03*
X160500000Y-139750000D03*
X160500000Y-138480000D03*
X160500000Y-137210000D03*
X160500000Y-135940000D03*
X160500000Y-134670000D03*
D28*
X238489371Y-119278460D03*
X240539371Y-119278460D03*
D29*
X154607267Y-75475364D03*
D30*
X149207267Y-75475364D03*
D31*
X147000000Y-101000000D03*
D32*
X121712407Y-110048551D03*
X123537407Y-110048551D03*
D33*
X151906336Y-91802774D03*
X151906336Y-90077774D03*
D28*
X238975000Y-97500000D03*
X241025000Y-97500000D03*
D34*
X133725000Y-98087500D03*
X133725000Y-99912500D03*
D28*
X226475000Y-96000000D03*
X228525000Y-96000000D03*
D35*
X166671477Y-106921439D03*
X166671477Y-107421439D03*
X166671477Y-107921439D03*
X166671477Y-108421439D03*
X166671477Y-108921439D03*
D36*
X167396477Y-109146439D03*
X167896477Y-109146439D03*
X168396477Y-109146439D03*
D35*
X169121477Y-108921439D03*
X169121477Y-108421439D03*
X169121477Y-107921439D03*
X169121477Y-107421439D03*
X169121477Y-106921439D03*
D36*
X168396477Y-106696439D03*
X167896477Y-106696439D03*
X167396477Y-106696439D03*
D31*
X129500000Y-115750000D03*
D37*
X181616299Y-97988898D03*
X181616299Y-99888898D03*
X183491299Y-98938898D03*
D32*
X131750000Y-102250000D03*
X133575000Y-102250000D03*
D38*
X133630584Y-107104329D03*
X131805584Y-107104329D03*
D39*
X171133179Y-85884780D03*
X171133179Y-84059780D03*
D24*
X168275000Y-98500000D03*
X170000000Y-98500000D03*
D28*
X259975000Y-118000000D03*
X262025000Y-118000000D03*
D39*
X172829630Y-140429444D03*
X172829630Y-138604444D03*
D40*
X118000000Y-104500000D03*
D30*
X118000000Y-99100000D03*
D34*
X161010000Y-87000000D03*
X161010000Y-88825000D03*
D39*
X172891901Y-134825000D03*
X172891901Y-133000000D03*
D28*
X223475000Y-108500000D03*
X225525000Y-108500000D03*
X227220392Y-121177972D03*
X229270392Y-121177972D03*
D41*
X148394215Y-91812997D03*
D26*
X117875360Y-123032355D03*
D27*
X117875360Y-124302355D03*
X117875360Y-125572355D03*
X117875360Y-126842355D03*
D28*
X188975000Y-107500000D03*
X191025000Y-107500000D03*
D42*
X122009140Y-136285051D03*
X122009140Y-138010051D03*
D28*
X183475000Y-84000000D03*
X185525000Y-84000000D03*
D43*
X164523200Y-97662500D03*
D44*
X166597200Y-96825000D03*
X165775000Y-96825000D03*
D45*
X163862800Y-97662500D03*
D44*
X165775000Y-98500000D03*
X166597200Y-98500000D03*
D26*
X137250000Y-133190000D03*
D27*
X137250000Y-134460000D03*
X137250000Y-135730000D03*
X137250000Y-137000000D03*
X137250000Y-138270000D03*
D37*
X176062500Y-83050000D03*
X176062500Y-84950000D03*
X177937500Y-84000000D03*
D46*
X158589541Y-92856990D03*
X158589541Y-90806990D03*
D33*
X133081196Y-83488957D03*
X133081196Y-81763957D03*
D25*
X137574547Y-115697983D03*
X135849547Y-115697983D03*
D31*
X128000000Y-115750000D03*
D28*
X254475000Y-77000000D03*
X256525000Y-77000000D03*
X199629790Y-119364524D03*
X201679790Y-119364524D03*
D37*
X177125000Y-133550000D03*
X177125000Y-135450000D03*
X179000000Y-134500000D03*
D34*
X144750000Y-136750000D03*
X144750000Y-138575000D03*
D37*
X177201174Y-137770048D03*
X177201174Y-139670048D03*
X179076174Y-138720048D03*
D39*
X176633710Y-104912500D03*
X176633710Y-103087500D03*
D28*
X216000000Y-108500000D03*
X218050000Y-108500000D03*
D46*
X144770877Y-142588376D03*
X144770877Y-140538376D03*
D37*
X176026096Y-77110791D03*
X176026096Y-79010791D03*
X177901096Y-78060791D03*
D47*
X261000000Y-143500000D03*
D48*
X261000000Y-143500000D03*
D28*
X211787206Y-121425894D03*
X213837206Y-121425894D03*
D38*
X136576618Y-83476992D03*
X134751618Y-83476992D03*
D32*
X160000000Y-113000000D03*
X161825000Y-113000000D03*
D42*
X170182981Y-110624258D03*
X170182981Y-112349258D03*
D24*
X133775000Y-89870914D03*
X135500000Y-89870914D03*
D49*
X124081196Y-81326457D03*
X124081196Y-82626457D03*
X124081196Y-83926457D03*
D28*
X199475000Y-139500000D03*
X201525000Y-139500000D03*
D23*
X143721058Y-106967923D03*
X135771058Y-106967923D03*
X143721058Y-102467923D03*
X135771058Y-102467923D03*
D50*
X150632267Y-84450364D03*
X151282267Y-84450364D03*
X151932267Y-84450364D03*
X152582267Y-84450364D03*
X152582267Y-81050364D03*
X151932267Y-81050364D03*
X151282267Y-81050364D03*
X150632267Y-81050364D03*
D42*
X120377782Y-136286282D03*
X120377782Y-138011282D03*
D38*
X128162500Y-108570167D03*
X126337500Y-108570167D03*
D47*
X261000000Y-74500000D03*
D48*
X261000000Y-74500000D03*
D28*
X233530918Y-108276892D03*
X235580918Y-108276892D03*
D25*
X137541190Y-120325651D03*
X135816190Y-120325651D03*
D24*
X159547416Y-104880682D03*
X161272416Y-104880682D03*
D42*
X125397471Y-136289045D03*
X125397471Y-138014045D03*
D39*
X123626843Y-138059983D03*
X123626843Y-136234983D03*
X176663601Y-113187296D03*
X176663601Y-111362296D03*
D51*
X122451214Y-134813954D03*
X123136214Y-134813954D03*
X123821214Y-134813954D03*
X124506214Y-134813954D03*
X125191214Y-134813954D03*
X126081214Y-132813954D03*
X125401214Y-132813954D03*
X124401214Y-132813954D03*
X123751214Y-132813954D03*
D52*
X122586214Y-132813954D03*
D28*
X200299181Y-97274615D03*
X202349181Y-97274615D03*
D47*
X117000000Y-74500000D03*
D48*
X117000000Y-74500000D03*
D34*
X147250000Y-136675000D03*
X147250000Y-138500000D03*
D39*
X176703799Y-99113898D03*
X176703799Y-97288898D03*
D33*
X140229105Y-112307588D03*
X140229105Y-110582588D03*
D37*
X181616299Y-112113898D03*
X181616299Y-114013898D03*
X183491299Y-113063898D03*
D39*
X176656301Y-118343785D03*
X176656301Y-116518785D03*
D32*
X157000000Y-110500000D03*
X158825000Y-110500000D03*
D28*
X212475000Y-96500000D03*
X214525000Y-96500000D03*
X236975000Y-81000000D03*
X239025000Y-81000000D03*
D31*
X131000000Y-115750000D03*
D42*
X127000000Y-136275000D03*
X127000000Y-138000000D03*
X142500000Y-126775000D03*
X142500000Y-128500000D03*
D37*
X181600611Y-116101075D03*
X181600611Y-118001075D03*
X183475611Y-117051075D03*
D39*
X171000000Y-78325000D03*
X171000000Y-76500000D03*
D28*
X182975000Y-130000000D03*
X185025000Y-130000000D03*
X219506118Y-130103187D03*
X221556118Y-130103187D03*
D46*
X147255159Y-142513376D03*
X147255159Y-140463376D03*
D42*
X168597824Y-110609753D03*
X168597824Y-112334753D03*
D47*
X117000000Y-143500000D03*
D48*
X117000000Y-143500000D03*
D32*
X121675000Y-113000000D03*
X123500000Y-113000000D03*
D39*
X167008476Y-112363471D03*
X167008476Y-110538471D03*
D53*
X156500000Y-104000000D03*
X156500000Y-104500000D03*
X156500000Y-105000000D03*
X158000000Y-105000000D03*
X158000000Y-104500000D03*
X158000000Y-104000000D03*
D39*
X151893596Y-88323728D03*
X151893596Y-86498728D03*
D25*
X137172158Y-113979227D03*
X138897158Y-113979227D03*
D39*
X148839788Y-88295996D03*
X148839788Y-86470996D03*
D42*
X150259409Y-125326240D03*
X150259409Y-127051240D03*
D28*
X256000000Y-99500000D03*
X258050000Y-99500000D03*
X246000000Y-137500000D03*
X248050000Y-137500000D03*
D24*
X133775000Y-91500000D03*
X135500000Y-91500000D03*
D28*
X202950000Y-76500000D03*
X205000000Y-76500000D03*
D34*
X158500000Y-87000000D03*
X158500000Y-88825000D03*
D33*
X131415924Y-84554339D03*
X131415924Y-82829339D03*
D26*
X166000000Y-122140000D03*
D27*
X166000000Y-123410000D03*
X166000000Y-124680000D03*
X166000000Y-125950000D03*
D54*
X130581196Y-88798390D03*
D55*
X130581196Y-86258390D03*
D32*
X134756196Y-81799037D03*
X136581196Y-81799037D03*
D46*
X161046595Y-92838376D03*
X161046595Y-90788376D03*
D28*
X204596760Y-108356758D03*
X206646760Y-108356758D03*
D26*
X117230000Y-112190000D03*
D27*
X118500000Y-112190000D03*
X117230000Y-113460000D03*
X118500000Y-113460000D03*
X117230000Y-114730000D03*
X118500000Y-114730000D03*
X117230000Y-116000000D03*
X118500000Y-116000000D03*
X117230000Y-117270000D03*
X118500000Y-117270000D03*
D28*
X219500000Y-87000000D03*
X221550000Y-87000000D03*
D37*
X181625000Y-102371013D03*
X181625000Y-104271013D03*
X183500000Y-103321013D03*
D24*
X166976620Y-100195690D03*
X168701620Y-100195690D03*
D56*
X116400000Y-85500000D03*
D57*
X143600000Y-85500000D03*
D58*
X139582934Y-115388726D03*
X139582934Y-115888726D03*
X139582934Y-116388726D03*
X139582934Y-116888726D03*
X139582934Y-117388726D03*
X139582934Y-117888726D03*
X139582934Y-118388726D03*
X139582934Y-118888726D03*
X139582934Y-119388726D03*
X139582934Y-119888726D03*
X139582934Y-120388726D03*
X139582934Y-120888726D03*
X139582934Y-121388726D03*
X139582934Y-121888726D03*
X139582934Y-122388726D03*
X139582934Y-122888726D03*
D59*
X141507934Y-124813726D03*
X142007934Y-124813726D03*
X142507934Y-124813726D03*
X143007934Y-124813726D03*
X143507934Y-124813726D03*
X144007934Y-124813726D03*
X144507934Y-124813726D03*
X145007934Y-124813726D03*
X145507934Y-124813726D03*
X146007934Y-124813726D03*
X146507934Y-124813726D03*
X147007934Y-124813726D03*
X147507934Y-124813726D03*
X148007934Y-124813726D03*
X148507934Y-124813726D03*
X149007934Y-124813726D03*
D58*
X150932934Y-122888726D03*
X150932934Y-122388726D03*
X150932934Y-121888726D03*
X150932934Y-121388726D03*
X150932934Y-120888726D03*
X150932934Y-120388726D03*
X150932934Y-119888726D03*
X150932934Y-119388726D03*
X150932934Y-118888726D03*
X150932934Y-118388726D03*
X150932934Y-117888726D03*
X150932934Y-117388726D03*
X150932934Y-116888726D03*
X150932934Y-116388726D03*
X150932934Y-115888726D03*
X150932934Y-115388726D03*
D59*
X149007934Y-113463726D03*
X148507934Y-113463726D03*
X148007934Y-113463726D03*
X147507934Y-113463726D03*
X147007934Y-113463726D03*
X146507934Y-113463726D03*
X146007934Y-113463726D03*
X145507934Y-113463726D03*
X145007934Y-113463726D03*
X144507934Y-113463726D03*
X144007934Y-113463726D03*
X143507934Y-113463726D03*
X143007934Y-113463726D03*
X142507934Y-113463726D03*
X142007934Y-113463726D03*
X141507934Y-113463726D03*
%LPD*%
M02*
