<?xml version="1.0" encoding="UTF-8"?>
<svg id="Layer_2" data-name="Layer 2" xmlns="http://www.w3.org/2000/svg" viewBox="0 0 72 50.45">
  <defs>
    <style>
      .cls-1 {
        fill: #00363a;
        stroke-width: 0px;
      }
    </style>
  </defs>
  <g id="Artwork">
    <path class="cls-1" d="M9.08,40.35c-2.4,0-4.63,1.99-4.63,5,0,3.22,2.29,5.1,4.87,5.1,2.29,0,3.79-1.35,4.3-3.01l-1.92-.61c-.31.94-1.02,1.66-2.38,1.66s-2.54-1.04-2.6-2.48h6.96s.06-.35.06-.72c0-3.01-1.72-4.94-4.65-4.94ZM6.78,44.35c.08-1.02.9-2.11,2.32-2.11,1.56,0,2.31,1,2.35,2.11h-4.67ZM69.26,44.51l-1.45-.29c-.59-.12-.96-.49-.96-1,0-.59.57-1.09,1.37-1.09,1.27,0,1.68.88,1.76,1.43l1.92-.55c-.16-.94-1.02-2.66-3.67-2.66-1.97,0-3.5,1.41-3.5,3.07,0,1.31.88,2.4,2.56,2.77l1.41.31c.76.16,1.11.55,1.11,1.06,0,.59-.49,1.09-1.43,1.09-1.21,0-1.86-.76-1.93-1.62l-1.97.55c.12,1.07,1.17,2.87,3.93,2.87,2.42,0,3.6-1.6,3.6-3.05s-.94-2.5-2.74-2.89ZM60.94,20.57c2.1-4.33,1.86-9.71-.65-14.05-.58-1-1.25-1.9-2.01-2.68-4.83-4.97-12.33-4.56-17.68-1.95.32.19.63.38.95.58l.95.6.23.15c4.53-1.78,10.29-1.8,14.05,2.06.64.66,1.21,1.42,1.7,2.27,2.17,3.75,2.39,8.39.58,12.11-1.58,3.25-4.39,5.53-8.13,6.59-6.67,1.9-13.2-.87-17.01-3.1,2.16-2.76,8.79-11.03,12.97-13.81,1.17-.78,2.39-1.2,3.53-1.22,1.39-.02,2.65.56,3.39,1.55.46.62.73,1.43.81,2.38.22,2.85-1.44,5.85-4.24,7.65l1.12,1.74c3.43-2.21,5.46-5.96,5.18-9.55-.1-1.35-.51-2.52-1.21-3.46-1.13-1.53-3.03-2.42-5.08-2.39-1.54.02-3.15.56-4.65,1.57-4.66,3.11-11.8,12.12-13.7,14.58-.26.34-.43.56-.47.62l-.68.9.95.6c.59.37,1.19.73,1.78,1.06,4.21,2.33,8.48,3.54,12.51,3.58,1.86.02,3.66-.22,5.38-.71,4.32-1.23,7.58-3.89,9.43-7.68ZM23.56,43.9c0-1.9-1.11-3.56-4.04-3.56-2.35,0-3.83,1.47-4.01,3.11l2.07.47c.1-.96.76-1.72,1.95-1.72,1.25,0,1.8.65,1.8,1.45,0,.33-.16.61-.7.68l-2.44.37c-1.62.23-2.87,1.17-2.87,2.87,0,1.5,1.23,2.87,3.22,2.87,1.54,0,2.48-.78,2.93-1.5,0,.76.08,1.15.1,1.21h2.11c-.02-.1-.12-.66-.12-1.52v-4.73ZM21.33,46.21c0,1.86-1.1,2.46-2.36,2.46-.9,0-1.39-.59-1.39-1.23,0-.78.57-1.17,1.27-1.29l2.48-.37v.43ZM0,50.16h2.27v-14.15H0v14.15ZM58.74,40.39c-1.46,0-2.56.68-2.99,1.43v-5.8h-2.23v14.15h2.21v-1.27c.55.92,1.58,1.5,2.93,1.5,2.78,0,4.48-2.17,4.48-5.04s-1.54-4.96-4.4-4.96ZM58.29,48.38c-1.45,0-2.56-1.13-2.56-3.01s1.11-2.97,2.56-2.97,2.56,1.07,2.56,2.97-1.07,3.01-2.56,3.01ZM50.79,43.9c0-1.9-1.11-3.56-4.04-3.56-2.34,0-3.83,1.47-4.01,3.11l2.07.47c.1-.96.76-1.72,1.95-1.72,1.25,0,1.8.65,1.8,1.45,0,.33-.16.61-.7.68l-2.44.37c-1.62.23-2.87,1.17-2.87,2.87,0,1.5,1.23,2.87,3.22,2.87,1.54,0,2.48-.78,2.93-1.5,0,.76.08,1.15.1,1.21h2.11c-.02-.1-.12-.66-.12-1.52v-4.73ZM48.56,46.21c0,1.86-1.09,2.46-2.36,2.46-.9,0-1.39-.59-1.39-1.23,0-.78.57-1.17,1.27-1.29l2.48-.37v.43ZM37.97,50.16h2.27v-14.15h-2.27v14.15ZM29.5,25.91l-.23-.15c-4.53,1.78-10.29,1.8-14.05-2.06-.64-.66-1.21-1.42-1.7-2.27-2.17-3.75-2.39-8.39-.58-12.11,1.58-3.25,4.39-5.53,8.13-6.59,6.67-1.9,13.2.87,17.01,3.1-2.16,2.76-8.79,11.03-12.97,13.81-1.17.78-2.39,1.2-3.53,1.22-1.39.02-2.65-.56-3.39-1.55-.46-.62-.73-1.43-.81-2.38-.22-2.85,1.44-5.85,4.24-7.65l-1.12-1.74c-3.43,2.21-5.46,5.96-5.18,9.55.1,1.35.51,2.52,1.21,3.46,1.13,1.53,3.03,2.42,5.08,2.39,1.54-.02,3.15-.56,4.65-1.56,4.66-3.11,11.8-12.12,13.7-14.58.26-.34.43-.56.47-.62l.68-.9-.95-.6c-.59-.37-1.19-.73-1.78-1.06C34.17,1.28,29.9.07,25.87.03c-1.86-.02-3.66.22-5.38.71-4.32,1.23-7.58,3.89-9.43,7.68-2.1,4.33-1.86,9.71.65,14.05.58,1,1.25,1.9,2.01,2.68,4.83,4.97,12.33,4.56,17.68,1.95-.32-.19-.63-.38-.95-.58l-.95-.6ZM26.82,39.33v1.31h-1.66v1.97h1.66v7.54h2.29v-7.54h2.21v-1.97h-2.21v-1.25c0-1.17.8-1.45,1.41-1.45.43,0,.68.06.82.1v-1.93c-.16-.08-.63-.2-1.19-.2-1.95,0-3.32,1.29-3.32,3.42Z"/>
  </g>
</svg>