<?xml version="1.0" encoding="UTF-8" standalone="no"?>
<!-- Created with Inkscape (http://www.inkscape.org/) -->

<svg
   width="210mm"
   height="297mm"
   viewBox="0 0 210 297"
   version="1.1"
   id="svg5"
   inkscape:version="1.1.2 (0a00cf5339, 2022-02-04)"
   sodipodi:docname="snowflake.svg"
   xmlns:inkscape="http://www.inkscape.org/namespaces/inkscape"
   xmlns:sodipodi="http://sodipodi.sourceforge.net/DTD/sodipodi-0.dtd"
   xmlns="http://www.w3.org/2000/svg"
   xmlns:svg="http://www.w3.org/2000/svg">
  <sodipodi:namedview
     id="namedview7"
     pagecolor="#ffffff"
     bordercolor="#666666"
     borderopacity="1.0"
     inkscape:pageshadow="2"
     inkscape:pageopacity="0.0"
     inkscape:pagecheckerboard="0"
     inkscape:document-units="mm"
     showgrid="false"
     inkscape:zoom="1.6631168"
     inkscape:cx="-259.75326"
     inkscape:cy="-13.528815"
     inkscape:window-width="2560"
     inkscape:window-height="1376"
     inkscape:window-x="0"
     inkscape:window-y="27"
     inkscape:window-maximized="1"
     inkscape:current-layer="layer1" />
  <defs
     id="defs2">
    <marker
       id="DistanceX"
       orient="auto"
       refX="0.0"
       refY="0.0"
       style="overflow:visible">
      <path
         d="M 3,-3 L -3,3 M 0,-5 L  0,5"
         style="stroke:#000000; stroke-width:0.5"
         id="path77" />
    </marker>
    <pattern
       id="Hatch"
       patternUnits="userSpaceOnUse"
       width="8"
       height="8"
       x="0"
       y="0">
      <path
         d="M8 4 l-4,4"
         stroke="#000000"
         stroke-width="0.25"
         linecap="square"
         id="path80" />
      <path
         d="M6 2 l-4,4"
         stroke="#000000"
         stroke-width="0.25"
         linecap="square"
         id="path82" />
      <path
         d="M4 0 l-4,4"
         stroke="#000000"
         stroke-width="0.25"
         linecap="square"
         id="path84" />
    </pattern>
    <symbol
       id="*MODEL_SPACE" />
    <symbol
       id="*PAPER_SPACE" />
  </defs>
  <g
     inkscape:label="Layer 1"
     inkscape:groupmode="layer"
     id="layer1">
    <path
       d="m -103.72705,-57.891225 a 1.2000001,1.2000001 0 0 0 -2.25526,0.82085 l 1.12866,3.10099 -3.6373,-2.10002 a 1.8000001,1.8000001 0 0 0 -2.45885,0.65886 l -0.075,0.12989 a 1.8000001,1.8000001 0 0 0 0.65885,2.45885 l 3.6373,2.1 -3.24986,0.57303 a 1.2000056,1.2000056 0 0 0 0.41675,2.36355 l 6.06662,-1.06971 8.372879,4.8341 h -5.670829 l -3.66753,-3.07745 -0.96419,1.14908 2.29814,1.92837 h -2.85 a 0.90000005,0.90000005 0 0 0 -0.9,0.89998 v 0.6519 a 0.90000005,0.90000005 0 0 0 0.9,0.90001 h 2.85 l -2.29814,1.92836 0.96418,1.14906 3.66754,-3.07742 h 5.670829 l -8.372879,4.8341 -6.06662,-1.06971 a 1.2,1.2 0 0 0 -0.41675,2.36352 l 3.24986,0.57303 -3.6373,2.10003 a 1.8000001,1.8000001 0 0 0 -0.65885,2.45882 l 0.075,0.12991 a 1.8000001,1.8000001 0 0 0 2.45885,0.65884 l 3.6373,-2.09999 -1.12866,3.10099 a 1.2000006,1.2000006 0 0 0 2.25526,0.82085 l 2.10691,-5.78872 8.372879,-4.83407 -2.835413,4.91109 -4.498896,1.63746 0.51302,1.40954 2.819083,-1.02606 -1.425,2.46817 a 0.90000005,0.90000005 0 0 0 0.329423,1.22941 l 0.564572,0.32597 a 0.90000005,0.90000005 0 0 0 1.229422,-0.32943 l 1.425,-2.46817 0.520945,2.95442 1.477211,-0.26046 -0.831363,-4.7149 2.835414,-4.91109 v 9.66817 l -3.959705,4.719 a 1.2,1.2 0 0 0 1.838506,1.54268 l 2.121199,-2.52794 v 4.2 a 1.8000001,1.8000001 0 0 0 1.799999,1.79999 h 0.150001 a 1.8000001,1.8000001 0 0 0 1.8,-1.79999 v -4.2 l 2.121199,2.52794 a 1.2,1.2 0 0 0 1.838506,-1.54268 l -3.959705,-4.719 v -9.66817 l 2.835413,4.91109 -0.831362,4.71487 1.47721,0.26049 0.520945,-2.95442 1.425,2.46817 a 0.90000005,0.90000005 0 0 0 1.229423,0.32943 l 0.564571,-0.32597 a 0.90000005,0.90000005 0 0 0 0.329423,-1.22941 l -1.425,-2.46817 2.819078,1.02606 0.513031,-1.40954 -4.498902,-1.63746 -2.835413,-4.91109 8.372875,4.83407 2.106915,5.78872 a 1.2000001,1.2000001 0 0 0 2.255262,-0.82085 l -1.128666,-3.10099 3.637307,2.09999 a 1.8000001,1.8000001 0 0 0 2.458846,-0.65884 l 0.075,-0.12991 a 1.8000001,1.8000001 0 0 0 -0.658846,-2.45882 l -3.637307,-2.10003 3.249866,-0.57303 a 1.2000001,1.2000001 0 0 0 -0.416756,-2.36352 l -6.066621,1.06971 -8.372875,-4.8341 h 5.670827 l 3.667534,3.07742 0.964185,-1.14906 -2.298133,-1.92836 h 2.85 a 0.90000005,0.90000005 0 0 0 0.9,-0.90001 v -0.6519 a 0.90000005,0.90000005 0 0 0 -0.9,-0.89998 h -2.85 l 2.298133,-1.92837 -0.964181,-1.14908 -3.667538,3.07745 h -5.670827 l 8.372875,-4.8341 6.06662,1.06971 a 1.2000056,1.2000056 0 1 0 0.416755,-2.36355 l -3.249864,-0.57303 3.637307,-2.1 a 1.8000001,1.8000001 0 0 0 0.658846,-2.45885 l -0.075,-0.12989 a 1.8000001,1.8000001 0 0 0 -2.458846,-0.65886 l -3.637307,2.10002 1.128667,-3.10099 a 1.2000006,1.2000006 0 0 0 -2.255263,-0.82085 l -2.106915,5.78869 -8.372875,4.8341 2.835413,-4.91109 4.498897,-1.63746 -0.513025,-1.40954 -2.819079,1.02606 1.425,-2.46817 a 0.90000005,0.90000005 0 0 0 -0.329423,-1.22944 l -0.564571,-0.32594 a 0.90000005,0.90000005 0 0 0 -1.229423,0.32941 l -1.425,2.46819 -0.520945,-2.95445 -1.477211,0.26049 0.831363,4.7149 -2.835413,4.91106 v -9.66814 l 3.959704,-4.719 a 1.2,1.2 0 1 0 -1.838506,-1.54268 l -2.121198,2.52794 v -4.2 a 1.8000001,1.8000001 0 0 0 -1.8,-1.80001 h -0.150001 a 1.8000001,1.8000001 0 0 0 -1.799999,1.80001 v 4.2 l -2.1212,-2.52797 a 1.2000063,1.2000063 0 0 0 -1.838506,1.54271 l 3.959706,4.719 v 9.66814 l -2.835414,-4.91106 0.831363,-4.7149 -1.477211,-0.26049 -0.520945,2.95445 -1.425,-2.46819 a 0.90000005,0.90000005 0 0 0 -1.229422,-0.32941 l -0.564572,0.32594 a 0.90000005,0.90000005 0 0 0 -0.329423,1.22944 l 1.425,2.46817 -2.819073,-1.02606 -0.51304,1.40954 4.498906,1.63746 2.835413,4.91109 -8.372879,-4.8341 z"
       style="fill:#000000;stroke:none;stroke-width:0.264583;fill-opacity:1"
       id="path91" />
  </g>
</svg>
