<?xml version="1.0" encoding="UTF-8" standalone="no"?>
<!-- Created with Inkscape (http://www.inkscape.org/) -->

<svg
   width="210mm"
   height="297mm"
   viewBox="0 0 210 297"
   version="1.1"
   id="svg5"
   sodipodi:docname="snowflake_with_frame.svg"
   inkscape:version="1.1.2 (0a00cf5339, 2022-02-04)"
   xmlns:inkscape="http://www.inkscape.org/namespaces/inkscape"
   xmlns:sodipodi="http://sodipodi.sourceforge.net/DTD/sodipodi-0.dtd"
   xmlns="http://www.w3.org/2000/svg"
   xmlns:svg="http://www.w3.org/2000/svg">
  <sodipodi:namedview
     id="namedview7"
     pagecolor="#ffffff"
     bordercolor="#666666"
     borderopacity="1.0"
     inkscape:pageshadow="2"
     inkscape:pageopacity="0.0"
     inkscape:pagecheckerboard="0"
     inkscape:document-units="mm"
     showgrid="false"
     inkscape:zoom="1.6546083"
     inkscape:cx="-326.36123"
     inkscape:cy="-88.540594"
     inkscape:window-width="2560"
     inkscape:window-height="1376"
     inkscape:window-x="0"
     inkscape:window-y="27"
     inkscape:window-maximized="1"
     inkscape:current-layer="layer1" />
  <defs
     id="defs2">
    <marker
       id="DistanceX"
       orient="auto"
       refX="0.0"
       refY="0.0"
       style="overflow:visible">
      <path
         d="M 3,-3 L -3,3 M 0,-5 L  0,5"
         style="stroke:#000000; stroke-width:0.5"
         id="path77" />
    </marker>
    <pattern
       id="Hatch"
       patternUnits="userSpaceOnUse"
       width="8"
       height="8"
       x="0"
       y="0">
      <path
         d="M8 4 l-4,4"
         stroke="#000000"
         stroke-width="0.25"
         linecap="square"
         id="path80" />
      <path
         d="M6 2 l-4,4"
         stroke="#000000"
         stroke-width="0.25"
         linecap="square"
         id="path82" />
      <path
         d="M4 0 l-4,4"
         stroke="#000000"
         stroke-width="0.25"
         linecap="square"
         id="path84" />
    </pattern>
    <symbol
       id="*MODEL_SPACE" />
    <symbol
       id="*PAPER_SPACE" />
  </defs>
  <g
     inkscape:label="Layer 1"
     inkscape:groupmode="layer"
     id="layer1">
    <path
       id="path91"
       style="fill:#000000;fill-opacity:1;stroke:#000000;stroke-width:0.999999;stroke-linejoin:round"
       d="M -337.60156 -256.61523 A 6.8031499 6.8031499 0 0 0 -344.4043 -249.8125 L -344.4043 -233.93945 L -352.42188 -243.49414 A 4.5360801 4.5360801 0 0 0 -359.37109 -237.66211 L -344.4043 -219.82617 L -344.4043 -199.22852 A 37.795276 37.795276 0 0 0 -352.25586 -196.88281 L -355.12109 -201.84766 L -351.97852 -219.66797 L -357.5625 -220.65234 L -359.53125 -209.48633 L -364.91797 -218.81445 A 3.401575 3.401575 0 0 0 -369.56445 -220.05859 L -371.69727 -218.82812 A 3.401575 3.401575 0 0 0 -372.94336 -214.18164 L -367.55664 -204.85156 L -378.21094 -208.73047 L -380.15039 -203.40234 L -363.14648 -197.21484 L -360.28516 -192.25977 A 37.795276 37.795276 0 0 0 -366.26367 -186.63867 L -384.07617 -196.92383 L -392.03906 -218.80078 A 4.5354333 4.5354333 0 0 0 -400.5625 -215.69922 L -396.29688 -203.97852 L -410.04492 -211.91602 A 6.8031499 6.8031499 0 0 0 -419.33789 -209.42578 L -419.62109 -208.93555 A 6.8031499 6.8031499 0 0 0 -417.13086 -199.64062 L -403.38477 -191.70508 L -415.66602 -189.53906 A 4.5356145 4.5356145 0 0 0 -414.0918 -180.60547 L -391.16211 -184.64844 L -373.29492 -174.33398 A 37.795276 37.795276 0 0 0 -375.08984 -166.37891 L -380.95117 -166.37891 L -394.8125 -178.00977 L -398.45508 -173.66602 L -389.76953 -166.37891 L -400.54102 -166.37891 A 3.401575 3.401575 0 0 0 -403.94336 -162.97656 L -403.94336 -160.51172 A 3.401575 3.401575 0 0 0 -400.54102 -157.11133 L -389.76953 -157.11133 L -398.45508 -149.82227 L -394.8125 -145.48047 L -380.95117 -157.11133 L -375.01367 -157.11133 A 37.795276 37.795276 0 0 0 -373.09766 -149.26953 L -391.16211 -138.83984 L -414.0918 -142.88281 A 4.535433 4.535433 0 0 0 -415.66602 -133.95117 L -403.38477 -131.78516 L -417.13086 -123.84766 A 6.8031499 6.8031499 0 0 0 -419.62109 -114.55469 L -419.33789 -114.0625 A 6.8031499 6.8031499 0 0 0 -410.04492 -111.57227 L -396.29688 -119.50977 L -400.5625 -107.78906 A 4.5354352 4.5354352 0 0 0 -392.03906 -104.6875 L -384.07617 -126.56641 L -365.87305 -137.07617 A 37.795276 37.795276 0 0 0 -360.00977 -131.70703 L -363.14648 -126.27539 L -380.15039 -120.08594 L -378.21094 -114.75781 L -367.55664 -118.63672 L -372.94336 -109.30859 A 3.401575 3.401575 0 0 0 -371.69727 -104.66211 L -369.56445 -103.42969 A 3.401575 3.401575 0 0 0 -364.91797 -104.67383 L -359.53125 -114.00391 L -357.5625 -102.83789 L -351.97852 -103.82227 L -355.12109 -121.64062 L -351.94141 -127.14844 A 37.795276 37.795276 0 0 0 -344.4043 -124.93945 L -344.4043 -103.66211 L -359.37109 -85.826172 A 4.5354528 4.5354528 0 0 0 -352.42188 -79.996094 L -344.4043 -89.550781 L -344.4043 -73.675781 A 6.8031499 6.8031499 0 0 0 -337.60156 -66.873047 L -337.03516 -66.873047 A 6.8031499 6.8031499 0 0 0 -330.23242 -73.675781 L -330.23242 -89.550781 L -322.21484 -79.996094 A 4.5354566 4.5354566 0 0 0 -315.26562 -85.826172 L -330.23242 -103.66211 L -330.23242 -125.0332 A 37.795276 37.795276 0 0 0 -322.79492 -127.32227 L -319.51562 -121.64062 L -322.6582 -103.82227 L -317.07422 -102.83789 L -315.10547 -114.00391 L -309.71875 -104.67383 A 3.401575 3.401575 0 0 0 -305.07227 -103.42969 L -302.93945 -104.66211 A 3.401575 3.401575 0 0 0 -301.69336 -109.30859 L -307.08008 -118.63672 L -296.42578 -114.75781 L -294.48633 -120.08594 L -311.49023 -126.27539 L -314.77539 -131.96484 A 37.795276 37.795276 0 0 0 -309.0957 -137.26758 L -290.56055 -126.56641 L -282.59766 -104.6875 A 4.5354335 4.5354335 0 0 0 -274.07422 -107.78906 L -278.33984 -119.50977 L -264.5918 -111.57227 A 6.8031499 6.8031499 0 0 0 -255.29883 -114.0625 L -255.01562 -114.55469 A 6.8031499 6.8031499 0 0 0 -257.50586 -123.84766 L -271.25391 -131.78516 L -258.9707 -133.95117 A 4.5354333 4.5354333 0 0 0 -260.54492 -142.88281 L -283.47461 -138.83984 L -301.95312 -149.50977 A 37.795276 37.795276 0 0 0 -300.11914 -157.11133 L -293.6875 -157.11133 L -279.82422 -145.48047 L -276.18164 -149.82227 L -284.86719 -157.11133 L -274.0957 -157.11133 A 3.401575 3.401575 0 0 0 -270.69336 -160.51172 L -270.69336 -162.97656 A 3.401575 3.401575 0 0 0 -274.0957 -166.37891 L -284.86719 -166.37891 L -276.18164 -173.66602 L -279.82422 -178.00977 L -293.6875 -166.37891 L -300.01758 -166.37891 A 37.795276 37.795276 0 0 0 -301.73633 -174.10547 L -283.47461 -184.64844 L -260.54492 -180.60547 A 4.5356145 4.5356145 0 1 0 -258.9707 -189.53906 L -271.25391 -191.70508 L -257.50586 -199.64062 A 6.8031499 6.8031499 0 0 0 -255.01562 -208.93555 L -255.29883 -209.42578 A 6.8031499 6.8031499 0 0 0 -264.5918 -211.91602 L -278.33984 -203.97852 L -274.07422 -215.69922 A 4.5354353 4.5354353 0 0 0 -282.59766 -218.80078 L -290.56055 -196.92383 L -308.68359 -186.45898 A 37.795276 37.795276 0 0 0 -314.49219 -192.01562 L -311.49023 -197.21484 L -294.48633 -203.40234 L -296.42578 -208.73047 L -307.08008 -204.85156 L -301.69336 -214.18164 A 3.401575 3.401575 0 0 0 -302.93945 -218.82812 L -305.07227 -220.05859 A 3.401575 3.401575 0 0 0 -309.71875 -218.81445 L -315.10547 -209.48633 L -317.07422 -220.65234 L -322.6582 -219.66797 L -319.51562 -201.84766 L -322.46875 -196.73242 A 37.795276 37.795276 0 0 0 -330.23242 -199.1582 L -330.23242 -219.82617 L -315.26562 -237.66211 A 4.536084 4.536084 0 0 0 -322.21484 -243.49414 L -330.23242 -233.93945 L -330.23242 -249.8125 A 6.8031499 6.8031499 0 0 0 -337.03516 -256.61523 L -337.60156 -256.61523 z M -337.50195 -196.03906 A 34.015748 34.015748 0 0 1 -303.48633 -162.02344 A 34.015748 34.015748 0 0 1 -337.50195 -128.00781 A 34.015748 34.015748 0 0 1 -371.51758 -162.02344 A 34.015748 34.015748 0 0 1 -337.50195 -196.03906 z "
       transform="scale(0.26458333)" />
  </g>
</svg>
