<?xml version="1.0" encoding="UTF-8" standalone="no"?>
<!-- Created with Inkscape (http://www.inkscape.org/) -->

<svg
   width="10mm"
   height="10mm"
   viewBox="0 0 10 10"
   version="1.1"
   id="svg1"
   inkscape:version="1.3.2 (091e20e, 2023-11-25, custom)"
   sodipodi:docname="website-qr.svg"
   xmlns:inkscape="http://www.inkscape.org/namespaces/inkscape"
   xmlns:sodipodi="http://sodipodi.sourceforge.net/DTD/sodipodi-0.dtd"
   xmlns="http://www.w3.org/2000/svg"
   xmlns:svg="http://www.w3.org/2000/svg">
  <sodipodi:namedview
     id="namedview1"
     pagecolor="#ffffff"
     bordercolor="#000000"
     borderopacity="0.25"
     inkscape:showpageshadow="2"
     inkscape:pageopacity="0.0"
     inkscape:pagecheckerboard="0"
     inkscape:deskcolor="#d1d1d1"
     inkscape:document-units="mm"
     inkscape:zoom="11.313708"
     inkscape:cx="18.517359"
     inkscape:cy="11.976621"
     inkscape:window-width="2256"
     inkscape:window-height="1415"
     inkscape:window-x="-9"
     inkscape:window-y="-9"
     inkscape:window-maximized="1"
     inkscape:current-layer="layer1" />
  <defs
     id="defs1">
    <pattern
       id="EMFhbasepattern"
       patternUnits="userSpaceOnUse"
       width="6"
       height="6"
       x="0"
       y="0" />
  </defs>
  <g
     inkscape:label="Layer 1"
     inkscape:groupmode="layer"
     id="layer1">
    <path
       style="fill:#000000;stroke-width:0.0237326"
       d="m 0.00707378,8.9444823 v -1.0606 H 1.0676837 2.1282838 v 1.0606 1.0606097 H 1.0676837 0.00707378 Z m 1.81818002,0 v -0.75757 H 1.0676837 0.31010378 v 0.75757 0.75758 H 1.0676837 1.8252538 Z m -1.21212006,0 v -0.45454 H 1.0676837 1.5222238 v 0.45454 0.45455 H 1.0676837 0.61313374 Z m 2.72727006,0.90909 v -0.15151 h -0.45454 -0.45455 v -0.15152 -0.15151 h 0.45455 0.45454 v -0.45455 -0.45454 h -0.15151 -0.15152 v 0.30303 0.30303 h -0.30303 -0.30303 v -0.45455 -0.45454 h 0.15152 0.15151 v -0.15152 -0.15151 h -0.15151 -0.15152 v -0.30303 -0.30303 h -0.15151 -0.15152 v 0.15151 0.15152 h -0.30303 -0.30303 v -0.15152 -0.15151 h 0.30303 0.30303 v -0.15152 -0.15151 h -0.15151 -0.15152 v -0.15152 -0.15151 h -0.15151 -0.15152 v 0.15151 0.15152 h -0.15151 -0.15152 v 0.30303 0.30303 H 0.61313374 0.00707378 v -0.60606 -0.60606 h 0.15152 0.15151 v 0.45454 0.45455 h 0.30302996 0.30303 v -0.30303 -0.30303 h -0.15151 -0.15152 v -0.15152 -0.15151 h 0.15152 0.15151 v -0.15152 -0.15151 h -0.15151 -0.15152 v -0.30303 -0.30303 h -0.15151 -0.15151996 v 0.30303 0.30303 h -0.15151 -0.15152 v -0.90909 -0.9091 h 0.45454996 0.45454 v -0.30303 -0.30303 H 1.0676837 1.2191938 v -0.15151 -0.15152 h 0.30303 0.30303 v -0.15151 -0.15152 h 0.15152 0.15151 v 0.15152 0.15151 h -0.15151 -0.15152 v 0.15152 0.15151 h 0.15152 0.15151 v 0.15152 0.15151 h 0.15152 0.15151 v -0.15151 -0.15152 h 0.15152 0.15151 v -0.15151 -0.15152 h -0.15151 -0.15152 v -0.7575701 -0.75758 h 0.15152 0.15151 v -0.15151 -0.15152 h -0.15151 -0.15152 v -0.30303 -0.30302999 h 0.15152 0.15151 v -0.15150997 -0.15152 h -0.15151 -0.15152 v -0.15151 -0.15152 h 0.30303 0.30303 v -0.15151 -0.15152 h 0.45455 0.45454 v 0.15152 0.15151 h 0.45455 0.45454 v 0.15152 0.15151 h -0.15151 -0.15152 v 0.15152 0.15150997 h 0.15152 0.15151 v 0.15151999 0.15151 h 0.30304 0.30303 v -0.15151 -0.15151999 h 0.30303 0.30303 v -0.15150997 -0.15152 h -0.30303 -0.30303 v -0.15151 -0.15152 h -0.15152 -0.15151 v -0.15151 -0.15152 h 0.30303 0.30303 v 0.15152 0.15151 h 0.30303 0.30303 v -0.15151 -0.15152 h 0.30303 0.30303 v 0.45455 0.45453997 h 0.15151 0.15152 v 0.15151999 0.15151 h 0.15151 0.15152 v 0.60606 0.60606 h 0.30303 0.30303 v 0.15152 0.15151 h -0.45455 -0.45454 v 0.1515201 0.15151 h 0.15151 0.15152 v 0.15152 0.15151 h 0.15151 0.15152 v -0.15151 -0.15152 h 0.15151 0.15152 v 0.15152 0.15151 h 0.15151 0.15152 v -0.45454 -0.4545501 h 0.30303 0.30303 v 0.15152 0.15151 h 0.15151 0.15152 v -0.15151 -0.15152 h 0.15151 0.15152 v 0.15152 0.15151 h -0.15152 -0.15151 v 0.1515201 0.15151 h 0.30303 0.3030302 v 0.30303 0.30303 h -0.4545502 -0.45454 v -0.15151 -0.15152 h -0.30303 -0.30303 v 0.45455 0.45454 h 0.15151 0.15152 v 0.15152 0.15151 h 0.15151 0.15152 v -0.15151 -0.15152 h 0.15151 0.15152 v 0.30303 0.30303 h -0.15152 -0.15151 v 0.15152 0.15152 h 0.15151 0.15152 v 0.15151 0.15152 h 0.15151 0.15152 v -0.15152 -0.15151 h 0.15151 0.1515202 v 0.60606 0.60606 h -0.1515202 -0.15151 v -0.30303 -0.30303 h -0.15152 -0.15151 v 0.15151 0.15152 h -0.15152 -0.15151 v 0.30303 0.30303 h -0.45455 -0.45454 v 0.30303 0.30303 h 0.45454 0.45455 v -0.15152 -0.15151 h 0.15151 0.15152 v -0.15152 -0.15151 h 0.30303 0.3030302 v 0.15151 0.15152 h -0.1515202 -0.15151 v 0.15151 0.15152 h 0.15151 0.1515202 v 0.15151 0.15152 h -0.1515202 -0.15151 v 0.15151 0.15152 h -0.15152 -0.15151 v 0.15151 0.15152 h 0.15151 0.15152 v 0.30303 0.30303 h 0.15151 0.1515202 v 0.45454 0.45455 h -0.6060602 -0.60606 v 0.15151 0.1515197 h -0.30303 -0.30303 v -0.6060597 -0.60606 h -0.15152 -0.15151 v 0.15151 0.15152 h -0.15152 -0.15151 v 0.15151 0.15152 h -0.15152 -0.15151 v 0.15151 0.15152 h 0.15151 0.15152 v 0.15151 0.1515197 h -0.15152 -0.15151 v -0.1515197 -0.15151 h -0.15152 -0.15151 v -0.15152 -0.15151 h 0.15151 0.15152 v -0.15152 -0.15151 h 0.15151 0.15152 v -0.15152 -0.15151 h -0.30303 -0.30303 v 0.15151 0.15152 h -0.15152 -0.15151 v 0.15151 0.15152 h -0.15152 -0.15151 v 0.15151 0.15152 h -0.15152 -0.15151 v 0.15151 0.1515197 h -0.15152 -0.15151 v -0.1515197 -0.15151 h -0.30303 -0.30303 v 0.15151 0.1515197 h -0.30304 -0.30303 v -0.1515197 -0.15151 h -0.15151 -0.15152 v 0.15151 0.1515197 h -0.45454 -0.45455 z m 0.60606,-0.30303 v -0.15151 h -0.15151 -0.15152 v 0.15151 0.15152 h 0.15152 0.15151 z m 1.81819,-0.30303 v -0.15151 h 0.15151 0.15152 v 0.15151 0.15152 h 0.15151 0.15152 v -0.45455 -0.45454 h -0.15152 -0.15151 v -0.15152 -0.15151 h -0.30303 -0.30303 v 0.15151 0.15152 h -0.15152 -0.15151 v -0.15152 -0.15151 h -0.15152 -0.15152 v 0.15151 0.15152 h -0.15151 -0.15152 v -0.30303 -0.30303 h 0.30303 0.30304 v -0.30303 -0.30303 h -0.15152 -0.15152 v -0.15152 -0.15151 h -0.15151 -0.15152 v 0.15151 0.15152 h -0.15151 -0.15152 v -0.60606 -0.60606 h 0.15152 0.15151 v 0.15151 0.15152 h 0.15152 0.15151 v 0.15151 0.15152 h 0.30304 0.30303 v 0.30303 0.30303 h 0.15151 0.15152 v 0.30303 0.30303 h 0.30303 0.30303 v 0.15151 0.15152 h 0.30303 0.30303 v -0.45455 -0.45454 h 0.15151 0.15152 v -0.15152 -0.15151 h -0.15152 -0.15151 v 0.15151 0.15152 h -0.15152 -0.15151 v -0.30303 -0.30303 h 0.15151 0.15152 v -0.15152 -0.15151 h 0.30303 0.30303 v 0.15151 0.15152 h 0.30303 0.30303 v -0.30303 -0.30303 h 0.15151 0.15152 v 0.15151 0.15152 h 0.15151 0.15152 v -0.15152 -0.15151 h -0.15152 -0.15151 v -0.15152 -0.15151 h 0.15151 0.15152 v -0.15152 -0.15151 h 0.15151 0.15152 v -0.15152 -0.15151 h -0.15152 -0.15151 v 0.15151 0.15152 h -0.15152 -0.15151 v -0.15152 -0.15151 h -0.15152 -0.15151 v 0.15151 0.15152 h -0.15152 -0.15151 v 0.15151 0.15152 h -0.15152 -0.15151 v -0.15152 -0.15151 h -0.15152 -0.15151 v -0.15152 -0.15151 h -0.15152 -0.15151 v 0.15151 0.15152 h 0.15151 0.15152 v 0.30303 0.30303 h -0.15152 -0.15151 v 0.15151 0.15152 h -0.30303 -0.30303 v -0.15152 -0.15151 h 0.15151 0.15152 v -0.15152 -0.15151 h -0.15152 -0.15151 v 0.15151 0.15152 h -0.15152 -0.15151 v -0.15152 -0.15151 h -0.60606 -0.60607 v -0.45455 -0.45455 h 0.30304 0.30303 v 0.15152 0.15152 h 0.45454 0.45455 v 0.15151 0.15152 h 0.15151 0.15152 v -0.30303 -0.30304 h 0.30303 0.30303 v -0.30303 -0.30303 h -0.15152 -0.15151 v -0.15151 -0.15152 h 0.30303 0.30303 v 0.30303 0.30303 h 0.15151 0.15152 v 0.15152 0.15151 h 0.15151 0.15152 v -0.15151 -0.15152 h -0.15152 -0.15151 v -0.15151 -0.15152 h 0.15151 0.15152 v -0.15151 -0.15152 h -0.15152 -0.15151 v -0.15151 -0.15152 h 0.15151 0.15152 v -0.15151 -0.15152 h -0.15152 -0.15151 v 0.15152 0.15151 h -0.15152 -0.15151 v -0.15151 -0.15152 h -0.30303 -0.30303 v 0.15152 0.15151 h -0.15152 -0.15151 v 0.15152 0.15151 h -0.15152 -0.15151 v -0.30303 -0.30303 h 0.15151 0.15152 v -0.15151 -0.15152 h -0.75758 -0.75757 v 0.30303 0.30303 h 0.15151 0.15152 v 0.15152 0.15151 h -0.15152 -0.15151 v 0.15152 0.15151 h 0.15151 0.15152 v 0.15152 0.15151 h -0.30303 -0.30304 v -0.15151 -0.15152 h -0.30303 -0.30303 v -0.15151 -0.15152 h -0.15151 -0.15152 v -0.15151 -0.15152 h -0.15151 -0.15152 v 0.30303 0.30303 h -0.15151 -0.15152 v -0.15151 -0.15152 h -0.15151 -0.15152 v -0.15151 -0.15152 h -0.15151 -0.15152 v 0.15152 0.15151 h -0.15151 -0.15152 v 0.15152 0.15151 h 0.15152 0.15151 v 0.15152 0.15151 h 0.30303 0.30303 v 0.15152 0.15151 h -0.45454 -0.45455 v -0.15151 -0.15152 h -0.30303 -0.30303 v -0.15151 -0.15152 h 0.15152 0.15151 v -0.15151 -0.15152 h -0.15151 -0.15152 v -0.15151 -0.15152 h -0.15151 -0.15152 v 0.15152 0.15151 h -0.15151 -0.15152 v 0.15152 0.15151 h 0.15152 0.15151 v 0.15152 0.15151 h -0.15151 -0.15152 v 0.15152 0.15151 h 0.15152 0.15151 v -0.15151 -0.15152 h 0.15152 0.15151 v 0.15152 0.15151 h 0.30303 0.30303 v 0.15152 0.15152 h 0.30303 0.30303 v 0.15151 0.15152 h -0.45454 -0.45455 v -0.15152 -0.15151 h -0.45454 -0.45455 v 0.15151 0.15152 H 1.0676837 0.91616374 v -0.15152 -0.15151 h -0.15151 -0.15152 v -0.15152 -0.15152 h 0.15152 0.15151 v -0.15151 -0.15152 h -0.30303 -0.30302996 v 0.30303 0.30304 h 0.15151996 0.15151 v 0.15151 0.15152 h 0.15152 0.15151 v 0.15151 0.15152 H 1.0676837 1.2191938 v -0.15152 -0.15151 h 0.45455 0.45454 v 0.15151 0.15152 h -0.15151 -0.15152 v 0.15151 0.15152 h -0.15151 -0.15152 v 0.15151 0.15152 h 0.15152 0.15151 v 0.15151 0.15152 h 0.30303 0.30303 v 0.15151 0.15152 h 0.45455 0.45454 v 0.15151 0.15152 h -0.15151 -0.15152 v 0.15151 0.15152 h -0.15151 -0.15152 v 0.15151 0.15152 h 0.15152 0.15151 v -0.15152 -0.15151 h 0.30303 0.30303 v 0.15151 0.15152 h -0.15151 -0.15152 v 0.15151 0.15152 h 0.15152 0.15151 v -0.15152 -0.15151 h 0.30303 0.30303 v 0.30303 0.30303 h 0.15152 0.15151 v 0.15151 0.15152 h 0.30303 0.30304 v 0.15151 0.15152 h -0.45455 -0.45455 v 0.15151 0.15152 h 0.75758 0.75758 z m -0.30303,-0.30303 v -0.15151 h 0.15151 0.15152 v 0.15151 0.15152 h -0.15152 -0.15151 z m 0.90909,-1.21212 v -0.15151 h -0.15152 -0.15151 v -0.15152 -0.15151 h -0.15152 -0.15151 v -0.30303 -0.30303 h 0.30303 0.30303 v 0.45454 0.45455 h 0.15151 0.15152 v 0.15151 0.15152 h -0.15152 -0.15151 z m -2.42425,-0.30303 v -0.15151 h 0.15152 0.15151 v 0.15151 0.15152 h -0.15151 -0.15152 z m -0.90909,-0.90909 v -0.15151 h -0.30303 -0.30303 v -0.15152 -0.15151 h -0.15151 -0.15152 v 0.15151 0.15152 h -0.15151 -0.15152 v -0.15152 -0.15151 h 0.15152 0.15151 v -0.15152 -0.15151 h 0.30303 0.30303 v 0.15151 0.15152 h 0.15152 0.15151 v -0.30303 -0.30303 h 0.45455 0.45454 v 0.45454 0.45455 h -0.15151 -0.15152 v -0.15152 -0.15151 h -0.15151 -0.15152 v 0.30303 0.30303 h -0.15151 -0.15152 z m 1.81818,-0.30303 v -0.15151 h 0.15152 0.15152 v 0.15151 0.15152 h -0.15152 -0.15152 z m 0.60607,0 v -0.15151 h 0.30303 0.30303 v 0.15151 0.15152 h -0.30303 -0.30303 z m 2.12121,0 v -0.15151 h 0.15151 0.15152 v -0.15152 -0.15151 h 0.15151 0.15152 v -0.15152 -0.15151 h 0.15151 0.15152 v 0.15151 0.15152 h -0.15152 -0.15151 v 0.15151 0.15152 h -0.15152 -0.15151 v 0.15151 0.15152 h -0.15152 -0.15151 z m -3.33334,-0.60606 v -0.15151 h 0.15152 0.15151 v 0.15151 0.15152 h -0.15151 -0.15152 z m -0.60606,-0.90909 v -0.45455 h 0.30303 0.30303 v 0.15152 0.15151 h -0.15151 -0.15152 v 0.30303 0.30304 h -0.15151 -0.15152 z m 0.90909,0 v -0.15152 h 0.15152 0.15151 v 0.15152 0.15151 h -0.15151 -0.15152 z m 1.51516,0 v -0.15152 h -0.15152 -0.15151 v -0.15151 -0.15152 h -0.15152 -0.15151 v -0.15151 -0.15152 h 0.15151 0.15152 v -0.15151 -0.15152 h -0.15152 -0.15151 v -0.15151 -0.15152 h 0.30303 0.30303 v 0.30303 0.30303 h 0.15151 0.15152 v 0.15152 0.15151 h 0.30303 0.30303 v 0.15152 0.15151 h -0.30303 -0.30303 v 0.15152 0.15151 h -0.15152 -0.15151 z m -2.12122,4.09091 v -0.30303 h -0.15151 -0.15152 v 0.30303 0.30303 h 0.15152 0.15151 z m 5.75758,0.15151 v -0.15151 h -0.15152 -0.15151 v -0.15152 -0.15151 h -0.30303 -0.30303 v 0.15151 0.15152 h -0.15152 -0.15151 v 0.15151 0.15152 h 0.60606 0.60606 z m -1.21212,-0.90909 v -0.45454 h -0.45455 -0.45454 v 0.45454 0.45455 h 0.45454 0.45455 z m -0.60606,0 v -0.15151 h 0.15151 0.15152 v 0.15151 0.15152 h -0.15152 -0.15151 z m 1.21212,-0.15151 v -0.30303 h 0.30303 0.30303 v -0.15152 -0.15151 h -0.30303 -0.30303 v 0.15151 0.15152 h -0.15152 -0.15151 v 0.30303 0.30303 h 0.15151 0.15152 z m -4.24243,-4.09091 v -0.15152 h -0.15151 -0.15152 v -0.15151 -0.15152 h -0.15151 -0.15152 v -0.15151 -0.15152 h 0.15152 0.15151 v -0.15151 -0.1515201 h -0.15151 -0.15152 v -0.15151 -0.15152 h 0.30303 0.30303 v 0.15152 0.15151 h 0.15152 0.15152 v -0.15151 -0.15152 h 0.15151 0.15152 v 0.15152 0.15151 h 0.90909 0.90909 v -0.15151 -0.15152 h -0.30303 -0.30303 v -0.30303 -0.30303 h 0.15151 0.15152 v 0.15152 0.15151 h 0.15151 0.15152 v -0.15151 -0.15152 h -0.15152 -0.15151 v -0.15151 -0.15152 h 0.15151 0.15152 v -0.15151 -0.15152 h -0.30303 -0.30303 v -0.15151 -0.15151999 h -0.15152 -0.15151 v 0.15151999 0.15151 h -0.45455 -0.45454 v 0.15152 0.15151 h -0.15152 -0.15151 v 0.30303 0.30303 h -0.15152 -0.15152 v -0.45454 -0.45455 h -0.15151 -0.15152 v -0.15151 -0.15151999 h -0.15151 -0.15152 v 0.30302999 0.30303 h -0.15151 -0.15152 v 0.30303 0.30303 h -0.15151 -0.15152 v -0.30303 -0.30303 h -0.15151 -0.15152 v -0.15151 -0.15152 h -0.15151 -0.15152 v -0.15151 -0.15151999 h -0.15151 -0.15152 v 0.15151999 0.15151 h 0.15152 0.15151 v 0.30303 0.30303 h -0.15151 -0.15152 v 0.15152 0.15151 h 0.15152 0.15151 v 0.15152 0.15151 h -0.15151 -0.15152 v 0.15152 0.15151 h 0.15152 0.15151 v -0.15151 -0.15152 h 0.15152 0.15151 v 0.15152 0.15151 h 0.15152 0.15151 v 0.1515201 0.15151 h -0.30303 -0.30303 v 0.15152 0.15151 h 0.60606 0.60606 v 0.15152 0.15151 h 0.15152 0.15151 v 0.15152 0.15151 h 0.15152 0.15151 z m -0.90909,-0.90909 V 2.7323622 h 0.15152 0.15151 v 0.1515201 0.15151 h -0.15151 -0.15152 z m -0.60606,-0.6060601 v -0.15152 h -0.15151 -0.15152 v -0.15151 -0.15152 h 0.15152 0.15151 v 0.15152 0.15151 h 0.15152 0.15151 v 0.15152 0.15151 h -0.15151 -0.15152 z m 0.60606,0 v -0.15152 h 0.15152 0.15151 v -0.30303 -0.30303 h 0.15152 0.15151 v 0.30303 0.30303 h -0.15151 -0.15152 v 0.15152 0.15151 h -0.15151 -0.15152 z m 1.51516,-0.45455 v -0.30303 h 0.30303 0.30303 v 0.15152 0.15151 h 0.15151 0.15152 v 0.15152 0.15151 h -0.15152 -0.15151 v -0.15151 -0.15152 h -0.15152 -0.15151 v 0.15152 0.15151 h -0.15152 -0.15151 z m 0.90909,-0.45454 v -0.15152 h 0.15151 0.15152 v 0.15152 0.15151 h -0.15152 -0.15151 z m -2.42425,-0.60605996 v -0.45455 h -0.15151 -0.15152 v 0.45455 0.45453996 h 0.15152 0.15151 z m -0.60606,-0.30303 v -0.15152 h -0.15151 -0.15152 v 0.15152 0.15151 h 0.15152 0.15151 z m 3.33334,0 v -0.15152 h -0.15152 -0.15151 v 0.15152 0.15151 h 0.15151 0.15152 z m 3.0303,4.24242006 v -0.15152 h 0.15151 0.1515202 v 0.15152 0.15151 h -0.1515202 -0.15151 z m -9.69697002,-0.90909 v -0.15152 h 0.15152 0.15151 v -0.30303 -0.30303 h -0.15151 -0.15152 v -0.15151 -0.1515201 h 0.15152 0.15151 v -0.15151 -0.15152 h 0.15151996 0.15151 v 0.15152 0.15151 h 0.15152 0.15151 v -0.15151 -0.15152 h 0.60606006 0.60606 v 0.15152 0.15151 h -0.45454 -0.45455 v 0.1515201 0.15151 H 1.0676837 0.91616374 v 0.15152 0.15151 h -0.15151 -0.15152 v 0.30303 0.30303 h -0.30302996 -0.30303 z m 0.60605996,-0.90909 V 2.7323622 h -0.15151 -0.15151996 v 0.1515201 0.15151 h 0.15151996 0.15151 z M 0.00707378,1.0657022 V 0.00509224 H 1.0676837 2.1282838 v 1.06060996 1.0606 H 1.0676837 0.00707378 Z m 1.81818002,0 V 0.30812224 H 1.0676837 0.31010378 v 0.75757996 0.75757 H 1.0676837 1.8252538 Z m -1.21212006,0 V 0.61115224 H 1.0676837 1.5222238 v 0.45454996 0.45454 H 1.0676837 0.61313374 Z m 7.27273006,0 V 0.00509224 h 1.0606 1.0606102 v 1.06060996 1.0606 h -1.0606102 -1.0606 z m 1.81818,0 V 0.30812224 h -0.75758 -0.75757 v 0.75757996 0.75757 h 0.75757 0.75758 z m -1.21212,0 V 0.61115224 h 0.45454 0.45455 v 0.45454996 0.45454 h -0.45455 -0.45454 z m -1.21212,-0.60605996 v -0.15152 h 0.15151 0.15152 v 0.15152 0.15151 h -0.15152 -0.15151 z"
       id="path1" />
  </g>
</svg>
